SplineFontDB: 3.0
FontName: DistinguishMono-Black
FullName: Distinguish Mono Black
FamilyName: Distinguish Mono
Weight: Black
Copyright: Copyright 2015 Google Inc. All Rights Reserved.
Version: 2.000;GOOG;noto-source:20170915:90ef993387c0; ttfautohint (v1.7)
ItalicAngle: 0
UnderlinePosition: -125
UnderlineWidth: 50
Ascent: 800
Descent: 200
InvalidEm: 0
sfntRevision: 0x00020000
LayerCount: 2
Layer: 0 1 "Back" 1
Layer: 1 1 "Fore" 0
XUID: [1021 269 1684064080 12351220]
StyleMap: 0x0000
FSType: 0
OS2Version: 4
OS2_WeightWidthSlopeOnly: 1
OS2_UseTypoMetrics: 0
CreationTime: 1435678095
ModificationTime: 1515872924
PfmFamily: 17
TTFWeight: 900
TTFWidth: 5
LineGap: 0
VLineGap: 0
Panose: 2 11 10 9 4 5 4 2 2 4
OS2TypoAscent: 1069
OS2TypoAOffset: 0
OS2TypoDescent: -293
OS2TypoDOffset: 0
OS2TypoLinegap: 0
OS2WinAscent: 1069
OS2WinAOffset: 0
OS2WinDescent: 293
OS2WinDOffset: 0
HheadAscent: 1069
HheadAOffset: 0
HheadDescent: -293
HheadDOffset: 0
OS2SubXSize: 650
OS2SubYSize: 600
OS2SubXOff: 0
OS2SubYOff: 75
OS2SupXSize: 650
OS2SupYSize: 600
OS2SupXOff: 0
OS2SupYOff: 350
OS2StrikeYSize: 50
OS2StrikeYPos: 322
OS2CapHeight: 714
OS2XHeight: 536
OS2Vendor: 'GOOG'
OS2CodePages: 00000000.00000000
OS2UnicodeRanges: e00002ff.400038df.08000029.00100000
Lookup: 1 0 0 "'aalt' Access All Alternates lookup 0" { "'aalt' Access All Alternates lookup 0 subtable"  } ['aalt' ('DFLT' <'dflt' > 'cyrl' <'SRB ' 'dflt' > 'grek' <'dflt' > 'latn' <'CAT ' 'MAH ' 'MOL ' 'NAV ' 'ROM ' 'dflt' > ) ]
Lookup: 3 0 0 "'aalt' Access All Alternates lookup 1" { "'aalt' Access All Alternates lookup 1 subtable"  } ['aalt' ('DFLT' <'dflt' > 'cyrl' <'SRB ' 'dflt' > 'grek' <'dflt' > 'latn' <'CAT ' 'MAH ' 'MOL ' 'NAV ' 'ROM ' 'dflt' > ) ]
Lookup: 4 0 0 "'ccmp' Glyph Composition/Decomposition lookup 2" { "'ccmp' Glyph Composition/Decomposition lookup 2 subtable"  } ['ccmp' ('DFLT' <'dflt' > 'cyrl' <'SRB ' 'dflt' > 'grek' <'dflt' > 'latn' <'CAT ' 'MAH ' 'MOL ' 'NAV ' 'ROM ' 'dflt' > ) ]

StartChar: .notdef
Encoding: 65536 -1 0
Width: 600
Flags: W
LayerCount: 2
Fore
SplineSet
94 0 m 1,0,-1
 94 714 l 1,1,-1
 505 714 l 1,2,-1
 505 0 l 1,3,-1
 94 0 l 1,0,-1
145 51 m 1,4,-1
 454 51 l 1,5,-1
 454 663 l 1,6,-1
 145 663 l 1,7,-1
 145 51 l 1,4,-1
EndSplineSet
EndChar

StartChar: exclam
Encoding: 33 33 4
Width: 600
Flags: W
LayerCount: 2
Fore
SplineSet
224 252 m 1,0,-1
 199 714 l 1,1,-1
 410 714 l 1,2,-1
 385 252 l 1,3,-1
 224 252 l 1,0,-1
304 -12 m 0,4,5
 262 -12 262 -12 231.5 10 c 128,-1,6
 201 32 201 32 201 81 c 0,7,8
 201 133 201 133 231.5 154 c 128,-1,9
 262 175 262 175 304 175 c 0,10,11
 345 175 345 175 375 154 c 128,-1,12
 405 133 405 133 405 81 c 0,13,14
 405 32 405 32 375 10 c 128,-1,15
 345 -12 345 -12 304 -12 c 0,4,5
EndSplineSet
Substitution2: "'smcp' Lowercase to Small Capitals lookup 33 subtable" exclam.sc
Substitution2: "'c2sc' Capitals to Small Capitals lookup 32 subtable" exclam.sc
Substitution2: "'aalt' Access All Alternates lookup 0 subtable" exclam.sc
EndChar

StartChar: quotedbl
Encoding: 34 34 5
Width: 600
Flags: W
LayerCount: 2
Fore
SplineSet
346 456 m 1,0,-1
 326 714 l 1,1,-1
 500 714 l 1,2,-1
 480 456 l 1,3,-1
 346 456 l 1,0,-1
120 456 m 1,4,-1
 100 714 l 1,5,-1
 274 714 l 1,6,-1
 254 456 l 1,7,-1
 120 456 l 1,4,-1
EndSplineSet
EndChar

StartChar: numbersign
Encoding: 35 35 6
Width: 600
Flags: W
LayerCount: 2
Fore
SplineSet
82 0 m 1,0,-1
 113 191 l 1,1,-1
 10 191 l 1,2,-1
 10 310 l 1,3,-1
 133 310 l 1,4,-1
 148 402 l 1,5,-1
 38 402 l 1,6,-1
 38 524 l 1,7,-1
 168 524 l 1,8,-1
 199 714 l 1,9,-1
 323 714 l 1,10,-1
 291 524 l 1,11,-1
 362 524 l 1,12,-1
 393 714 l 1,13,-1
 517 714 l 1,14,-1
 485 524 l 1,15,-1
 590 524 l 1,16,-1
 590 402 l 1,17,-1
 466 402 l 1,18,-1
 451 310 l 1,19,-1
 563 310 l 1,20,-1
 563 191 l 1,21,-1
 432 191 l 1,22,-1
 400 0 l 1,23,-1
 276 0 l 1,24,-1
 308 191 l 1,25,-1
 236 191 l 1,26,-1
 205 0 l 1,27,-1
 82 0 l 1,0,-1
256 310 m 1,28,-1
 327 310 l 1,29,-1
 342 402 l 1,30,-1
 271 402 l 1,31,-1
 256 310 l 1,28,-1
EndSplineSet
EndChar

StartChar: dollar
Encoding: 36 36 7
Width: 600
Flags: W
LayerCount: 2
Fore
SplineSet
263 -58 m 1,0,-1
 263 23 l 1,1,2
 208 25 208 25 159.5 36 c 128,-1,3
 111 47 111 47 71 65 c 1,4,-1
 71 213 l 1,5,6
 112 190 112 190 164.5 174 c 128,-1,7
 217 158 217 158 263 156 c 1,8,-1
 263 299 l 1,9,10
 204 320 204 320 160.5 346 c 128,-1,11
 117 372 117 372 93.5 411 c 128,-1,12
 70 450 70 450 70 506 c 0,13,14
 70 594 70 594 123 641 c 128,-1,15
 176 688 176 688 263 696 c 1,16,-1
 263 760 l 1,17,-1
 344 760 l 1,18,-1
 344 697 l 1,19,20
 394 694 394 694 437 681.5 c 128,-1,21
 480 669 480 669 523 651 c 1,22,-1
 482 523 l 1,23,24
 450 540 450 540 413.5 549.5 c 128,-1,25
 377 559 377 559 344 563 c 1,26,-1
 344 426 l 1,27,28
 405 405 405 405 446.5 380.5 c 128,-1,29
 488 356 488 356 509 321 c 128,-1,30
 530 286 530 286 530 232 c 0,31,32
 530 152 530 152 483.5 96 c 128,-1,33
 437 40 437 40 344 26 c 1,34,-1
 344 -58 l 1,35,-1
 263 -58 l 1,0,-1
263 455 m 1,36,-1
 263 562 l 1,37,38
 215 552 215 552 215 508 c 0,39,40
 215 488 215 488 226.5 477 c 128,-1,41
 238 466 238 466 263 455 c 1,36,-1
344 161 m 1,42,43
 366 168 366 168 377 181 c 128,-1,44
 388 194 388 194 388 219 c 0,45,46
 388 239 388 239 377.5 250.5 c 128,-1,47
 367 262 367 262 344 272 c 1,48,-1
 344 161 l 1,42,43
EndSplineSet
EndChar

StartChar: percent
Encoding: 37 37 8
Width: 600
Flags: W
LayerCount: 2
Fore
SplineSet
47 -10 m 1,0,-1
 419 724 l 1,1,-1
 551 724 l 1,2,-1
 179 -10 l 1,3,-1
 47 -10 l 1,0,-1
142 385 m 0,4,5
 75 385 75 385 37.5 428.5 c 128,-1,6
 0 472 0 472 0 554 c 256,7,8
 0 636 0 636 37.5 680 c 128,-1,9
 75 724 75 724 142 724 c 0,10,11
 213 724 213 724 250 679.5 c 128,-1,12
 287 635 287 635 287 554 c 0,13,14
 287 474 287 474 250 429.5 c 128,-1,15
 213 385 213 385 142 385 c 0,4,5
144 489 m 0,16,17
 154 489 154 489 159.5 503.5 c 128,-1,18
 165 518 165 518 165 554 c 0,19,20
 165 591 165 591 159.5 605.5 c 128,-1,21
 154 620 154 620 144 620 c 0,22,23
 133 620 133 620 127.5 605.5 c 128,-1,24
 122 591 122 591 122 554 c 0,25,26
 122 518 122 518 127.5 503.5 c 128,-1,27
 133 489 133 489 144 489 c 0,16,17
455 -10 m 0,28,29
 388 -10 388 -10 350.5 33.5 c 128,-1,30
 313 77 313 77 313 159 c 0,31,32
 313 242 313 242 350.5 285.5 c 128,-1,33
 388 329 388 329 455 329 c 0,34,35
 526 329 526 329 563 284.5 c 128,-1,36
 600 240 600 240 600 159 c 0,37,38
 600 79 600 79 563 34.5 c 128,-1,39
 526 -10 526 -10 455 -10 c 0,28,29
458 94 m 0,40,41
 468 94 468 94 473 108.5 c 128,-1,42
 478 123 478 123 478 159 c 0,43,44
 478 196 478 196 473 210.5 c 128,-1,45
 468 225 468 225 458 225 c 0,46,47
 446 225 446 225 440.5 210.5 c 128,-1,48
 435 196 435 196 435 159 c 0,49,50
 435 123 435 123 440.5 108.5 c 128,-1,51
 446 94 446 94 458 94 c 0,40,41
EndSplineSet
EndChar

StartChar: ampersand
Encoding: 38 38 9
Width: 600
Flags: W
LayerCount: 2
Fore
SplineSet
216 -10 m 0,0,1
 153 -10 153 -10 109.5 16.5 c 128,-1,2
 66 43 66 43 43 87 c 128,-1,3
 20 131 20 131 20 184 c 0,4,5
 20 254 20 254 54.5 304 c 128,-1,6
 89 354 89 354 134 391 c 1,7,8
 114 424 114 424 98 465 c 128,-1,9
 82 506 82 506 82 553 c 0,10,11
 82 631 82 631 130 677 c 128,-1,12
 178 723 178 723 260 723 c 0,13,14
 343 723 343 723 388 676.5 c 128,-1,15
 433 630 433 630 433 557 c 0,16,17
 433 514 433 514 418 482.5 c 128,-1,18
 403 451 403 451 377 426 c 128,-1,19
 351 401 351 401 319 376 c 1,20,-1
 395 270 l 1,21,22
 412 305 412 305 422 340 c 128,-1,23
 432 375 432 375 433 401 c 1,24,-1
 567 401 l 1,25,26
 564 342 564 342 541.5 276 c 128,-1,27
 519 210 519 210 480 152 c 1,28,-1
 590 0 l 1,29,-1
 418 0 l 1,30,-1
 383 48 l 1,31,32
 347 21 347 21 305 5.5 c 128,-1,33
 263 -10 263 -10 216 -10 c 0,0,1
219 555 m 0,34,35
 219 534 219 534 227 514.5 c 128,-1,36
 235 495 235 495 246 477 c 1,37,38
 268 496 268 496 284 517.5 c 128,-1,39
 300 539 300 539 300 563 c 0,40,41
 300 582 300 582 290 593.5 c 128,-1,42
 280 605 280 605 261 605 c 256,43,44
 242 605 242 605 230.5 592.5 c 128,-1,45
 219 580 219 580 219 555 c 0,34,35
172 206 m 0,46,47
 172 175 172 175 189 154 c 128,-1,48
 206 133 206 133 241 133 c 0,49,50
 273 133 273 133 305 154 c 1,51,-1
 209 285 l 1,52,53
 190 266 190 266 181 247 c 128,-1,54
 172 228 172 228 172 206 c 0,46,47
EndSplineSet
Substitution2: "'smcp' Lowercase to Small Capitals lookup 33 subtable" ampersand.sc
Substitution2: "'c2sc' Capitals to Small Capitals lookup 32 subtable" ampersand.sc
Substitution2: "'aalt' Access All Alternates lookup 0 subtable" ampersand.sc
EndChar

StartChar: quotesingle
Encoding: 39 39 10
Width: 600
Flags: W
LayerCount: 2
Fore
SplineSet
233 456 m 1,0,-1
 213 714 l 1,1,-1
 387 714 l 1,2,-1
 367 456 l 1,3,-1
 233 456 l 1,0,-1
EndSplineSet
EndChar

StartChar: parenleft
Encoding: 40 40 11
Width: 600
Flags: W
LayerCount: 2
Fore
SplineSet
315 -178 m 1,0,1
 248 -91 248 -91 214 21.5 c 128,-1,2
 180 134 180 134 180 264 c 0,3,4
 180 396 180 396 214.5 511.5 c 128,-1,5
 249 627 249 627 315 714 c 1,6,-1
 470 714 l 1,7,8
 404 619 404 619 373.5 504.5 c 128,-1,9
 343 390 343 390 343 265 c 0,10,11
 343 144 343 144 374.5 32 c 128,-1,12
 406 -80 406 -80 470 -178 c 1,13,-1
 315 -178 l 1,0,1
EndSplineSet
Substitution2: "'smcp' Lowercase to Small Capitals lookup 33 subtable" parenleft.sc
Substitution2: "'c2sc' Capitals to Small Capitals lookup 32 subtable" parenleft.sc
Substitution2: "'sups' Superscript lookup 21 subtable" uni207D
Substitution2: "'subs' Subscript lookup 20 subtable" uni208D
AlternateSubs2: "'aalt' Access All Alternates lookup 1 subtable" uni208D uni207D parenleft.sc
EndChar

StartChar: asterisk
Encoding: 42 42 13
Width: 600
Flags: W
LayerCount: 2
Fore
SplineSet
378 300 m 1,0,-1
 298 433 l 1,1,-1
 226 302 l 1,2,-1
 112 370 l 1,3,-1
 209 497 l 1,4,-1
 65 518 l 1,5,-1
 94 645 l 1,6,-1
 245 601 l 1,7,-1
 227 762 l 1,8,-1
 371 762 l 1,9,-1
 354 601 l 1,10,-1
 508 647 l 1,11,-1
 535 520 l 1,12,-1
 390 497 l 1,13,-1
 488 374 l 1,14,-1
 378 300 l 1,0,-1
EndSplineSet
EndChar

StartChar: plus
Encoding: 43 43 14
Width: 600
Flags: W
LayerCount: 2
Fore
SplineSet
233 111 m 1,0,-1
 233 287 l 1,1,-1
 70 287 l 1,2,-1
 70 418 l 1,3,-1
 233 418 l 1,4,-1
 233 597 l 1,5,-1
 366 597 l 1,6,-1
 366 418 l 1,7,-1
 530 418 l 1,8,-1
 530 287 l 1,9,-1
 366 287 l 1,10,-1
 366 111 l 1,11,-1
 233 111 l 1,0,-1
EndSplineSet
Substitution2: "'sups' Superscript lookup 21 subtable" uni207A
Substitution2: "'subs' Subscript lookup 20 subtable" uni208A
AlternateSubs2: "'aalt' Access All Alternates lookup 1 subtable" uni208A uni207A
EndChar

StartChar: comma
Encoding: 44 44 15
Width: 600
Flags: W
LayerCount: 2
Fore
SplineSet
184 -160 m 1,0,1
 194 -114 194 -114 203.5 -56.5 c 128,-1,2
 213 1 213 1 220.5 56.5 c 128,-1,3
 228 112 228 112 233 153 c 1,4,-1
 402 153 l 1,5,-1
 409 141 l 1,6,7
 402 114 402 114 392.5 74.5 c 128,-1,8
 383 35 383 35 371 -8.5 c 128,-1,9
 359 -52 359 -52 346.5 -92 c 128,-1,10
 334 -132 334 -132 322 -160 c 1,11,-1
 184 -160 l 1,0,1
EndSplineSet
EndChar

StartChar: hyphen
Encoding: 45 45 16
Width: 600
Flags: W
LayerCount: 2
Fore
SplineSet
150 195 m 1,0,-1
 150 345 l 1,1,-1
 450 345 l 1,2,-1
 450 195 l 1,3,-1
 150 195 l 1,0,-1
EndSplineSet
EndChar

StartChar: period
Encoding: 46 46 17
Width: 600
Flags: W
LayerCount: 2
Fore
SplineSet
302 -7 m 0,0,1
 261 -7 261 -7 231 14 c 128,-1,2
 201 35 201 35 201 84 c 0,3,4
 201 134 201 134 231 155 c 128,-1,5
 261 176 261 176 302 176 c 0,6,7
 342 176 342 176 371 155 c 128,-1,8
 400 134 400 134 400 84 c 0,9,10
 400 35 400 35 371 14 c 128,-1,11
 342 -7 342 -7 302 -7 c 0,0,1
EndSplineSet
EndChar

StartChar: slash
Encoding: 47 47 18
Width: 600
Flags: W
LayerCount: 2
Fore
SplineSet
80 -10 m 1,0,-1
 365 724 l 1,1,-1
 520 724 l 1,2,-1
 235 -10 l 1,3,-1
 80 -10 l 1,0,-1
EndSplineSet
Substitution2: "'frac' Diagonal Fractions lookup 24 subtable" fraction
Substitution2: "'aalt' Access All Alternates lookup 0 subtable" fraction
EndChar

StartChar: zero
Encoding: 48 48 19
Width: 600
Flags: W
LayerCount: 2
Fore
SplineSet
299 -10 m 0,0,1
 168 -10 168 -10 104 85 c 128,-1,2
 40 180 40 180 40 356 c 0,3,4
 40 538 40 538 100.5 631 c 128,-1,5
 161 724 161 724 299 724 c 0,6,7
 431 724 431 724 495.5 629 c 128,-1,8
 560 534 560 534 560 356 c 0,9,10
 560 248 560 248 536.5 165.5 c 128,-1,11
 513 83 513 83 456 36.5 c 128,-1,12
 399 -10 399 -10 299 -10 c 0,0,1
193 356 m 0,13,14
 193 321 193 321 195 294 c 1,15,-1
 356 559 l 1,16,17
 334 577 334 577 299 577 c 0,18,19
 238 577 238 577 215.5 521.5 c 128,-1,20
 193 466 193 466 193 356 c 0,13,14
299 138 m 0,21,22
 360 138 360 138 382.5 191 c 128,-1,23
 405 244 405 244 405 356 c 0,24,25
 405 394 405 394 403 424 c 1,26,-1
 239 158 l 1,27,28
 262 138 262 138 299 138 c 0,21,22
EndSplineSet
Substitution2: "'zero' Slashed Zero lookup 36 subtable" zero.slash
Substitution2: "'onum' Oldstyle Figures lookup 31 subtable" zero.osf
Substitution2: "'frac' Diagonal Fractions lookup 25 subtable" zero.numr
Substitution2: "'dnom' Denominators lookup 23 subtable" zero.dnom
Substitution2: "'numr' Numerators lookup 22 subtable" zero.numr
Substitution2: "'sups' Superscript lookup 21 subtable" uni2070
Substitution2: "'subs' Subscript lookup 20 subtable" uni2080
AlternateSubs2: "'aalt' Access All Alternates lookup 1 subtable" uni2070 zero.osf zero.dnom zero.numr uni2080
EndChar

StartChar: one
Encoding: 49 49 20
Width: 600
Flags: W
LayerCount: 2
Fore
SplineSet
94 0 m 1,0,-1
 94 130 l 1,1,-1
 229 142 l 1,2,-1
 229 365 l 2,3,4
 229 381 229 381 229 412.5 c 128,-1,5
 229 444 229 444 229.5 477.5 c 128,-1,6
 230 511 230 511 231 533 c 1,7,8
 213 521 213 521 198.5 511.5 c 128,-1,9
 184 502 184 502 171 495 c 2,10,-1
 110 462 l 1,11,-1
 40 595 l 1,12,-1
 248 714 l 1,13,-1
 405 714 l 1,14,-1
 405 142 l 1,15,-1
 540 130 l 1,16,-1
 540 0 l 1,17,-1
 94 0 l 1,0,-1
EndSplineSet
Substitution2: "'onum' Oldstyle Figures lookup 31 subtable" one.osf
Substitution2: "'frac' Diagonal Fractions lookup 25 subtable" one.numr
Substitution2: "'dnom' Denominators lookup 23 subtable" one.dnom
Substitution2: "'numr' Numerators lookup 22 subtable" one.numr
Substitution2: "'sups' Superscript lookup 21 subtable" uni00B9
Substitution2: "'subs' Subscript lookup 20 subtable" uni2081
AlternateSubs2: "'aalt' Access All Alternates lookup 1 subtable" uni00B9 one.osf one.dnom one.numr uni2081
EndChar

StartChar: two
Encoding: 50 50 21
Width: 600
Flags: W
LayerCount: 2
Fore
SplineSet
47 0 m 1,0,-1
 47 123 l 1,1,-1
 196 265 l 2,2,3
 261 327 261 327 301 366.5 c 128,-1,4
 341 406 341 406 359.5 436 c 128,-1,5
 378 466 378 466 378 499 c 0,6,7
 378 540 378 540 354 558 c 128,-1,8
 330 576 330 576 290 576 c 0,9,10
 246 576 246 576 210.5 555 c 128,-1,11
 175 534 175 534 133 492 c 1,12,-1
 40 609 l 1,13,14
 101 669 101 669 163.5 696.5 c 128,-1,15
 226 724 226 724 302 724 c 0,16,17
 375 724 375 724 434.5 700 c 128,-1,18
 494 676 494 676 529 628.5 c 128,-1,19
 564 581 564 581 564 509 c 0,20,21
 564 466 564 466 548.5 427 c 128,-1,22
 533 388 533 388 495.5 344 c 128,-1,23
 458 300 458 300 392 243 c 2,24,-1
 291 155 l 1,25,-1
 291 150 l 1,26,-1
 565 150 l 1,27,-1
 565 0 l 1,28,-1
 47 0 l 1,0,-1
EndSplineSet
Substitution2: "'onum' Oldstyle Figures lookup 31 subtable" two.osf
Substitution2: "'frac' Diagonal Fractions lookup 25 subtable" two.numr
Substitution2: "'dnom' Denominators lookup 23 subtable" two.dnom
Substitution2: "'numr' Numerators lookup 22 subtable" two.numr
Substitution2: "'sups' Superscript lookup 21 subtable" uni00B2
Substitution2: "'subs' Subscript lookup 20 subtable" uni2082
AlternateSubs2: "'aalt' Access All Alternates lookup 1 subtable" uni00B2 two.osf two.dnom two.numr uni2082
EndChar

StartChar: three
Encoding: 51 51 22
Width: 600
Flags: W
LayerCount: 2
Fore
SplineSet
256 -9 m 0,0,1
 211 -9 211 -9 161.5 -0.5 c 128,-1,2
 112 8 112 8 62 28 c 1,3,-1
 62 177 l 1,4,5
 108 154 108 154 160 142 c 128,-1,6
 212 130 212 130 252 130 c 0,7,8
 308 130 308 130 336 152.5 c 128,-1,9
 364 175 364 175 364 214 c 0,10,11
 364 240 364 240 349 256.5 c 128,-1,12
 334 273 334 273 297 281 c 128,-1,13
 260 289 260 289 193 289 c 2,14,-1
 153 289 l 1,15,-1
 153 431 l 1,16,-1
 194 431 l 2,17,18
 286 431 286 431 321 450.5 c 128,-1,19
 356 470 356 470 356 511 c 0,20,21
 356 549 356 549 334 564 c 128,-1,22
 312 579 312 579 278 579 c 0,23,24
 242 579 242 579 202.5 566 c 128,-1,25
 163 553 163 553 131 534 c 1,26,-1
 60 655 l 1,27,28
 107 687 107 687 166 705.5 c 128,-1,29
 225 724 225 724 294 724 c 0,30,31
 400 724 400 724 459 679 c 128,-1,32
 518 634 518 634 518 549 c 0,33,34
 518 500 518 500 500 465 c 128,-1,35
 482 430 482 430 454 407 c 128,-1,36
 426 384 426 384 395 370 c 1,37,-1
 395 367 l 1,38,39
 434 360 434 360 467 341 c 128,-1,40
 500 322 500 322 520 290 c 128,-1,41
 540 258 540 258 540 208 c 0,42,43
 540 144 540 144 504 95 c 128,-1,44
 468 46 468 46 404 18.5 c 128,-1,45
 340 -9 340 -9 256 -9 c 0,0,1
EndSplineSet
Substitution2: "'onum' Oldstyle Figures lookup 31 subtable" three.osf
Substitution2: "'frac' Diagonal Fractions lookup 25 subtable" three.numr
Substitution2: "'dnom' Denominators lookup 23 subtable" three.dnom
Substitution2: "'numr' Numerators lookup 22 subtable" three.numr
Substitution2: "'sups' Superscript lookup 21 subtable" uni00B3
Substitution2: "'subs' Subscript lookup 20 subtable" uni2083
AlternateSubs2: "'aalt' Access All Alternates lookup 1 subtable" uni00B3 three.osf three.dnom three.numr uni2083
EndChar

StartChar: four
Encoding: 52 52 23
Width: 600
Flags: W
LayerCount: 2
Fore
SplineSet
315 0 m 1,0,-1
 315 142 l 1,1,-1
 30 142 l 1,2,-1
 30 276 l 1,3,-1
 317 714 l 1,4,-1
 481 714 l 1,5,-1
 481 279 l 1,6,-1
 570 279 l 1,7,-1
 570 142 l 1,8,-1
 481 142 l 1,9,-1
 481 0 l 1,10,-1
 315 0 l 1,0,-1
180 279 m 1,11,-1
 315 279 l 1,12,-1
 315 376 l 2,13,14
 315 392 315 392 315 423 c 128,-1,15
 315 454 315 454 316 488 c 1,16,-1
 311 488 l 1,17,18
 299 466 299 466 286 446 c 128,-1,19
 273 426 273 426 263 410 c 2,20,-1
 180 279 l 1,11,-1
EndSplineSet
Substitution2: "'onum' Oldstyle Figures lookup 31 subtable" four.osf
Substitution2: "'frac' Diagonal Fractions lookup 25 subtable" four.numr
Substitution2: "'dnom' Denominators lookup 23 subtable" four.dnom
Substitution2: "'numr' Numerators lookup 22 subtable" four.numr
Substitution2: "'sups' Superscript lookup 21 subtable" uni2074
Substitution2: "'subs' Subscript lookup 20 subtable" uni2084
AlternateSubs2: "'aalt' Access All Alternates lookup 1 subtable" uni2074 four.osf four.dnom four.numr uni2084
EndChar

StartChar: five
Encoding: 53 53 24
Width: 600
Flags: W
LayerCount: 2
Fore
SplineSet
251 -10 m 0,0,1
 198 -10 198 -10 148 -0.5 c 128,-1,2
 98 9 98 9 55 28 c 1,3,-1
 55 183 l 1,4,5
 95 166 95 166 143 152 c 128,-1,6
 191 138 191 138 247 138 c 0,7,8
 299 138 299 138 329.5 162 c 128,-1,9
 360 186 360 186 360 232 c 0,10,11
 360 275 360 275 329 299 c 128,-1,12
 298 323 298 323 240 323 c 0,13,14
 214 323 214 323 183.5 318.5 c 128,-1,15
 153 314 153 314 128 306 c 1,16,-1
 66 341 l 1,17,-1
 90 714 l 1,18,-1
 501 714 l 1,19,-1
 501 564 l 1,20,-1
 262 564 l 1,21,-1
 254 459 l 1,22,23
 304 468 304 468 338 468 c 0,24,25
 438 468 438 468 491 407 c 128,-1,26
 544 346 544 346 544 245 c 0,27,28
 544 118 544 118 464.5 54 c 128,-1,29
 385 -10 385 -10 251 -10 c 0,0,1
EndSplineSet
Substitution2: "'onum' Oldstyle Figures lookup 31 subtable" five.osf
Substitution2: "'frac' Diagonal Fractions lookup 25 subtable" five.numr
Substitution2: "'dnom' Denominators lookup 23 subtable" five.dnom
Substitution2: "'numr' Numerators lookup 22 subtable" five.numr
Substitution2: "'sups' Superscript lookup 21 subtable" uni2075
Substitution2: "'subs' Subscript lookup 20 subtable" uni2085
AlternateSubs2: "'aalt' Access All Alternates lookup 1 subtable" uni2075 five.osf five.dnom five.numr uni2085
EndChar

StartChar: six
Encoding: 54 54 25
Width: 600
Flags: W
LayerCount: 2
Fore
SplineSet
309 -10 m 0,0,1
 231 -10 231 -10 171.5 25.5 c 128,-1,2
 112 61 112 61 78.5 130.5 c 128,-1,3
 45 200 45 200 45 302 c 0,4,5
 45 381 45 381 60 456 c 128,-1,6
 75 531 75 531 112.5 591.5 c 128,-1,7
 150 652 150 652 217.5 688 c 128,-1,8
 285 724 285 724 390 724 c 0,9,10
 416 724 416 724 448.5 722 c 128,-1,11
 481 720 481 720 509 716 c 1,12,-1
 509 570 l 1,13,14
 458 579 458 579 410 579 c 0,15,16
 318 579 318 579 268 532.5 c 128,-1,17
 218 486 218 486 213 393 c 1,18,-1
 218 393 l 1,19,20
 236 431 236 431 273.5 453.5 c 128,-1,21
 311 476 311 476 362 476 c 0,22,23
 450 476 450 476 502 415 c 128,-1,24
 554 354 554 354 554 244 c 0,25,26
 554 166 554 166 523 109 c 128,-1,27
 492 52 492 52 437 21 c 128,-1,28
 382 -10 382 -10 309 -10 c 0,0,1
305 139 m 0,29,30
 335 139 335 139 355 162 c 128,-1,31
 375 185 375 185 375 235 c 0,32,33
 375 282 375 282 359.5 307 c 128,-1,34
 344 332 344 332 307 332 c 0,35,36
 266 332 266 332 246.5 302.5 c 128,-1,37
 227 273 227 273 227 233 c 0,38,39
 227 189 227 189 248 164 c 128,-1,40
 269 139 269 139 305 139 c 0,29,30
EndSplineSet
Substitution2: "'onum' Oldstyle Figures lookup 31 subtable" six.osf
Substitution2: "'frac' Diagonal Fractions lookup 25 subtable" six.numr
Substitution2: "'dnom' Denominators lookup 23 subtable" six.dnom
Substitution2: "'numr' Numerators lookup 22 subtable" six.numr
Substitution2: "'sups' Superscript lookup 21 subtable" uni2076
Substitution2: "'subs' Subscript lookup 20 subtable" uni2086
AlternateSubs2: "'aalt' Access All Alternates lookup 1 subtable" uni2076 six.osf six.dnom six.numr uni2086
EndChar

StartChar: seven
Encoding: 55 55 26
Width: 600
Flags: W
LayerCount: 2
Fore
SplineSet
119 0 m 1,0,-1
 373 564 l 1,1,-1
 40 564 l 1,2,-1
 40 714 l 1,3,-1
 560 714 l 1,4,-1
 560 599 l 1,5,-1
 307 0 l 1,6,-1
 119 0 l 1,0,-1
EndSplineSet
Substitution2: "'onum' Oldstyle Figures lookup 31 subtable" seven.osf
Substitution2: "'frac' Diagonal Fractions lookup 25 subtable" seven.numr
Substitution2: "'dnom' Denominators lookup 23 subtable" seven.dnom
Substitution2: "'numr' Numerators lookup 22 subtable" seven.numr
Substitution2: "'sups' Superscript lookup 21 subtable" uni2077
Substitution2: "'subs' Subscript lookup 20 subtable" uni2087
AlternateSubs2: "'aalt' Access All Alternates lookup 1 subtable" uni2077 seven.osf seven.dnom seven.numr uni2087
EndChar

StartChar: eight
Encoding: 56 56 27
Width: 600
Flags: W
LayerCount: 2
Fore
SplineSet
294 -10 m 0,0,1
 171 -10 171 -10 110 43 c 128,-1,2
 49 96 49 96 49 188 c 0,3,4
 49 254 49 254 82 297.5 c 128,-1,5
 115 341 115 341 173 373 c 1,6,7
 126 408 126 408 99 451 c 128,-1,8
 72 494 72 494 72 551 c 0,9,10
 72 636 72 636 132.5 680 c 128,-1,11
 193 724 193 724 300 724 c 0,12,13
 408 724 408 724 471.5 680 c 128,-1,14
 535 636 535 636 535 550 c 0,15,16
 535 489 535 489 501 446.5 c 128,-1,17
 467 404 467 404 405 375 c 1,18,19
 471 338 471 338 510 294 c 128,-1,20
 549 250 549 250 549 183 c 0,21,22
 549 98 549 98 485 44 c 128,-1,23
 421 -10 421 -10 294 -10 c 0,0,1
299 458 m 1,24,25
 329 475 329 475 347.5 492.5 c 128,-1,26
 366 510 366 510 366 536 c 0,27,28
 366 564 366 564 346 576.5 c 128,-1,29
 326 589 326 589 303 589 c 0,30,31
 274 589 274 589 256.5 574.5 c 128,-1,32
 239 560 239 560 239 536 c 0,33,34
 239 510 239 510 255.5 492.5 c 128,-1,35
 272 475 272 475 299 458 c 1,24,25
299 126 m 0,36,37
 335 126 335 126 359 142.5 c 128,-1,38
 383 159 383 159 383 190 c 0,39,40
 383 224 383 224 355 245.5 c 128,-1,41
 327 267 327 267 292 291 c 1,42,43
 260 271 260 271 238 247.5 c 128,-1,44
 216 224 216 224 216 194 c 0,45,46
 216 126 216 126 299 126 c 0,36,37
EndSplineSet
Substitution2: "'onum' Oldstyle Figures lookup 31 subtable" eight.osf
Substitution2: "'frac' Diagonal Fractions lookup 25 subtable" eight.numr
Substitution2: "'dnom' Denominators lookup 23 subtable" eight.dnom
Substitution2: "'numr' Numerators lookup 22 subtable" eight.numr
Substitution2: "'sups' Superscript lookup 21 subtable" uni2078
Substitution2: "'subs' Subscript lookup 20 subtable" uni2088
AlternateSubs2: "'aalt' Access All Alternates lookup 1 subtable" uni2078 eight.osf eight.dnom eight.numr uni2088
EndChar

StartChar: nine
Encoding: 57 57 28
Width: 600
Flags: W
LayerCount: 2
Fore
SplineSet
208 -10 m 0,0,1
 182 -10 182 -10 149.5 -8 c 128,-1,2
 117 -6 117 -6 89 -2 c 1,3,-1
 89 144 l 1,4,5
 140 135 140 135 188 135 c 0,6,7
 280 135 280 135 331 181.5 c 128,-1,8
 382 228 382 228 387 321 c 1,9,-1
 382 321 l 1,10,11
 364 283 364 283 325.5 260.5 c 128,-1,12
 287 238 287 238 238 238 c 0,13,14
 152 238 152 238 98.5 299 c 128,-1,15
 45 360 45 360 45 470 c 0,16,17
 45 548 45 548 75.5 605 c 128,-1,18
 106 662 106 662 161 693 c 128,-1,19
 216 724 216 724 291 724 c 0,20,21
 369 724 369 724 428.5 688.5 c 128,-1,22
 488 653 488 653 521.5 583.5 c 128,-1,23
 555 514 555 514 555 412 c 0,24,25
 555 333 555 333 540 258 c 128,-1,26
 525 183 525 183 487.5 122.5 c 128,-1,27
 450 62 450 62 382 26 c 128,-1,28
 314 -10 314 -10 208 -10 c 0,0,1
293 382 m 0,29,30
 333 382 333 382 352.5 411.5 c 128,-1,31
 372 441 372 441 372 481 c 0,32,33
 372 522 372 522 351.5 548.5 c 128,-1,34
 331 575 331 575 295 575 c 0,35,36
 264 575 264 575 243.5 552 c 128,-1,37
 223 529 223 529 223 479 c 0,38,39
 223 432 223 432 240.5 407 c 128,-1,40
 258 382 258 382 293 382 c 0,29,30
EndSplineSet
Substitution2: "'onum' Oldstyle Figures lookup 31 subtable" nine.osf
Substitution2: "'frac' Diagonal Fractions lookup 25 subtable" nine.numr
Substitution2: "'dnom' Denominators lookup 23 subtable" nine.dnom
Substitution2: "'numr' Numerators lookup 22 subtable" nine.numr
Substitution2: "'sups' Superscript lookup 21 subtable" uni2079
Substitution2: "'subs' Subscript lookup 20 subtable" uni2089
AlternateSubs2: "'aalt' Access All Alternates lookup 1 subtable" uni2079 nine.osf nine.dnom nine.numr uni2089
EndChar

StartChar: colon
Encoding: 58 58 29
Width: 600
Flags: W
LayerCount: 2
Fore
SplineSet
302 376 m 0,0,1
 261 376 261 376 231 397 c 128,-1,2
 201 418 201 418 201 467 c 0,3,4
 201 517 201 517 231 538 c 128,-1,5
 261 559 261 559 302 559 c 0,6,7
 342 559 342 559 371 538 c 128,-1,8
 400 517 400 517 400 467 c 0,9,10
 400 418 400 418 371 397 c 128,-1,11
 342 376 342 376 302 376 c 0,0,1
302 -7 m 0,12,13
 261 -7 261 -7 231 14 c 128,-1,14
 201 35 201 35 201 84 c 0,15,16
 201 134 201 134 231 155 c 128,-1,17
 261 176 261 176 302 176 c 0,18,19
 342 176 342 176 371 155 c 128,-1,20
 400 134 400 134 400 84 c 0,21,22
 400 35 400 35 371 14 c 128,-1,23
 342 -7 342 -7 302 -7 c 0,12,13
EndSplineSet
EndChar

StartChar: semicolon
Encoding: 59 59 30
Width: 600
Flags: W
LayerCount: 2
Fore
SplineSet
319 375 m 0,0,1
 276 375 276 375 245.5 396.5 c 128,-1,2
 215 418 215 418 215 468 c 0,3,4
 215 520 215 520 245.5 541 c 128,-1,5
 276 562 276 562 319 562 c 0,6,7
 360 562 360 562 389.5 541 c 128,-1,8
 419 520 419 520 419 468 c 0,9,10
 419 418 419 418 389.5 396.5 c 128,-1,11
 360 375 360 375 319 375 c 0,0,1
176 -161 m 1,12,13
 186 -115 186 -115 195.5 -57.5 c 128,-1,14
 205 0 205 0 212.5 55.5 c 128,-1,15
 220 111 220 111 225 152 c 1,16,-1
 394 152 l 1,17,-1
 401 140 l 1,18,19
 394 113 394 113 384.5 73.5 c 128,-1,20
 375 34 375 34 363 -9.5 c 128,-1,21
 351 -53 351 -53 338.5 -93 c 128,-1,22
 326 -133 326 -133 314 -161 c 1,23,-1
 176 -161 l 1,12,13
EndSplineSet
EndChar

StartChar: equal
Encoding: 61 61 32
Width: 600
Flags: W
LayerCount: 2
Fore
SplineSet
70 389 m 1,0,-1
 70 529 l 1,1,-1
 530 529 l 1,2,-1
 530 389 l 1,3,-1
 70 389 l 1,0,-1
70 156 m 1,4,-1
 70 296 l 1,5,-1
 530 296 l 1,6,-1
 530 156 l 1,7,-1
 70 156 l 1,4,-1
EndSplineSet
Substitution2: "'sups' Superscript lookup 21 subtable" uni207C
Substitution2: "'subs' Subscript lookup 20 subtable" uni208C
AlternateSubs2: "'aalt' Access All Alternates lookup 1 subtable" uni208C uni207C
EndChar

StartChar: greater
Encoding: 62 62 33
Width: 600
Flags: W
LayerCount: 2
Fore
SplineSet
80 100 m 1,0,-1
 80 244 l 1,1,-1
 342 358 l 1,2,-1
 80 478 l 1,3,-1
 80 623 l 1,4,-1
 520 397 l 1,5,-1
 520 313 l 1,6,-1
 80 100 l 1,0,-1
EndSplineSet
EndChar

StartChar: question
Encoding: 63 63 34
Width: 600
Flags: W
LayerCount: 2
Fore
SplineSet
199 252 m 1,0,-1
 199 294 l 2,1,2
 199 339 199 339 217.5 372.5 c 128,-1,3
 236 406 236 406 288 439 c 0,4,5
 332 466 332 466 341 488 c 128,-1,6
 350 510 350 510 350 530 c 0,7,8
 350 552 350 552 334.5 565 c 128,-1,9
 319 578 319 578 295 578 c 0,10,11
 261 578 261 578 224 564 c 128,-1,12
 187 550 187 550 138 522 c 1,13,-1
 70 655 l 1,14,15
 125 686 125 686 182.5 705 c 128,-1,16
 240 724 240 724 309 724 c 0,17,18
 414 724 414 724 472 675 c 128,-1,19
 530 626 530 626 530 546 c 0,20,21
 530 488 530 488 506.5 443.5 c 128,-1,22
 483 399 483 399 426 362 c 0,23,24
 388 337 388 337 374.5 318.5 c 128,-1,25
 361 300 361 300 361 277 c 2,26,-1
 361 252 l 1,27,-1
 199 252 l 1,0,-1
281 -12 m 0,28,29
 238 -12 238 -12 207.5 10 c 128,-1,30
 177 32 177 32 177 81 c 0,31,32
 177 133 177 133 207.5 154 c 128,-1,33
 238 175 238 175 281 175 c 0,34,35
 322 175 322 175 351.5 154 c 128,-1,36
 381 133 381 133 381 81 c 0,37,38
 381 32 381 32 351.5 10 c 128,-1,39
 322 -12 322 -12 281 -12 c 0,28,29
EndSplineSet
Substitution2: "'smcp' Lowercase to Small Capitals lookup 33 subtable" question.sc
Substitution2: "'c2sc' Capitals to Small Capitals lookup 32 subtable" question.sc
Substitution2: "'aalt' Access All Alternates lookup 0 subtable" question.sc
EndChar

StartChar: at
Encoding: 64 64 35
Width: 600
Flags: W
LayerCount: 2
Fore
SplineSet
319 -88 m 0,0,1
 218 -88 218 -88 147 -42 c 128,-1,2
 76 4 76 4 38 88 c 128,-1,3
 0 172 0 172 0 287 c 0,4,5
 0 414 0 414 39.5 510.5 c 128,-1,6
 79 607 79 607 150.5 660.5 c 128,-1,7
 222 714 222 714 317 714 c 0,8,9
 402 714 402 714 465.5 670.5 c 128,-1,10
 529 627 529 627 564.5 549.5 c 128,-1,11
 600 472 600 472 600 369 c 0,12,13
 600 302 600 302 584.5 242.5 c 128,-1,14
 569 183 569 183 537.5 145.5 c 128,-1,15
 506 108 506 108 458 108 c 0,16,17
 432 108 432 108 410 121 c 128,-1,18
 388 134 388 134 376 166 c 1,19,-1
 371 166 l 1,20,21
 352 138 352 138 329 123 c 128,-1,22
 306 108 306 108 275 108 c 0,23,24
 214 108 214 108 181 160.5 c 128,-1,25
 148 213 148 213 148 297 c 0,26,27
 148 362 148 362 168.5 412 c 128,-1,28
 189 462 189 462 228.5 491 c 128,-1,29
 268 520 268 520 325 520 c 0,30,31
 362 520 362 520 396 510.5 c 128,-1,32
 430 501 430 501 456 490 c 1,33,-1
 449 299 l 2,34,35
 449 290 449 290 448.5 277 c 128,-1,36
 448 264 448 264 448 258 c 0,37,38
 448 229 448 229 452.5 216.5 c 128,-1,39
 457 204 457 204 464 204 c 0,40,41
 475 204 475 204 483.5 225.5 c 128,-1,42
 492 247 492 247 497 282.5 c 128,-1,43
 502 318 502 318 502 361 c 0,44,45
 502 477 502 477 456 546 c 128,-1,46
 410 615 410 615 320 615 c 0,47,48
 252 615 252 615 202.5 574 c 128,-1,49
 153 533 153 533 125.5 460.5 c 128,-1,50
 98 388 98 388 98 293 c 0,51,52
 98 164 98 164 153 86.5 c 128,-1,53
 208 9 208 9 322 9 c 0,54,55
 366 9 366 9 408 18.5 c 128,-1,56
 450 28 450 28 494 46 c 1,57,-1
 494 -49 l 1,58,59
 416 -88 416 -88 319 -88 c 0,0,1
292 204 m 0,60,61
 320 204 320 204 332.5 238 c 128,-1,62
 345 272 345 272 348 349 c 2,63,-1
 351 420 l 1,64,65
 338 423 338 423 328 423 c 0,66,67
 288 423 288 423 270 386.5 c 128,-1,68
 252 350 252 350 252 297 c 0,69,70
 252 204 252 204 292 204 c 0,60,61
EndSplineSet
EndChar

StartChar: A
Encoding: 65 65 36
Width: 600
GlyphClass: 2
Flags: W
AnchorPoint: "Anchor-4" 580 714 basechar 0
AnchorPoint: "Anchor-3" 300 714 basechar 0
AnchorPoint: "Anchor-2" 540 10 basechar 0
AnchorPoint: "Anchor-0" 300 0 basechar 0
LayerCount: 2
Fore
SplineSet
5 0 m 1,0,-1
 185 717 l 1,1,-1
 414 717 l 1,2,-1
 595 0 l 1,3,-1
 421 0 l 1,4,-1
 391 147 l 1,5,-1
 207 147 l 1,6,-1
 175 0 l 1,7,-1
 5 0 l 1,0,-1
268 423 m 2,8,-1
 238 288 l 1,9,-1
 362 288 l 1,10,-1
 335 423 l 2,11,12
 330 448 330 448 323.5 480 c 128,-1,13
 317 512 317 512 311.5 543 c 128,-1,14
 306 574 306 574 302 597 c 1,15,16
 298 574 298 574 292.5 543 c 128,-1,17
 287 512 287 512 280.5 480 c 128,-1,18
 274 448 274 448 268 423 c 2,8,-1
EndSplineSet
Substitution2: "'c2sc' Capitals to Small Capitals lookup 32 subtable" a.sc
Substitution2: "Single Substitution lookup 30 subtable" ordfeminine
AlternateSubs2: "'aalt' Access All Alternates lookup 1 subtable" ordfeminine a.sc
EndChar

StartChar: B
Encoding: 66 66 37
Width: 600
GlyphClass: 2
Flags: W
AnchorPoint: "Anchor-4" 580 714 basechar 0
AnchorPoint: "Anchor-3" 300 714 basechar 0
AnchorPoint: "Anchor-0" 300 0 basechar 0
LayerCount: 2
Fore
SplineSet
60 0 m 1,0,-1
 60 714 l 1,1,-1
 300 714 l 2,2,3
 434 714 434 714 495.5 670 c 128,-1,4
 557 626 557 626 557 539 c 0,5,6
 557 468 557 468 524.5 429 c 128,-1,7
 492 390 492 390 454 379 c 1,8,-1
 454 374 l 1,9,10
 502 360 502 360 536 322.5 c 128,-1,11
 570 285 570 285 570 211 c 0,12,13
 570 112 570 112 504 56 c 128,-1,14
 438 0 438 0 325 0 c 2,15,-1
 60 0 l 1,0,-1
218 434 m 1,16,-1
 301 434 l 2,17,18
 349 434 349 434 371.5 456.5 c 128,-1,19
 394 479 394 479 394 510 c 256,20,21
 394 541 394 541 371 558.5 c 128,-1,22
 348 576 348 576 298 576 c 2,23,-1
 218 576 l 1,24,-1
 218 434 l 1,16,-1
218 138 m 1,25,-1
 310 138 l 2,26,27
 360 138 360 138 382.5 164 c 128,-1,28
 405 190 405 190 405 224 c 256,29,30
 405 258 405 258 382.5 281.5 c 128,-1,31
 360 305 360 305 307 305 c 2,32,-1
 218 305 l 1,33,-1
 218 138 l 1,25,-1
EndSplineSet
Substitution2: "'c2sc' Capitals to Small Capitals lookup 32 subtable" b.sc
Substitution2: "'aalt' Access All Alternates lookup 0 subtable" b.sc
EndChar

StartChar: C
Encoding: 67 67 38
Width: 600
GlyphClass: 2
Flags: W
AnchorPoint: "Anchor-4" 580 714 basechar 0
AnchorPoint: "Anchor-3" 357 714 basechar 0
AnchorPoint: "Anchor-0" 340 0 basechar 0
LayerCount: 2
Fore
SplineSet
333 -10 m 0,0,1
 236 -10 236 -10 171 34 c 128,-1,2
 106 78 106 78 73 158.5 c 128,-1,3
 40 239 40 239 40 348 c 0,4,5
 40 467 40 467 81 551 c 128,-1,6
 122 635 122 635 197.5 679.5 c 128,-1,7
 273 724 273 724 378 724 c 0,8,9
 424 724 424 724 470 714.5 c 128,-1,10
 516 705 516 705 565 685 c 1,11,-1
 518 537 l 1,12,13
 483 554 483 554 447 561.5 c 128,-1,14
 411 569 411 569 381 569 c 0,15,16
 319 569 319 569 283 542 c 128,-1,17
 247 515 247 515 232 465.5 c 128,-1,18
 217 416 217 416 217 347 c 0,19,20
 217 238 217 238 252.5 191 c 128,-1,21
 288 144 288 144 363 144 c 0,22,23
 403 144 403 144 451 156 c 128,-1,24
 499 168 499 168 538 192 c 1,25,-1
 538 31 l 1,26,27
 491 10 491 10 438 0 c 128,-1,28
 385 -10 385 -10 333 -10 c 0,0,1
EndSplineSet
Substitution2: "'c2sc' Capitals to Small Capitals lookup 32 subtable" c.sc
Substitution2: "'aalt' Access All Alternates lookup 0 subtable" c.sc
EndChar

StartChar: D
Encoding: 68 68 39
Width: 600
GlyphClass: 2
Flags: W
AnchorPoint: "Anchor-4" 600 714 basechar 0
AnchorPoint: "Anchor-3" 285 714 basechar 0
AnchorPoint: "Anchor-1" 310 357 basechar 0
AnchorPoint: "Anchor-0" 242 0 basechar 0
LayerCount: 2
Fore
SplineSet
40 0 m 1,0,-1
 40 714 l 1,1,-1
 256 714 l 2,2,3
 410 714 410 714 495 626 c 128,-1,4
 580 538 580 538 580 372 c 0,5,6
 580 250 580 250 538.5 167.5 c 128,-1,7
 497 85 497 85 421.5 42.5 c 128,-1,8
 346 0 346 0 242 0 c 2,9,-1
 40 0 l 1,0,-1
206 145 m 1,10,-1
 244 145 l 2,11,12
 325 145 325 145 364 201 c 128,-1,13
 403 257 403 257 403 365 c 0,14,15
 403 569 403 569 255 569 c 2,16,-1
 206 569 l 1,17,-1
 206 145 l 1,10,-1
EndSplineSet
Substitution2: "'c2sc' Capitals to Small Capitals lookup 32 subtable" d.sc
Substitution2: "'aalt' Access All Alternates lookup 0 subtable" d.sc
EndChar

StartChar: E
Encoding: 69 69 40
Width: 600
GlyphClass: 2
Flags: W
AnchorPoint: "Anchor-4" 580 714 basechar 0
AnchorPoint: "Anchor-3" 302 714 basechar 0
AnchorPoint: "Anchor-2" 468 10 basechar 0
AnchorPoint: "Anchor-0" 304 0 basechar 0
LayerCount: 2
Fore
SplineSet
60 0 m 1,0,-1
 60 714 l 1,1,-1
 540 714 l 1,2,-1
 540 564 l 1,3,-1
 231 564 l 1,4,-1
 231 442 l 1,5,-1
 527 442 l 1,6,-1
 527 292 l 1,7,-1
 231 292 l 1,8,-1
 231 150 l 1,9,-1
 540 150 l 1,10,-1
 540 0 l 1,11,-1
 60 0 l 1,0,-1
EndSplineSet
Substitution2: "'c2sc' Capitals to Small Capitals lookup 32 subtable" e.sc
Substitution2: "'aalt' Access All Alternates lookup 0 subtable" e.sc
EndChar

StartChar: F
Encoding: 70 70 41
Width: 600
GlyphClass: 2
Flags: W
AnchorPoint: "Anchor-4" 580 714 basechar 0
AnchorPoint: "Anchor-3" 312 714 basechar 0
AnchorPoint: "Anchor-0" 312 0 basechar 0
LayerCount: 2
Fore
SplineSet
60 0 m 1,0,-1
 60 714 l 1,1,-1
 540 714 l 1,2,-1
 540 564 l 1,3,-1
 231 564 l 1,4,-1
 231 415 l 1,5,-1
 528 415 l 1,6,-1
 528 265 l 1,7,-1
 231 265 l 1,8,-1
 231 0 l 1,9,-1
 60 0 l 1,0,-1
EndSplineSet
Substitution2: "'c2sc' Capitals to Small Capitals lookup 32 subtable" f.sc
Substitution2: "'aalt' Access All Alternates lookup 0 subtable" f.sc
EndChar

StartChar: G
Encoding: 71 71 42
Width: 600
GlyphClass: 2
Flags: W
AnchorPoint: "Anchor-4" 580 714 basechar 0
AnchorPoint: "Anchor-3" 330 714 basechar 0
AnchorPoint: "Anchor-0" 342 0 basechar 0
LayerCount: 2
Fore
SplineSet
353 -10 m 0,0,1
 239 -10 239 -10 165 33.5 c 128,-1,2
 91 77 91 77 55.5 158 c 128,-1,3
 20 239 20 239 20 350 c 0,4,5
 20 526 20 526 104 625 c 128,-1,6
 188 724 188 724 351 724 c 0,7,8
 412 724 412 724 464.5 711 c 128,-1,9
 517 698 517 698 558 679 c 1,10,-1
 506 537 l 1,11,12
 473 554 473 554 438.5 563.5 c 128,-1,13
 404 573 404 573 368 573 c 0,14,15
 283 573 283 573 238 518 c 128,-1,16
 193 463 193 463 193 355 c 0,17,18
 193 260 193 260 230 201.5 c 128,-1,19
 267 143 267 143 345 143 c 0,20,21
 357 143 357 143 371.5 144.5 c 128,-1,22
 386 146 386 146 403 151 c 1,23,-1
 403 279 l 1,24,-1
 320 279 l 1,25,-1
 320 418 l 1,26,-1
 560 418 l 1,27,-1
 560 33 l 1,28,29
 503 10 503 10 453.5 0 c 128,-1,30
 404 -10 404 -10 353 -10 c 0,0,1
EndSplineSet
Substitution2: "'c2sc' Capitals to Small Capitals lookup 32 subtable" g.sc
Substitution2: "'aalt' Access All Alternates lookup 0 subtable" g.sc
EndChar

StartChar: H
Encoding: 72 72 43
Width: 600
GlyphClass: 2
Flags: W
AnchorPoint: "Anchor-4" 600 714 basechar 0
AnchorPoint: "Anchor-3" 300 714 basechar 0
AnchorPoint: "Anchor-1" 300 374 basechar 0
AnchorPoint: "Anchor-0" 300 0 basechar 0
LayerCount: 2
Fore
SplineSet
40 0 m 1,0,-1
 40 714 l 1,1,-1
 217 714 l 1,2,-1
 217 447 l 1,3,-1
 383 447 l 1,4,-1
 383 714 l 1,5,-1
 560 714 l 1,6,-1
 560 0 l 1,7,-1
 383 0 l 1,8,-1
 383 297 l 1,9,-1
 217 297 l 1,10,-1
 217 0 l 1,11,-1
 40 0 l 1,0,-1
EndSplineSet
Substitution2: "'c2sc' Capitals to Small Capitals lookup 32 subtable" h.sc
Substitution2: "'aalt' Access All Alternates lookup 0 subtable" h.sc
EndChar

StartChar: I
Encoding: 73 73 44
Width: 600
GlyphClass: 2
Flags: W
AnchorPoint: "Anchor-4" 580 714 basechar 0
AnchorPoint: "Anchor-3" 300 714 basechar 0
AnchorPoint: "Anchor-2" 401 10 basechar 0
AnchorPoint: "Anchor-0" 300 0 basechar 0
LayerCount: 2
Fore
SplineSet
70 0 m 1,0,-1
 70 125 l 1,1,-1
 215 141 l 1,2,-1
 215 573 l 1,3,-1
 70 589 l 1,4,-1
 70 714 l 1,5,-1
 530 714 l 1,6,-1
 530 589 l 1,7,-1
 384 573 l 1,8,-1
 384 141 l 1,9,-1
 530 125 l 1,10,-1
 530 0 l 1,11,-1
 70 0 l 1,0,-1
EndSplineSet
Substitution2: "'c2sc' Capitals to Small Capitals lookup 32 subtable" i.sc
Substitution2: "'aalt' Access All Alternates lookup 0 subtable" i.sc
EndChar

StartChar: J
Encoding: 74 74 45
Width: 600
GlyphClass: 2
Flags: W
AnchorPoint: "Anchor-4" 580 714 basechar 0
AnchorPoint: "Anchor-3" 429 714 basechar 0
AnchorPoint: "Anchor-0" 300 0 basechar 0
LayerCount: 2
Fore
SplineSet
247 -10 m 0,0,1
 210 -10 210 -10 162 -6 c 128,-1,2
 114 -2 114 -2 65 7 c 1,3,-1
 65 160 l 1,4,5
 117 149 117 149 155.5 145.5 c 128,-1,6
 194 142 194 142 214 142 c 0,7,8
 266 142 266 142 294 159 c 128,-1,9
 322 176 322 176 332.5 209.5 c 128,-1,10
 343 243 343 243 343 291 c 2,11,-1
 343 714 l 1,12,-1
 515 714 l 1,13,-1
 515 267 l 2,14,15
 515 170 515 170 489.5 109 c 128,-1,16
 464 48 464 48 405 19 c 128,-1,17
 346 -10 346 -10 247 -10 c 0,0,1
EndSplineSet
Substitution2: "'c2sc' Capitals to Small Capitals lookup 32 subtable" j.sc
Substitution2: "'aalt' Access All Alternates lookup 0 subtable" j.sc
EndChar

StartChar: K
Encoding: 75 75 46
Width: 600
GlyphClass: 2
Flags: W
AnchorPoint: "Anchor-4" 580 714 basechar 0
AnchorPoint: "Anchor-3" 300 714 basechar 0
AnchorPoint: "Anchor-0" 304 0 basechar 0
LayerCount: 2
Fore
SplineSet
40 0 m 1,0,-1
 40 714 l 1,1,-1
 210 714 l 1,2,-1
 210 388 l 1,3,4
 220 411 220 411 230.5 431.5 c 128,-1,5
 241 452 241 452 252 472 c 2,6,-1
 387 714 l 1,7,-1
 575 714 l 1,8,-1
 378 395 l 1,9,-1
 573 0 l 1,10,-1
 378 0 l 1,11,-1
 257 262 l 1,12,-1
 210 220 l 1,13,-1
 210 0 l 1,14,-1
 40 0 l 1,0,-1
EndSplineSet
Substitution2: "'c2sc' Capitals to Small Capitals lookup 32 subtable" k.sc
Substitution2: "'aalt' Access All Alternates lookup 0 subtable" k.sc
EndChar

StartChar: L
Encoding: 76 76 47
Width: 600
GlyphClass: 2
Flags: W
AnchorPoint: "Anchor-4" 467 714 basechar 0
AnchorPoint: "Anchor-3" 159 714 basechar 0
AnchorPoint: "Anchor-1" 300 357 basechar 0
AnchorPoint: "Anchor-0" 320 0 basechar 0
LayerCount: 2
Fore
SplineSet
75 0 m 1,0,-1
 75 714 l 1,1,-1
 250 714 l 1,2,-1
 250 155 l 1,3,-1
 540 155 l 1,4,-1
 540 0 l 1,5,-1
 75 0 l 1,0,-1
EndSplineSet
Substitution2: "'c2sc' Capitals to Small Capitals lookup 32 subtable" l.sc
Substitution2: "'aalt' Access All Alternates lookup 0 subtable" l.sc
EndChar

StartChar: M
Encoding: 77 77 48
Width: 600
GlyphClass: 2
Flags: W
AnchorPoint: "Anchor-4" 600 714 basechar 0
AnchorPoint: "Anchor-3" 300 714 basechar 0
AnchorPoint: "Anchor-0" 300 0 basechar 0
LayerCount: 2
Fore
SplineSet
30 0 m 1,0,-1
 30 714 l 1,1,-1
 255 714 l 1,2,-1
 296 308 l 1,3,-1
 299 308 l 1,4,-1
 343 714 l 1,5,-1
 570 714 l 1,6,-1
 570 0 l 1,7,-1
 421 0 l 1,8,-1
 421 160 l 2,9,10
 421 171 421 171 423 201.5 c 128,-1,11
 425 232 425 232 428.5 274 c 128,-1,12
 432 316 432 316 435.5 361 c 128,-1,13
 439 406 439 406 442.5 447 c 128,-1,14
 446 488 446 488 448 516 c 128,-1,15
 450 544 450 544 450 551 c 1,16,-1
 446 551 l 1,17,-1
 382 158 l 1,18,-1
 216 158 l 1,19,-1
 150 552 l 1,20,-1
 146 552 l 1,21,22
 146 544 146 544 148 516 c 128,-1,23
 150 488 150 488 154 447 c 128,-1,24
 158 406 158 406 161.5 360.5 c 128,-1,25
 165 315 165 315 169 273.5 c 128,-1,26
 173 232 173 232 175 201 c 128,-1,27
 177 170 177 170 177 159 c 2,28,-1
 177 0 l 1,29,-1
 30 0 l 1,0,-1
EndSplineSet
Substitution2: "'c2sc' Capitals to Small Capitals lookup 32 subtable" m.sc
Substitution2: "'aalt' Access All Alternates lookup 0 subtable" m.sc
EndChar

StartChar: N
Encoding: 78 78 49
Width: 600
GlyphClass: 2
Flags: W
AnchorPoint: "Anchor-4" 600 714 basechar 0
AnchorPoint: "Anchor-3" 305 714 basechar 0
AnchorPoint: "Anchor-0" 300 0 basechar 0
LayerCount: 2
Fore
SplineSet
40 0 m 1,0,-1
 40 714 l 1,1,-1
 277 714 l 1,2,-1
 412 157 l 1,3,-1
 416 157 l 1,4,5
 410 225 410 225 406.5 277 c 128,-1,6
 403 329 403 329 403 376 c 2,7,-1
 403 714 l 1,8,-1
 560 714 l 1,9,-1
 560 0 l 1,10,-1
 329 0 l 1,11,-1
 190 552 l 1,12,-1
 186 552 l 1,13,14
 190 501 190 501 192 467 c 128,-1,15
 194 433 194 433 195 410 c 128,-1,16
 196 387 196 387 196.5 368 c 128,-1,17
 197 349 197 349 197 328 c 2,18,-1
 197 0 l 1,19,-1
 40 0 l 1,0,-1
EndSplineSet
Substitution2: "'c2sc' Capitals to Small Capitals lookup 32 subtable" n.sc
Substitution2: "'aalt' Access All Alternates lookup 0 subtable" n.sc
EndChar

StartChar: O
Encoding: 79 79 50
Width: 600
GlyphClass: 2
Flags: W
AnchorPoint: "Anchor-4" 600 714 basechar 0
AnchorPoint: "Anchor-3" 300 714 basechar 0
AnchorPoint: "Anchor-2" 295 10 basechar 0
AnchorPoint: "Anchor-1" 300 357 basechar 0
AnchorPoint: "Anchor-0" 300 0 basechar 0
LayerCount: 2
Fore
SplineSet
300 -10 m 0,0,1
 156 -10 156 -10 88 85 c 128,-1,2
 20 180 20 180 20 358 c 0,3,4
 20 537 20 537 89 631 c 128,-1,5
 158 725 158 725 300 725 c 0,6,7
 445 725 445 725 512.5 629 c 128,-1,8
 580 533 580 533 580 357 c 0,9,10
 580 182 580 182 513 86 c 128,-1,11
 446 -10 446 -10 300 -10 c 0,0,1
300 140 m 0,12,13
 357 140 357 140 379 192.5 c 128,-1,14
 401 245 401 245 401 360 c 0,15,16
 401 470 401 470 379.5 522 c 128,-1,17
 358 574 358 574 300 574 c 0,18,19
 244 574 244 574 221.5 524 c 128,-1,20
 199 474 199 474 199 358 c 256,21,22
 199 242 199 242 221.5 191 c 128,-1,23
 244 140 244 140 300 140 c 0,12,13
EndSplineSet
Substitution2: "'c2sc' Capitals to Small Capitals lookup 32 subtable" o.sc
Substitution2: "Single Substitution lookup 30 subtable" ordmasculine
AlternateSubs2: "'aalt' Access All Alternates lookup 1 subtable" ordmasculine o.sc
EndChar

StartChar: P
Encoding: 80 80 51
Width: 600
GlyphClass: 2
Flags: W
AnchorPoint: "Anchor-4" 600 714 basechar 0
AnchorPoint: "Anchor-3" 300 714 basechar 0
AnchorPoint: "Anchor-0" 300 0 basechar 0
LayerCount: 2
Fore
SplineSet
60 0 m 1,0,-1
 60 714 l 1,1,-1
 324 714 l 2,2,3
 447 714 447 714 508.5 655 c 128,-1,4
 570 596 570 596 570 486 c 0,5,6
 570 418 570 418 545 361.5 c 128,-1,7
 520 305 520 305 465 271 c 128,-1,8
 410 237 410 237 319 237 c 2,9,-1
 225 237 l 1,10,-1
 225 0 l 1,11,-1
 60 0 l 1,0,-1
225 382 m 1,12,-1
 299 382 l 2,13,14
 344 382 344 382 369.5 408 c 128,-1,15
 395 434 395 434 395 484 c 0,16,17
 395 522 395 522 373.5 545.5 c 128,-1,18
 352 569 352 569 302 569 c 2,19,-1
 225 569 l 1,20,-1
 225 382 l 1,12,-1
EndSplineSet
Substitution2: "'c2sc' Capitals to Small Capitals lookup 32 subtable" p.sc
Substitution2: "'aalt' Access All Alternates lookup 0 subtable" p.sc
EndChar

StartChar: Q
Encoding: 81 81 52
Width: 600
GlyphClass: 2
Flags: W
AnchorPoint: "Anchor-4" 600 714 basechar 0
AnchorPoint: "Anchor-3" 300 714 basechar 0
AnchorPoint: "Anchor-2" 295 10 basechar 0
AnchorPoint: "Anchor-1" 300 357 basechar 0
AnchorPoint: "Anchor-0" 300 -220 basechar 0
LayerCount: 2
Fore
SplineSet
300 -10 m 0,0,1
 156 -10 156 -10 88 85 c 128,-1,2
 20 180 20 180 20 358 c 0,3,4
 20 537 20 537 89 631 c 128,-1,5
 158 725 158 725 300 725 c 0,6,7
 445 725 445 725 512.5 629 c 128,-1,8
 580 533 580 533 580 357 c 0,9,10
 580 245 580 245 553 164.5 c 128,-1,11
 526 84 526 84 468 40 c 1,12,-1
 580 -180 l 1,13,-1
 394 -180 l 1,14,-1
 317 -10 l 1,15,16
 309 -10 309 -10 300 -10 c 0,0,1
300 140 m 0,17,18
 357 140 357 140 379 192.5 c 128,-1,19
 401 245 401 245 401 360 c 0,20,21
 401 470 401 470 379.5 522 c 128,-1,22
 358 574 358 574 300 574 c 0,23,24
 244 574 244 574 221.5 524 c 128,-1,25
 199 474 199 474 199 358 c 256,26,27
 199 242 199 242 221.5 191 c 128,-1,28
 244 140 244 140 300 140 c 0,17,18
EndSplineSet
Substitution2: "'c2sc' Capitals to Small Capitals lookup 32 subtable" q.sc
Substitution2: "'aalt' Access All Alternates lookup 0 subtable" q.sc
EndChar

StartChar: R
Encoding: 82 82 53
Width: 600
GlyphClass: 2
Flags: W
AnchorPoint: "Anchor-4" 580 714 basechar 0
AnchorPoint: "Anchor-3" 300 714 basechar 0
AnchorPoint: "Anchor-0" 322 0 basechar 0
LayerCount: 2
Fore
SplineSet
60 0 m 1,0,-1
 60 714 l 1,1,-1
 285 714 l 2,2,3
 418 714 418 714 482 661.5 c 128,-1,4
 546 609 546 609 546 507 c 0,5,6
 546 440 546 440 518.5 393 c 128,-1,7
 491 346 491 346 437 311 c 1,8,-1
 595 0 l 1,9,-1
 409 0 l 1,10,-1
 294 258 l 1,11,-1
 224 258 l 1,12,-1
 224 0 l 1,13,-1
 60 0 l 1,0,-1
224 403 m 1,14,-1
 284 403 l 2,15,16
 324 403 324 403 352.5 423.5 c 128,-1,17
 381 444 381 444 381 490 c 0,18,19
 381 527 381 527 358.5 548 c 128,-1,20
 336 569 336 569 289 569 c 2,21,-1
 224 569 l 1,22,-1
 224 403 l 1,14,-1
EndSplineSet
Substitution2: "'c2sc' Capitals to Small Capitals lookup 32 subtable" r.sc
Substitution2: "'aalt' Access All Alternates lookup 0 subtable" r.sc
EndChar

StartChar: S
Encoding: 83 83 54
Width: 600
GlyphClass: 2
Flags: W
AnchorPoint: "Anchor-4" 580 714 basechar 0
AnchorPoint: "Anchor-3" 316 714 basechar 0
AnchorPoint: "Anchor-0" 300 0 basechar 0
LayerCount: 2
Fore
SplineSet
275 -10 m 0,0,1
 219 -10 219 -10 168.5 0 c 128,-1,2
 118 10 118 10 60 35 c 1,3,-1
 60 203 l 1,4,5
 122 167 122 167 177 153.5 c 128,-1,6
 232 140 232 140 280 140 c 0,7,8
 324 140 324 140 349 151.5 c 128,-1,9
 374 163 374 163 374 196 c 0,10,11
 374 220 374 220 359 235 c 128,-1,12
 344 250 344 250 313 265.5 c 128,-1,13
 282 281 282 281 236 307 c 0,14,15
 182 338 182 338 145.5 367.5 c 128,-1,16
 109 397 109 397 91 434.5 c 128,-1,17
 73 472 73 472 73 528 c 0,18,19
 73 621 73 621 129 673 c 128,-1,20
 185 725 185 725 318 725 c 0,21,22
 391 725 391 725 447.5 710.5 c 128,-1,23
 504 696 504 696 551 673 c 1,24,-1
 496 534 l 1,25,26
 450 556 450 556 409 565 c 128,-1,27
 368 574 368 574 335 574 c 0,28,29
 298 574 298 574 275 562.5 c 128,-1,30
 252 551 252 551 252 519 c 0,31,32
 252 500 252 500 262.5 487 c 128,-1,33
 273 474 273 474 302.5 457 c 128,-1,34
 332 440 332 440 387 411 c 0,35,36
 432 388 432 388 470 361.5 c 128,-1,37
 508 335 508 335 531 296.5 c 128,-1,38
 554 258 554 258 554 198 c 0,39,40
 554 158 554 158 541 121 c 128,-1,41
 528 84 528 84 496.5 54.5 c 128,-1,42
 465 25 465 25 411 7.5 c 128,-1,43
 357 -10 357 -10 275 -10 c 0,0,1
EndSplineSet
Substitution2: "'c2sc' Capitals to Small Capitals lookup 32 subtable" s.sc
Substitution2: "'aalt' Access All Alternates lookup 0 subtable" s.sc
EndChar

StartChar: T
Encoding: 84 84 55
Width: 600
GlyphClass: 2
Flags: W
AnchorPoint: "Anchor-4" 580 714 basechar 0
AnchorPoint: "Anchor-3" 300 714 basechar 0
AnchorPoint: "Anchor-1" 300 357 basechar 0
AnchorPoint: "Anchor-0" 301 0 basechar 0
LayerCount: 2
Fore
SplineSet
212 0 m 1,0,-1
 212 564 l 1,1,-1
 20 564 l 1,2,-1
 20 714 l 1,3,-1
 580 714 l 1,4,-1
 580 564 l 1,5,-1
 387 564 l 1,6,-1
 387 0 l 1,7,-1
 212 0 l 1,0,-1
EndSplineSet
Substitution2: "'c2sc' Capitals to Small Capitals lookup 32 subtable" t.sc
Substitution2: "'aalt' Access All Alternates lookup 0 subtable" t.sc
EndChar

StartChar: U
Encoding: 85 85 56
Width: 600
GlyphClass: 2
Flags: W
AnchorPoint: "Anchor-4" 580 714 basechar 0
AnchorPoint: "Anchor-3" 300 714 basechar 0
AnchorPoint: "Anchor-2" 540 10 basechar 0
AnchorPoint: "Anchor-0" 300 0 basechar 0
LayerCount: 2
Fore
SplineSet
300 -10 m 0,0,1
 180 -10 180 -10 110 59 c 128,-1,2
 40 128 40 128 40 259 c 2,3,-1
 40 714 l 1,4,-1
 215 714 l 1,5,-1
 215 273 l 2,6,7
 215 201 215 201 235 173 c 128,-1,8
 255 145 255 145 297 145 c 0,9,10
 338 145 338 145 361.5 172.5 c 128,-1,11
 385 200 385 200 385 274 c 2,12,-1
 385 714 l 1,13,-1
 560 714 l 1,14,-1
 560 263 l 2,15,16
 560 136 560 136 493 63 c 128,-1,17
 426 -10 426 -10 300 -10 c 0,0,1
EndSplineSet
Substitution2: "'c2sc' Capitals to Small Capitals lookup 32 subtable" u.sc
Substitution2: "'aalt' Access All Alternates lookup 0 subtable" u.sc
EndChar

StartChar: V
Encoding: 86 86 57
Width: 600
GlyphClass: 2
Flags: W
AnchorPoint: "Anchor-4" 580 714 basechar 0
AnchorPoint: "Anchor-3" 300 714 basechar 0
AnchorPoint: "Anchor-0" 300 0 basechar 0
LayerCount: 2
Fore
SplineSet
186 0 m 1,0,-1
 5 714 l 1,1,-1
 180 714 l 1,2,-1
 270 298 l 2,3,4
 274 278 274 278 280 249.5 c 128,-1,5
 286 221 286 221 292 191.5 c 128,-1,6
 298 162 298 162 301 140 c 1,7,-1
 306 140 l 1,8,9
 310 162 310 162 315 192 c 128,-1,10
 320 222 320 222 325 250 c 128,-1,11
 330 278 330 278 334 298 c 2,12,-1
 420 714 l 1,13,-1
 595 714 l 1,14,-1
 415 0 l 1,15,-1
 186 0 l 1,0,-1
EndSplineSet
Substitution2: "'c2sc' Capitals to Small Capitals lookup 32 subtable" v.sc
Substitution2: "'aalt' Access All Alternates lookup 0 subtable" v.sc
EndChar

StartChar: W
Encoding: 87 87 58
Width: 600
GlyphClass: 2
Flags: W
AnchorPoint: "Anchor-4" 580 714 basechar 0
AnchorPoint: "Anchor-3" 300 714 basechar 0
AnchorPoint: "Anchor-0" 300 0 basechar 0
LayerCount: 2
Fore
SplineSet
41 0 m 1,0,-1
 5 714 l 1,1,-1
 148 714 l 1,2,3
 154 622 154 622 157.5 565 c 128,-1,4
 161 508 161 508 163.5 473.5 c 128,-1,5
 166 439 166 439 166.5 415 c 128,-1,6
 167 391 167 391 167 364 c 0,7,8
 167 318 167 318 166.5 262 c 128,-1,9
 166 206 166 206 165 141 c 1,10,-1
 170 141 l 1,11,12
 172 163 172 163 176 197 c 128,-1,13
 180 231 180 231 185 268.5 c 128,-1,14
 190 306 190 306 195 339.5 c 128,-1,15
 200 373 200 373 203 395 c 2,16,-1
 226 552 l 1,17,-1
 374 552 l 1,18,-1
 394 394 l 2,19,20
 397 372 397 372 400.5 338 c 128,-1,21
 404 304 404 304 408.5 267 c 128,-1,22
 413 230 413 230 417 196 c 128,-1,23
 421 162 421 162 424 140 c 1,24,-1
 429 140 l 1,25,26
 429 212 429 212 428 270 c 128,-1,27
 427 328 427 328 427 375 c 0,28,29
 427 402 427 402 427.5 423.5 c 128,-1,30
 428 445 428 445 429 468 c 128,-1,31
 430 491 430 491 432 522 c 128,-1,32
 434 553 434 553 437 599.5 c 128,-1,33
 440 646 440 646 445 714 c 1,34,-1
 595 714 l 1,35,-1
 555 0 l 1,36,-1
 342 0 l 1,37,-1
 325 143 l 2,38,39
 322 172 322 172 317 214.5 c 128,-1,40
 312 257 312 257 307 300 c 128,-1,41
 302 343 302 343 300 371 c 1,42,-1
 297 371 l 1,43,44
 295 343 295 343 290.5 300 c 128,-1,45
 286 257 286 257 281.5 214.5 c 128,-1,46
 277 172 277 172 274 143 c 2,47,-1
 260 0 l 1,48,-1
 41 0 l 1,0,-1
EndSplineSet
Substitution2: "'c2sc' Capitals to Small Capitals lookup 32 subtable" w.sc
Substitution2: "'aalt' Access All Alternates lookup 0 subtable" w.sc
EndChar

StartChar: X
Encoding: 88 88 59
Width: 600
GlyphClass: 2
Flags: W
AnchorPoint: "Anchor-4" 580 714 basechar 0
AnchorPoint: "Anchor-3" 300 714 basechar 0
AnchorPoint: "Anchor-0" 300 0 basechar 0
LayerCount: 2
Fore
SplineSet
15 0 m 1,0,-1
 215 367 l 1,1,-1
 29 714 l 1,2,-1
 210 714 l 1,3,-1
 299 534 l 1,4,-1
 384 714 l 1,5,-1
 568 714 l 1,6,-1
 384 370 l 1,7,-1
 585 0 l 1,8,-1
 398 0 l 1,9,-1
 299 204 l 1,10,-1
 197 0 l 1,11,-1
 15 0 l 1,0,-1
EndSplineSet
Substitution2: "'c2sc' Capitals to Small Capitals lookup 32 subtable" x.sc
Substitution2: "'aalt' Access All Alternates lookup 0 subtable" x.sc
EndChar

StartChar: Y
Encoding: 89 89 60
Width: 600
GlyphClass: 2
Flags: W
AnchorPoint: "Anchor-4" 580 714 basechar 0
AnchorPoint: "Anchor-3" 300 714 basechar 0
AnchorPoint: "Anchor-0" 300 0 basechar 0
LayerCount: 2
Fore
SplineSet
213 0 m 1,0,-1
 213 276 l 1,1,-1
 15 714 l 1,2,-1
 199 714 l 1,3,-1
 302 460 l 1,4,-1
 403 714 l 1,5,-1
 585 714 l 1,6,-1
 388 276 l 1,7,-1
 388 0 l 1,8,-1
 213 0 l 1,0,-1
EndSplineSet
Substitution2: "'c2sc' Capitals to Small Capitals lookup 32 subtable" y.sc
Substitution2: "'aalt' Access All Alternates lookup 0 subtable" y.sc
EndChar

StartChar: Z
Encoding: 90 90 61
Width: 600
GlyphClass: 2
Flags: W
AnchorPoint: "Anchor-4" 580 714 basechar 0
AnchorPoint: "Anchor-3" 308 714 basechar 0
AnchorPoint: "Anchor-0" 311 0 basechar 0
LayerCount: 2
Fore
SplineSet
60 0 m 1,0,-1
 60 119 l 1,1,-1
 352 569 l 1,2,-1
 76 569 l 1,3,-1
 76 714 l 1,4,-1
 543 714 l 1,5,-1
 543 595 l 1,6,-1
 260 150 l 1,7,-1
 550 150 l 1,8,-1
 550 0 l 1,9,-1
 60 0 l 1,0,-1
EndSplineSet
Substitution2: "'c2sc' Capitals to Small Capitals lookup 32 subtable" z.sc
Substitution2: "'aalt' Access All Alternates lookup 0 subtable" z.sc
EndChar

StartChar: bracketleft
Encoding: 91 91 62
Width: 600
Flags: W
LayerCount: 2
Fore
SplineSet
220 -157 m 1,0,-1
 220 745 l 1,1,-1
 475 745 l 1,2,-1
 475 621 l 1,3,-1
 373 621 l 1,4,-1
 373 -33 l 1,5,-1
 475 -33 l 1,6,-1
 475 -157 l 1,7,-1
 220 -157 l 1,0,-1
EndSplineSet
Substitution2: "'smcp' Lowercase to Small Capitals lookup 33 subtable" bracketleft.sc
Substitution2: "'c2sc' Capitals to Small Capitals lookup 32 subtable" bracketleft.sc
Substitution2: "'aalt' Access All Alternates lookup 0 subtable" bracketleft.sc
EndChar

StartChar: asciicircum
Encoding: 94 94 65
Width: 600
Flags: W
LayerCount: 2
Fore
SplineSet
30 244 m 1,0,-1
 250 716 l 1,1,-1
 333 716 l 1,2,-1
 570 244 l 1,3,-1
 425 244 l 1,4,-1
 294 511 l 1,5,-1
 173 244 l 1,6,-1
 30 244 l 1,0,-1
EndSplineSet
EndChar

StartChar: underscore
Encoding: 95 95 66
Width: 600
Flags: W
LayerCount: 2
Fore
SplineSet
0 -182 m 1,0,-1
 0 -42 l 1,1,-1
 600 -42 l 1,2,-1
 600 -182 l 1,3,-1
 0 -182 l 1,0,-1
EndSplineSet
EndChar

StartChar: grave
Encoding: 96 96 67
Width: 600
Flags: W
LayerCount: 2
Fore
SplineSet
326 606 m 1,0,1
 310 618 310 618 286 638 c 128,-1,2
 262 658 262 658 236 680 c 128,-1,3
 210 702 210 702 187 722.5 c 128,-1,4
 164 743 164 743 150 756 c 1,5,-1
 150 766 l 1,6,-1
 346 766 l 1,7,8
 359 745 359 745 378.5 717 c 128,-1,9
 398 689 398 689 417 662.5 c 128,-1,10
 436 636 436 636 449 620 c 1,11,-1
 449 606 l 1,12,-1
 326 606 l 1,0,1
EndSplineSet
EndChar

StartChar: a
Encoding: 97 97 68
Width: 600
GlyphClass: 2
Flags: W
AnchorPoint: "Anchor-4" 580 553 basechar 0
AnchorPoint: "Anchor-3" 309 553 basechar 0
AnchorPoint: "Anchor-2" 540 10 basechar 0
AnchorPoint: "Anchor-0" 306 0 basechar 0
LayerCount: 2
Fore
SplineSet
227 -10 m 0,0,1
 132 -10 132 -10 86 39 c 128,-1,2
 40 88 40 88 40 165 c 0,3,4
 40 228 40 228 68.5 267 c 128,-1,5
 97 306 97 306 147.5 325 c 128,-1,6
 198 344 198 344 264 346 c 2,7,-1
 379 350 l 1,8,-1
 379 369 l 2,9,10
 379 398 379 398 358 412.5 c 128,-1,11
 337 427 337 427 289 427 c 0,12,13
 257 427 257 427 215.5 419.5 c 128,-1,14
 174 412 174 412 134 393 c 1,15,-1
 81 513 l 1,16,17
 134 539 134 539 190.5 551 c 128,-1,18
 247 563 247 563 307 563 c 0,19,20
 430 563 430 563 487.5 516.5 c 128,-1,21
 545 470 545 470 545 377 c 2,22,-1
 545 0 l 1,23,-1
 415 0 l 1,24,-1
 396 66 l 1,25,-1
 392 66 l 1,26,27
 364 31 364 31 332.5 15 c 128,-1,28
 301 -1 301 -1 273.5 -5.5 c 128,-1,29
 246 -10 246 -10 227 -10 c 0,0,1
271 125 m 0,30,31
 313 125 313 125 346 147.5 c 128,-1,32
 379 170 379 170 379 217 c 2,33,-1
 379 244 l 1,34,-1
 321 243 l 2,35,36
 261 242 261 242 231.5 228 c 128,-1,37
 202 214 202 214 202 179 c 0,38,39
 202 125 202 125 271 125 c 0,30,31
EndSplineSet
Substitution2: "'smcp' Lowercase to Small Capitals lookup 33 subtable" a.sc
Substitution2: "Single Substitution lookup 30 subtable" ordfeminine
AlternateSubs2: "'aalt' Access All Alternates lookup 1 subtable" ordfeminine a.sc
EndChar

StartChar: b
Encoding: 98 98 69
Width: 600
GlyphClass: 2
Flags: W
AnchorPoint: "Anchor-4" 580 760 basechar 0
AnchorPoint: "Anchor-3" 300 760 basechar 0
AnchorPoint: "Anchor-0" 300 0 basechar 0
LayerCount: 2
Fore
SplineSet
365 -10 m 0,0,1
 326 -10 326 -10 287 4.5 c 128,-1,2
 248 19 248 19 217 56 c 1,3,-1
 205 56 l 1,4,-1
 175 0 l 1,5,-1
 45 0 l 1,6,-1
 45 760 l 1,7,-1
 217 760 l 1,8,-1
 217 587 l 2,9,10
 217 576 217 576 215 549 c 128,-1,11
 213 522 213 522 210 480 c 1,12,-1
 217 480 l 1,13,14
 246 524 246 524 286.5 543.5 c 128,-1,15
 327 563 327 563 372 563 c 0,16,17
 428 563 428 563 466 539 c 128,-1,18
 504 515 504 515 527 474 c 128,-1,19
 550 433 550 433 560 382.5 c 128,-1,20
 570 332 570 332 570 279 c 0,21,22
 570 224 570 224 559 172 c 128,-1,23
 548 120 548 120 524 79 c 128,-1,24
 500 38 500 38 461 14 c 128,-1,25
 422 -10 422 -10 365 -10 c 0,0,1
303 130 m 0,26,27
 346 130 346 130 370.5 166 c 128,-1,28
 395 202 395 202 395 279 c 0,29,30
 395 352 395 352 372 387 c 128,-1,31
 349 422 349 422 304 422 c 0,32,33
 263 422 263 422 240 390 c 128,-1,34
 217 358 217 358 217 278 c 0,35,36
 217 194 217 194 241 162 c 128,-1,37
 265 130 265 130 303 130 c 0,26,27
EndSplineSet
Substitution2: "'smcp' Lowercase to Small Capitals lookup 33 subtable" b.sc
Substitution2: "'aalt' Access All Alternates lookup 0 subtable" b.sc
EndChar

StartChar: c
Encoding: 99 99 70
Width: 600
GlyphClass: 2
Flags: W
AnchorPoint: "Anchor-4" 580 553 basechar 0
AnchorPoint: "Anchor-3" 313 553 basechar 0
AnchorPoint: "Anchor-0" 330 0 basechar 0
LayerCount: 2
Fore
SplineSet
327 -10 m 0,0,1
 193 -10 193 -10 126.5 61.5 c 128,-1,2
 60 133 60 133 60 270 c 0,3,4
 60 360 60 360 89 425.5 c 128,-1,5
 118 491 118 491 178.5 527 c 128,-1,6
 239 563 239 563 335 563 c 0,7,8
 385 563 385 563 435 552.5 c 128,-1,9
 485 542 485 542 530 520 c 1,10,-1
 478 392 l 1,11,12
 432 410 432 410 403 416 c 128,-1,13
 374 422 374 422 348 422 c 0,14,15
 230 422 230 422 230 280 c 0,16,17
 230 198 230 198 265 164 c 128,-1,18
 300 130 300 130 353 130 c 0,19,20
 382 130 382 130 424 140 c 128,-1,21
 466 150 466 150 509 181 c 1,22,-1
 509 32 l 1,23,24
 466 10 466 10 420 0 c 128,-1,25
 374 -10 374 -10 327 -10 c 0,0,1
EndSplineSet
Substitution2: "'smcp' Lowercase to Small Capitals lookup 33 subtable" c.sc
Substitution2: "'aalt' Access All Alternates lookup 0 subtable" c.sc
EndChar

StartChar: d
Encoding: 100 100 71
Width: 600
GlyphClass: 2
Flags: W
AnchorPoint: "Anchor-4" 580 760 basechar 0
AnchorPoint: "Anchor-3" 300 760 basechar 0
AnchorPoint: "Anchor-1" 300 277 basechar 0
AnchorPoint: "Anchor-0" 300 0 basechar 0
LayerCount: 2
Fore
SplineSet
226 -10 m 0,0,1
 171 -10 171 -10 133.5 14 c 128,-1,2
 96 38 96 38 73 78.5 c 128,-1,3
 50 119 50 119 40 170 c 128,-1,4
 30 221 30 221 30 276 c 0,5,6
 30 353 30 353 51 418.5 c 128,-1,7
 72 484 72 484 117 523.5 c 128,-1,8
 162 563 162 563 235 563 c 0,9,10
 280 563 280 563 321 544 c 128,-1,11
 362 525 362 525 392 480 c 1,12,-1
 396 480 l 1,13,14
 390 512 390 512 387.5 533 c 128,-1,15
 385 554 385 554 384 570.5 c 128,-1,16
 383 587 383 587 383 606 c 2,17,-1
 383 760 l 1,18,-1
 555 760 l 1,19,-1
 555 0 l 1,20,-1
 425 0 l 1,21,-1
 391 70 l 1,22,-1
 383 70 l 1,23,24
 353 27 353 27 311.5 8.5 c 128,-1,25
 270 -10 270 -10 226 -10 c 0,0,1
301 130 m 0,26,27
 355 130 355 130 376.5 166 c 128,-1,28
 398 202 398 202 398 259 c 2,29,-1
 398 273 l 2,30,31
 398 340 398 340 379.5 381 c 128,-1,32
 361 422 361 422 305 422 c 0,33,34
 257 422 257 422 231.5 383 c 128,-1,35
 206 344 206 344 206 272 c 0,36,37
 206 197 206 197 232 163.5 c 128,-1,38
 258 130 258 130 301 130 c 0,26,27
EndSplineSet
Substitution2: "'smcp' Lowercase to Small Capitals lookup 33 subtable" d.sc
Substitution2: "'aalt' Access All Alternates lookup 0 subtable" d.sc
EndChar

StartChar: e
Encoding: 101 101 72
Width: 600
GlyphClass: 2
Flags: W
AnchorPoint: "Anchor-4" 580 553 basechar 0
AnchorPoint: "Anchor-3" 305 553 basechar 0
AnchorPoint: "Anchor-2" 305 10 basechar 0
AnchorPoint: "Anchor-0" 310 0 basechar 0
LayerCount: 2
Fore
SplineSet
336 -10 m 0,0,1
 189 -10 189 -10 114.5 65 c 128,-1,2
 40 140 40 140 40 277 c 0,3,4
 40 408 40 408 107.5 485.5 c 128,-1,5
 175 563 175 563 306 563 c 0,6,7
 428 563 428 563 493.5 491.5 c 128,-1,8
 559 420 559 420 559 298 c 2,9,-1
 559 222 l 1,10,-1
 204 222 l 1,11,12
 208 172 208 172 251.5 148 c 128,-1,13
 295 124 295 124 362 124 c 0,14,15
 407 124 407 124 453 135 c 128,-1,16
 499 146 499 146 538 170 c 1,17,-1
 538 30 l 1,18,19
 488 7 488 7 434 -1.5 c 128,-1,20
 380 -10 380 -10 336 -10 c 0,0,1
207 339 m 1,21,-1
 400 339 l 1,22,23
 399 384 399 384 373.5 410.5 c 128,-1,24
 348 437 348 437 305 437 c 0,25,26
 259 437 259 437 235 409 c 128,-1,27
 211 381 211 381 207 339 c 1,21,-1
EndSplineSet
Substitution2: "'smcp' Lowercase to Small Capitals lookup 33 subtable" e.sc
Substitution2: "'aalt' Access All Alternates lookup 0 subtable" e.sc
EndChar

StartChar: f
Encoding: 102 102 73
Width: 600
GlyphClass: 2
Flags: W
AnchorPoint: "Anchor-4" 580 765 basechar 0
AnchorPoint: "Anchor-3" 405 763 basechar 0
AnchorPoint: "Anchor-0" 300 0 basechar 0
LayerCount: 2
Fore
SplineSet
197 0 m 1,0,-1
 197 413 l 1,1,-1
 44 413 l 1,2,-1
 44 508 l 1,3,-1
 197 552 l 1,4,-1
 197 581 l 2,5,6
 197 666 197 666 255.5 715.5 c 128,-1,7
 314 765 314 765 438 765 c 0,8,9
 471 765 471 765 508 760 c 128,-1,10
 545 755 545 755 590 741 c 1,11,-1
 550 606 l 1,12,13
 521 616 521 616 495 619 c 128,-1,14
 469 622 469 622 454 622 c 0,15,16
 409 622 409 622 390.5 607.5 c 128,-1,17
 372 593 372 593 372 560 c 2,18,-1
 372 553 l 1,19,-1
 538 553 l 1,20,-1
 538 413 l 1,21,-1
 372 413 l 1,22,-1
 372 0 l 1,23,-1
 197 0 l 1,0,-1
EndSplineSet
Substitution2: "'smcp' Lowercase to Small Capitals lookup 33 subtable" f.sc
Substitution2: "'aalt' Access All Alternates lookup 0 subtable" f.sc
EndChar

StartChar: g
Encoding: 103 103 74
Width: 600
GlyphClass: 2
Flags: W
AnchorPoint: "Anchor-4" 580 553 basechar 0
AnchorPoint: "Anchor-3" 300 553 basechar 0
AnchorPoint: "Anchor-0" 300 -245 basechar 0
LayerCount: 2
Fore
SplineSet
250 -245 m 0,0,1
 209 -245 209 -245 162 -239 c 128,-1,2
 115 -233 115 -233 63 -214 c 1,3,-1
 63 -68 l 1,4,5
 120 -89 120 -89 165 -98 c 128,-1,6
 210 -107 210 -107 250 -107 c 0,7,8
 317 -107 317 -107 352.5 -82.5 c 128,-1,9
 388 -58 388 -58 388 -2 c 2,10,-1
 388 67 l 1,11,-1
 384 67 l 1,12,13
 355 21 355 21 318.5 5.5 c 128,-1,14
 282 -10 282 -10 238 -10 c 0,15,16
 139 -10 139 -10 84.5 64.5 c 128,-1,17
 30 139 30 139 30 275 c 0,18,19
 30 418 30 418 88 490.5 c 128,-1,20
 146 563 146 563 236 563 c 0,21,22
 330 563 330 563 387 482 c 1,23,-1
 390 482 l 1,24,-1
 430 552 l 1,25,-1
 555 552 l 1,26,-1
 555 25 l 2,27,28
 555 -108 555 -108 484 -176.5 c 128,-1,29
 413 -245 413 -245 250 -245 c 0,0,1
302 130 m 0,30,31
 351 130 351 130 373.5 163 c 128,-1,32
 396 196 396 196 396 257 c 2,33,-1
 396 273 l 2,34,35
 396 346 396 346 374 384 c 128,-1,36
 352 422 352 422 300 422 c 0,37,38
 203 422 203 422 203 272 c 0,39,40
 203 207 203 207 226.5 168.5 c 128,-1,41
 250 130 250 130 302 130 c 0,30,31
EndSplineSet
Substitution2: "'smcp' Lowercase to Small Capitals lookup 33 subtable" g.sc
Substitution2: "'aalt' Access All Alternates lookup 0 subtable" g.sc
EndChar

StartChar: h
Encoding: 104 104 75
Width: 600
GlyphClass: 2
Flags: W
AnchorPoint: "Anchor-4" 580 760 basechar 0
AnchorPoint: "Anchor-3" 131 760 basechar 0
AnchorPoint: "Anchor-1" 300 277 basechar 0
AnchorPoint: "Anchor-0" 300 0 basechar 0
LayerCount: 2
Fore
SplineSet
45 0 m 1,0,-1
 45 760 l 1,1,-1
 220 760 l 1,2,-1
 220 645 l 2,3,4
 220 604 220 604 216.5 564 c 128,-1,5
 213 524 213 524 211 483 c 1,6,-1
 221 483 l 1,7,8
 247 524 247 524 283 543.5 c 128,-1,9
 319 563 319 563 373 563 c 0,10,11
 468 563 468 563 514 508 c 128,-1,12
 560 453 560 453 560 359 c 2,13,-1
 560 0 l 1,14,-1
 385 0 l 1,15,-1
 385 301 l 2,16,17
 385 360 385 360 369 391 c 128,-1,18
 353 422 353 422 308 422 c 0,19,20
 278 422 278 422 258.5 406 c 128,-1,21
 239 390 239 390 229.5 350.5 c 128,-1,22
 220 311 220 311 220 241 c 2,23,-1
 220 0 l 1,24,-1
 45 0 l 1,0,-1
EndSplineSet
Substitution2: "'smcp' Lowercase to Small Capitals lookup 33 subtable" h.sc
Substitution2: "'subs' Subscript lookup 20 subtable" uni2095
AlternateSubs2: "'aalt' Access All Alternates lookup 1 subtable" h.sc uni2095
EndChar

StartChar: i
Encoding: 105 105 76
Width: 600
GlyphClass: 2
Flags: W
AnchorPoint: "Anchor-4" 510 777 basechar 0
AnchorPoint: "Anchor-3" 313 777 basechar 0
AnchorPoint: "Anchor-0" 311 0 basechar 0
LayerCount: 2
Fore
SplineSet
313 601 m 0,0,1
 208 601 208 601 208 690 c 0,2,3
 208 777 208 777 313 777 c 0,4,5
 366 777 366 777 391 754.5 c 128,-1,6
 416 732 416 732 416 690 c 0,7,8
 416 649 416 649 391.5 625 c 128,-1,9
 367 601 367 601 313 601 c 0,0,1
40 0 m 1,10,-1
 40 124 l 1,11,-1
 226 140 l 1,12,-1
 226 413 l 1,13,-1
 83 427 l 1,14,-1
 83 553 l 1,15,-1
 401 553 l 1,16,-1
 401 140 l 1,17,-1
 560 124 l 1,18,-1
 560 0 l 1,19,-1
 40 0 l 1,10,-1
EndSplineSet
Substitution2: "'smcp' Lowercase to Small Capitals lookup 33 subtable" i.sc
Substitution2: "Single Substitution lookup 5 subtable" dotlessi
Substitution2: "Single Substitution lookup 4 subtable" dotlessi
AlternateSubs2: "'aalt' Access All Alternates lookup 1 subtable" dotlessi i.sc
EndChar

StartChar: j
Encoding: 106 106 77
Width: 600
GlyphClass: 2
Flags: W
AnchorPoint: "Anchor-4" 580 777 basechar 0
AnchorPoint: "Anchor-3" 340 777 basechar 0
AnchorPoint: "Anchor-0" 221 -245 basechar 0
LayerCount: 2
Fore
SplineSet
350 601 m 0,0,1
 245 601 245 601 245 690 c 0,2,3
 245 777 245 777 350 777 c 0,4,5
 403 777 403 777 428 754.5 c 128,-1,6
 453 732 453 732 453 690 c 0,7,8
 453 649 453 649 428.5 625 c 128,-1,9
 404 601 404 601 350 601 c 0,0,1
207 -245 m 0,10,11
 167 -245 167 -245 121.5 -239.5 c 128,-1,12
 76 -234 76 -234 30 -220 c 1,13,-1
 30 -83 l 1,14,15
 70 -94 70 -94 108.5 -98 c 128,-1,16
 147 -102 147 -102 172 -102 c 0,17,18
 212 -102 212 -102 233 -90.5 c 128,-1,19
 254 -79 254 -79 262.5 -50.5 c 128,-1,20
 271 -22 271 -22 271 28 c 2,21,-1
 271 413 l 1,22,-1
 100 426 l 1,23,-1
 100 553 l 1,24,-1
 446 553 l 1,25,-1
 446 -12 l 2,26,27
 446 -129 446 -129 392 -187 c 128,-1,28
 338 -245 338 -245 207 -245 c 0,10,11
EndSplineSet
Substitution2: "'smcp' Lowercase to Small Capitals lookup 33 subtable" j.sc
Substitution2: "Single Substitution lookup 5 subtable" uni0237
Substitution2: "Single Substitution lookup 4 subtable" uni0237
AlternateSubs2: "'aalt' Access All Alternates lookup 1 subtable" uni0237 j.sc
EndChar

StartChar: k
Encoding: 107 107 78
Width: 600
GlyphClass: 2
Flags: W
AnchorPoint: "Anchor-4" 580 760 basechar 0
AnchorPoint: "Anchor-3" 330 760 basechar 0
AnchorPoint: "Anchor-0" 316 0 basechar 0
LayerCount: 2
Fore
SplineSet
40 0 m 1,0,-1
 40 760 l 1,1,-1
 215 760 l 1,2,-1
 215 460 l 2,3,4
 215 436 215 436 214 405.5 c 128,-1,5
 213 375 213 375 211 344.5 c 128,-1,6
 209 314 209 314 206 290 c 1,7,-1
 210 290 l 1,8,9
 228 317 228 317 243.5 340.5 c 128,-1,10
 259 364 259 364 281 396 c 2,11,-1
 392 553 l 1,12,-1
 586 553 l 1,13,-1
 418 329 l 1,14,-1
 595 0 l 1,15,-1
 402 0 l 1,16,-1
 299 210 l 1,17,-1
 215 140 l 1,18,-1
 215 0 l 1,19,-1
 40 0 l 1,0,-1
EndSplineSet
Substitution2: "'smcp' Lowercase to Small Capitals lookup 33 subtable" k.sc
Substitution2: "'subs' Subscript lookup 20 subtable" uni2096
AlternateSubs2: "'aalt' Access All Alternates lookup 1 subtable" k.sc uni2096
EndChar

StartChar: l
Encoding: 108 108 79
Width: 600
GlyphClass: 2
Flags: W
AnchorPoint: "Anchor-4" 508 760 basechar 0
AnchorPoint: "Anchor-3" 300 760 basechar 0
AnchorPoint: "Anchor-1" 318 390 basechar 0
AnchorPoint: "Anchor-0" 318 0 basechar 0
LayerCount: 2
Fore
SplineSet
40 0 m 1,0,-1
 40 122 l 1,1,-1
 226 140 l 1,2,-1
 226 620 l 1,3,-1
 79 633 l 1,4,-1
 79 760 l 1,5,-1
 401 760 l 1,6,-1
 401 140 l 1,7,-1
 560 122 l 1,8,-1
 560 0 l 1,9,-1
 40 0 l 1,0,-1
EndSplineSet
Substitution2: "'smcp' Lowercase to Small Capitals lookup 33 subtable" l.sc
Substitution2: "'subs' Subscript lookup 20 subtable" uni2097
AlternateSubs2: "'aalt' Access All Alternates lookup 1 subtable" l.sc uni2097
EndChar

StartChar: m
Encoding: 109 109 80
Width: 600
GlyphClass: 2
Flags: W
AnchorPoint: "Anchor-4" 580 553 basechar 0
AnchorPoint: "Anchor-3" 338 553 basechar 0
AnchorPoint: "Anchor-0" 308 0 basechar 0
LayerCount: 2
Fore
SplineSet
20 0 m 1,0,-1
 20 553 l 1,1,-1
 139 553 l 1,2,-1
 156 481 l 1,3,-1
 166 481 l 1,4,5
 180 522 180 522 204.5 542.5 c 128,-1,6
 229 563 229 563 270 563 c 0,7,8
 317 563 317 563 338 537.5 c 128,-1,9
 359 512 359 512 364 469 c 1,10,-1
 370 469 l 1,11,12
 390 512 390 512 414 537.5 c 128,-1,13
 438 563 438 563 483 563 c 0,14,15
 527 563 527 563 547.5 538 c 128,-1,16
 568 513 568 513 574 467 c 128,-1,17
 580 421 580 421 580 358 c 2,18,-1
 580 0 l 1,19,-1
 433 0 l 1,20,-1
 433 355 l 2,21,22
 433 392 433 392 426.5 407 c 128,-1,23
 420 422 420 422 404 422 c 0,24,25
 383 422 383 422 377 402 c 128,-1,26
 371 382 371 382 371 354 c 2,27,-1
 371 0 l 1,28,-1
 229 0 l 1,29,-1
 229 355 l 2,30,31
 229 392 229 392 223 407 c 128,-1,32
 217 422 217 422 201 422 c 0,33,34
 180 422 180 422 173.5 402.5 c 128,-1,35
 167 383 167 383 167 355 c 2,36,-1
 167 0 l 1,37,-1
 20 0 l 1,0,-1
EndSplineSet
Substitution2: "'smcp' Lowercase to Small Capitals lookup 33 subtable" m.sc
Substitution2: "'subs' Subscript lookup 20 subtable" uni2098
AlternateSubs2: "'aalt' Access All Alternates lookup 1 subtable" m.sc uni2098
EndChar

StartChar: n
Encoding: 110 110 81
Width: 600
GlyphClass: 2
Flags: W
AnchorPoint: "Anchor-4" 580 553 basechar 0
AnchorPoint: "Anchor-3" 314 553 basechar 0
AnchorPoint: "Anchor-0" 307 0 basechar 0
LayerCount: 2
Fore
SplineSet
45 0 m 1,0,-1
 45 553 l 1,1,-1
 175 553 l 1,2,-1
 198 483 l 1,3,-1
 208 483 l 1,4,5
 234 521 234 521 274.5 542 c 128,-1,6
 315 563 315 563 374 563 c 0,7,8
 470 563 470 563 515 509.5 c 128,-1,9
 560 456 560 456 560 359 c 2,10,-1
 560 0 l 1,11,-1
 385 0 l 1,12,-1
 385 301 l 2,13,14
 385 366 385 366 367 394 c 128,-1,15
 349 422 349 422 311 422 c 0,16,17
 258 422 258 422 239 374.5 c 128,-1,18
 220 327 220 327 220 241 c 2,19,-1
 220 0 l 1,20,-1
 45 0 l 1,0,-1
EndSplineSet
Substitution2: "'smcp' Lowercase to Small Capitals lookup 33 subtable" n.sc
Substitution2: "'sups' Superscript lookup 21 subtable" nsuperior
Substitution2: "'subs' Subscript lookup 20 subtable" uni2099
AlternateSubs2: "'aalt' Access All Alternates lookup 1 subtable" nsuperior n.sc uni2099
EndChar

StartChar: o
Encoding: 111 111 82
Width: 600
GlyphClass: 2
Flags: W
AnchorPoint: "Anchor-4" 580 553 basechar 0
AnchorPoint: "Anchor-3" 300 553 basechar 0
AnchorPoint: "Anchor-2" 301 10 basechar 0
AnchorPoint: "Anchor-1" 300 277 basechar 0
AnchorPoint: "Anchor-0" 300 0 basechar 0
LayerCount: 2
Fore
SplineSet
305 -10 m 0,0,1
 214 -10 214 -10 153 26.5 c 128,-1,2
 92 63 92 63 61 128.5 c 128,-1,3
 30 194 30 194 30 281 c 0,4,5
 30 363 30 363 59 426.5 c 128,-1,6
 88 490 88 490 146.5 526.5 c 128,-1,7
 205 563 205 563 294 563 c 0,8,9
 381 563 381 563 442.5 527 c 128,-1,10
 504 491 504 491 537 424.5 c 128,-1,11
 570 358 570 358 570 269 c 0,12,13
 570 186 570 186 541 123 c 128,-1,14
 512 60 512 60 453 25 c 128,-1,15
 394 -10 394 -10 305 -10 c 0,0,1
300 130 m 0,16,17
 353 130 353 130 377 170 c 128,-1,18
 401 210 401 210 401 275 c 0,19,20
 401 341 401 341 376.5 381.5 c 128,-1,21
 352 422 352 422 300 422 c 0,22,23
 246 422 246 422 223 379.5 c 128,-1,24
 200 337 200 337 200 275 c 0,25,26
 200 209 200 209 224 169.5 c 128,-1,27
 248 130 248 130 300 130 c 0,16,17
EndSplineSet
Substitution2: "'smcp' Lowercase to Small Capitals lookup 33 subtable" o.sc
Substitution2: "Single Substitution lookup 30 subtable" ordmasculine
AlternateSubs2: "'aalt' Access All Alternates lookup 1 subtable" ordmasculine o.sc
EndChar

StartChar: p
Encoding: 112 112 83
Width: 600
GlyphClass: 2
Flags: W
AnchorPoint: "Anchor-4" 580 553 basechar 0
AnchorPoint: "Anchor-3" 330 553 basechar 0
AnchorPoint: "Anchor-0" 330 -240 basechar 0
LayerCount: 2
Fore
SplineSet
45 -240 m 1,0,-1
 45 553 l 1,1,-1
 170 553 l 1,2,-1
 208 481 l 1,3,-1
 217 481 l 1,4,5
 245 525 245 525 285.5 544 c 128,-1,6
 326 563 326 563 371 563 c 0,7,8
 427 563 427 563 465.5 539.5 c 128,-1,9
 504 516 504 516 527 476 c 128,-1,10
 550 436 550 436 560 386 c 128,-1,11
 570 336 570 336 570 283 c 0,12,13
 570 196 570 196 546 130 c 128,-1,14
 522 64 522 64 475.5 27 c 128,-1,15
 429 -10 429 -10 362 -10 c 0,16,17
 324 -10 324 -10 286 4.5 c 128,-1,18
 248 19 248 19 217 56 c 1,19,-1
 208 56 l 1,20,21
 210 43 210 43 213.5 14.5 c 128,-1,22
 217 -14 217 -14 217 -33 c 2,23,-1
 217 -240 l 1,24,-1
 45 -240 l 1,0,-1
308 130 m 0,25,26
 353 130 353 130 374 168.5 c 128,-1,27
 395 207 395 207 395 279 c 0,28,29
 395 350 395 350 374.5 386 c 128,-1,30
 354 422 354 422 307 422 c 0,31,32
 264 422 264 422 240.5 390 c 128,-1,33
 217 358 217 358 217 292 c 2,34,-1
 217 278 l 2,35,36
 217 201 217 201 242 165.5 c 128,-1,37
 267 130 267 130 308 130 c 0,25,26
EndSplineSet
Substitution2: "'smcp' Lowercase to Small Capitals lookup 33 subtable" p.sc
Substitution2: "'subs' Subscript lookup 20 subtable" uni209A
AlternateSubs2: "'aalt' Access All Alternates lookup 1 subtable" p.sc uni209A
EndChar

StartChar: q
Encoding: 113 113 84
Width: 600
GlyphClass: 2
Flags: W
AnchorPoint: "Anchor-4" 580 553 basechar 0
AnchorPoint: "Anchor-3" 270 553 basechar 0
AnchorPoint: "Anchor-0" 270 -240 basechar 0
LayerCount: 2
Fore
SplineSet
383 -240 m 1,0,-1
 383 -11 l 2,1,2
 383 -2 383 -2 383.5 6 c 128,-1,3
 384 14 384 14 385 28.5 c 128,-1,4
 386 43 386 43 389 70 c 1,5,-1
 383 70 l 1,6,7
 358 27 358 27 315.5 8.5 c 128,-1,8
 273 -10 273 -10 228 -10 c 0,9,10
 172 -10 172 -10 134 14 c 128,-1,11
 96 38 96 38 73 78.5 c 128,-1,12
 50 119 50 119 40 170 c 128,-1,13
 30 221 30 221 30 276 c 0,14,15
 30 329 30 329 40 380 c 128,-1,16
 50 431 50 431 73 472.5 c 128,-1,17
 96 514 96 514 135.5 538.5 c 128,-1,18
 175 563 175 563 234 563 c 0,19,20
 275 563 275 563 317 546.5 c 128,-1,21
 359 530 359 530 392 483 c 1,22,-1
 396 483 l 1,23,-1
 430 553 l 1,24,-1
 555 553 l 1,25,-1
 555 -240 l 1,26,-1
 383 -240 l 1,0,-1
297 130 m 0,27,28
 351 130 351 130 373.5 167 c 128,-1,29
 396 204 396 204 396 256 c 2,30,-1
 396 273 l 2,31,32
 396 350 396 350 371.5 386 c 128,-1,33
 347 422 347 422 299 422 c 0,34,35
 205 422 205 422 205 273 c 0,36,37
 205 202 205 202 227 166 c 128,-1,38
 249 130 249 130 297 130 c 0,27,28
EndSplineSet
Substitution2: "'smcp' Lowercase to Small Capitals lookup 33 subtable" q.sc
Substitution2: "'aalt' Access All Alternates lookup 0 subtable" q.sc
EndChar

StartChar: r
Encoding: 114 114 85
Width: 600
GlyphClass: 2
Flags: W
AnchorPoint: "Anchor-4" 580 553 basechar 0
AnchorPoint: "Anchor-3" 314 553 basechar 0
AnchorPoint: "Anchor-0" 270 0 basechar 0
LayerCount: 2
Fore
SplineSet
30 0 m 1,0,-1
 30 124 l 1,1,-1
 176 140 l 1,2,-1
 176 413 l 1,3,-1
 53 427 l 1,4,-1
 53 553 l 1,5,-1
 296 553 l 1,6,-1
 323 463 l 1,7,-1
 331 463 l 1,8,9
 348 506 348 506 386 534.5 c 128,-1,10
 424 563 424 563 480 563 c 0,11,12
 494 563 494 563 520.5 561 c 128,-1,13
 547 559 547 559 586 548 c 1,14,-1
 545 383 l 1,15,16
 528 390 528 390 502.5 393.5 c 128,-1,17
 477 397 477 397 462 397 c 0,18,19
 406 397 406 397 371 361 c 128,-1,20
 336 325 336 325 336 246 c 2,21,-1
 336 140 l 1,22,-1
 490 124 l 1,23,-1
 490 0 l 1,24,-1
 30 0 l 1,0,-1
EndSplineSet
Substitution2: "'smcp' Lowercase to Small Capitals lookup 33 subtable" r.sc
Substitution2: "'aalt' Access All Alternates lookup 0 subtable" r.sc
EndChar

StartChar: s
Encoding: 115 115 86
Width: 600
GlyphClass: 2
Flags: W
AnchorPoint: "Anchor-4" 580 553 basechar 0
AnchorPoint: "Anchor-3" 305 553 basechar 0
AnchorPoint: "Anchor-0" 305 0 basechar 0
LayerCount: 2
Fore
SplineSet
263 -10 m 0,0,1
 215 -10 215 -10 166 -3 c 128,-1,2
 117 4 117 4 70 21 c 1,3,-1
 70 175 l 1,4,5
 124 150 124 150 175.5 137.5 c 128,-1,6
 227 125 227 125 272 125 c 0,7,8
 304 125 304 125 328.5 132.5 c 128,-1,9
 353 140 353 140 353 160 c 0,10,11
 353 176 353 176 336 186 c 128,-1,12
 319 196 319 196 289.5 206 c 128,-1,13
 260 216 260 216 221 233 c 0,14,15
 150 263 150 263 115 298.5 c 128,-1,16
 80 334 80 334 80 396 c 0,17,18
 80 481 80 481 142 522 c 128,-1,19
 204 563 204 563 313 563 c 0,20,21
 362 563 362 563 413 553.5 c 128,-1,22
 464 544 464 544 520 521 c 1,23,-1
 465 390 l 1,24,25
 424 411 424 411 386.5 419.5 c 128,-1,26
 349 428 349 428 318 428 c 0,27,28
 286 428 286 428 268 420 c 128,-1,29
 250 412 250 412 250 396 c 0,30,31
 250 384 250 384 261.5 376 c 128,-1,32
 273 368 273 368 299.5 359 c 128,-1,33
 326 350 326 350 371 332 c 0,34,35
 422 312 422 312 456 292 c 128,-1,36
 490 272 490 272 507 243.5 c 128,-1,37
 524 215 524 215 524 171 c 0,38,39
 524 118 524 118 497.5 77 c 128,-1,40
 471 36 471 36 413.5 13 c 128,-1,41
 356 -10 356 -10 263 -10 c 0,0,1
EndSplineSet
Substitution2: "'smcp' Lowercase to Small Capitals lookup 33 subtable" s.sc
Substitution2: "'subs' Subscript lookup 20 subtable" uni209B
AlternateSubs2: "'aalt' Access All Alternates lookup 1 subtable" s.sc uni209B
EndChar

StartChar: t
Encoding: 116 116 87
Width: 600
GlyphClass: 2
Flags: W
AnchorPoint: "Anchor-4" 580 677 basechar 0
AnchorPoint: "Anchor-3" 273 677 basechar 0
AnchorPoint: "Anchor-1" 242 277 basechar 0
AnchorPoint: "Anchor-0" 357 0 basechar 0
LayerCount: 2
Fore
SplineSet
370 -10 m 0,0,1
 291 -10 291 -10 245.5 14 c 128,-1,2
 200 38 200 38 181 86 c 128,-1,3
 162 134 162 134 162 204 c 2,4,-1
 162 413 l 1,5,-1
 24 413 l 1,6,-1
 24 498 l 1,7,-1
 180 552 l 1,8,-1
 207 677 l 1,9,-1
 337 677 l 1,10,-1
 337 553 l 1,11,-1
 528 553 l 1,12,-1
 528 413 l 1,13,-1
 337 413 l 1,14,-1
 337 230 l 2,15,16
 337 184 337 184 352 164.5 c 128,-1,17
 367 145 367 145 386.5 140 c 128,-1,18
 406 135 406 135 421 135 c 0,19,20
 446 135 446 135 469.5 139.5 c 128,-1,21
 493 144 493 144 530 157 c 1,22,-1
 530 18 l 1,23,24
 486 3 486 3 447.5 -3.5 c 128,-1,25
 409 -10 409 -10 370 -10 c 0,0,1
EndSplineSet
Substitution2: "'smcp' Lowercase to Small Capitals lookup 33 subtable" t.sc
Substitution2: "'subs' Subscript lookup 20 subtable" uni209C
AlternateSubs2: "'aalt' Access All Alternates lookup 1 subtable" t.sc uni209C
EndChar

StartChar: u
Encoding: 117 117 88
Width: 600
GlyphClass: 2
Flags: W
AnchorPoint: "Anchor-4" 580 553 basechar 0
AnchorPoint: "Anchor-3" 300 553 basechar 0
AnchorPoint: "Anchor-2" 540 10 basechar 0
AnchorPoint: "Anchor-0" 300 0 basechar 0
LayerCount: 2
Fore
SplineSet
226 -11 m 0,0,1
 128 -11 128 -11 84 42.5 c 128,-1,2
 40 96 40 96 40 193 c 2,3,-1
 40 553 l 1,4,-1
 215 553 l 1,5,-1
 215 247 l 2,6,7
 215 189 215 189 232.5 159.5 c 128,-1,8
 250 130 250 130 294 130 c 0,9,10
 331 130 331 130 349.5 149.5 c 128,-1,11
 368 169 368 169 374 202.5 c 128,-1,12
 380 236 380 236 380 276 c 2,13,-1
 380 553 l 1,14,-1
 555 553 l 1,15,-1
 555 0 l 1,16,-1
 425 0 l 1,17,-1
 402 69 l 1,18,-1
 392 69 l 1,19,20
 366 30 366 30 326 9.5 c 128,-1,21
 286 -11 286 -11 226 -11 c 0,0,1
EndSplineSet
Substitution2: "'smcp' Lowercase to Small Capitals lookup 33 subtable" u.sc
Substitution2: "'aalt' Access All Alternates lookup 0 subtable" u.sc
EndChar

StartChar: v
Encoding: 118 118 89
Width: 600
GlyphClass: 2
Flags: W
AnchorPoint: "Anchor-4" 580 553 basechar 0
AnchorPoint: "Anchor-3" 300 553 basechar 0
AnchorPoint: "Anchor-0" 300 0 basechar 0
LayerCount: 2
Fore
SplineSet
202 0 m 1,0,-1
 10 553 l 1,1,-1
 195 553 l 1,2,-1
 278 237 l 2,3,4
 286 208 286 208 289.5 193 c 128,-1,5
 293 178 293 178 298 152 c 1,6,-1
 301 152 l 1,7,8
 306 178 306 178 310 193 c 128,-1,9
 314 208 314 208 321 237 c 2,10,-1
 405 553 l 1,11,-1
 590 553 l 1,12,-1
 391 0 l 1,13,-1
 202 0 l 1,0,-1
EndSplineSet
Substitution2: "'smcp' Lowercase to Small Capitals lookup 33 subtable" v.sc
Substitution2: "'aalt' Access All Alternates lookup 0 subtable" v.sc
EndChar

StartChar: w
Encoding: 119 119 90
Width: 600
GlyphClass: 2
Flags: W
AnchorPoint: "Anchor-4" 580 553 basechar 0
AnchorPoint: "Anchor-3" 303 553 basechar 0
AnchorPoint: "Anchor-0" 300 0 basechar 0
LayerCount: 2
Fore
SplineSet
64 0 m 1,0,-1
 0 553 l 1,1,-1
 155 553 l 1,2,-1
 165 283 l 2,3,4
 166 257 166 257 166.5 217.5 c 128,-1,5
 167 178 167 178 167 153 c 1,6,-1
 173 153 l 1,7,8
 174 177 174 177 178 203 c 128,-1,9
 182 229 182 229 187 255 c 2,10,-1
 232 485 l 1,11,-1
 372 485 l 1,12,-1
 413 255 l 2,13,14
 418 226 418 226 421 202.5 c 128,-1,15
 424 179 424 179 427 153 c 1,16,-1
 433 153 l 1,17,18
 434 179 434 179 434 216 c 128,-1,19
 434 253 434 253 436 281 c 2,20,-1
 449 553 l 1,21,-1
 600 553 l 1,22,-1
 536 0 l 1,23,-1
 343 0 l 1,24,-1
 318 166 l 2,25,26
 313 203 313 203 308.5 239.5 c 128,-1,27
 304 276 304 276 302 308 c 1,28,-1
 296 308 l 1,29,30
 294 277 294 277 289 240 c 128,-1,31
 284 203 284 203 278 166 c 2,32,-1
 252 0 l 1,33,-1
 64 0 l 1,0,-1
EndSplineSet
Substitution2: "'smcp' Lowercase to Small Capitals lookup 33 subtable" w.sc
Substitution2: "'aalt' Access All Alternates lookup 0 subtable" w.sc
EndChar

StartChar: x
Encoding: 120 120 91
Width: 600
GlyphClass: 2
Flags: W
AnchorPoint: "Anchor-4" 580 553 basechar 0
AnchorPoint: "Anchor-3" 300 553 basechar 0
AnchorPoint: "Anchor-0" 300 0 basechar 0
LayerCount: 2
Fore
SplineSet
10 0 m 1,0,-1
 178 282 l 1,1,-1
 18 553 l 1,2,-1
 219 553 l 1,3,-1
 298 404 l 1,4,-1
 382 553 l 1,5,-1
 582 553 l 1,6,-1
 416 281 l 1,7,-1
 590 0 l 1,8,-1
 388 0 l 1,9,-1
 296 159 l 1,10,-1
 213 0 l 1,11,-1
 10 0 l 1,0,-1
EndSplineSet
Substitution2: "'smcp' Lowercase to Small Capitals lookup 33 subtable" x.sc
Substitution2: "'aalt' Access All Alternates lookup 0 subtable" x.sc
EndChar

StartChar: y
Encoding: 121 121 92
Width: 600
GlyphClass: 2
Flags: W
AnchorPoint: "Anchor-4" 580 553 basechar 0
AnchorPoint: "Anchor-3" 300 553 basechar 0
AnchorPoint: "Anchor-0" 300 -245 basechar 0
LayerCount: 2
Fore
SplineSet
125 -245 m 0,0,1
 107 -245 107 -245 88 -243.5 c 128,-1,2
 69 -242 69 -242 48 -237 c 1,3,-1
 48 -104 l 1,4,5
 76 -110 76 -110 101 -110 c 0,6,7
 193 -110 193 -110 222 -27 c 2,8,-1
 234 7 l 1,9,-1
 10 553 l 1,10,-1
 198 553 l 1,11,-1
 291 262 l 2,12,13
 297 243 297 243 302.5 222 c 128,-1,14
 308 201 308 201 313 171 c 1,15,-1
 316 171 l 1,16,17
 320 197 320 197 325.5 224.5 c 128,-1,18
 331 252 331 252 334 263 c 2,19,-1
 411 553 l 1,20,-1
 590 553 l 1,21,-1
 379 -55 l 2,22,23
 347 -148 347 -148 287 -196.5 c 128,-1,24
 227 -245 227 -245 125 -245 c 0,0,1
EndSplineSet
Substitution2: "'smcp' Lowercase to Small Capitals lookup 33 subtable" y.sc
Substitution2: "'aalt' Access All Alternates lookup 0 subtable" y.sc
EndChar

StartChar: z
Encoding: 122 122 93
Width: 600
GlyphClass: 2
Flags: W
AnchorPoint: "Anchor-4" 580 553 basechar 0
AnchorPoint: "Anchor-3" 307 553 basechar 0
AnchorPoint: "Anchor-0" 307 0 basechar 0
LayerCount: 2
Fore
SplineSet
55 0 m 1,0,-1
 55 103 l 1,1,-1
 321 415 l 1,2,-1
 70 415 l 1,3,-1
 70 553 l 1,4,-1
 536 553 l 1,5,-1
 536 441 l 1,6,-1
 277 138 l 1,7,-1
 545 138 l 1,8,-1
 545 0 l 1,9,-1
 55 0 l 1,0,-1
EndSplineSet
Substitution2: "'smcp' Lowercase to Small Capitals lookup 33 subtable" z.sc
Substitution2: "'aalt' Access All Alternates lookup 0 subtable" z.sc
EndChar

StartChar: braceleft
Encoding: 123 123 94
Width: 600
Flags: W
LayerCount: 2
Fore
SplineSet
475 -168 m 1,0,1
 380 -168 380 -168 328 -152.5 c 128,-1,2
 276 -137 276 -137 255 -100.5 c 128,-1,3
 234 -64 234 -64 234 0 c 2,4,-1
 234 126 l 2,5,6
 234 168 234 168 203.5 188.5 c 128,-1,7
 173 209 173 209 125 209 c 1,8,-1
 125 347 l 1,9,10
 174 347 174 347 204 367 c 128,-1,11
 234 387 234 387 234 430 c 2,12,-1
 234 558 l 2,13,14
 234 618 234 618 253 654.5 c 128,-1,15
 272 691 272 691 324 707.5 c 128,-1,16
 376 724 376 724 475 724 c 1,17,-1
 475 592 l 1,18,19
 452 591 452 591 433 588 c 128,-1,20
 414 585 414 585 402 574.5 c 128,-1,21
 390 564 390 564 390 540 c 2,22,-1
 390 404 l 2,23,24
 390 346 390 346 364 317.5 c 128,-1,25
 338 289 338 289 286 281 c 1,26,-1
 286 275 l 1,27,28
 338 266 338 266 364 238 c 128,-1,29
 390 210 390 210 390 155 c 2,30,-1
 390 17 l 2,31,32
 390 -16 390 -16 413.5 -25 c 128,-1,33
 437 -34 437 -34 475 -36 c 1,34,-1
 475 -168 l 1,0,1
EndSplineSet
Substitution2: "'smcp' Lowercase to Small Capitals lookup 33 subtable" braceleft.sc
Substitution2: "'c2sc' Capitals to Small Capitals lookup 32 subtable" braceleft.sc
Substitution2: "'aalt' Access All Alternates lookup 0 subtable" braceleft.sc
EndChar

StartChar: bar
Encoding: 124 124 95
Width: 600
Flags: W
LayerCount: 2
Fore
SplineSet
232 -240 m 1,0,-1
 232 760 l 1,1,-1
 368 760 l 1,2,-1
 368 -240 l 1,3,-1
 232 -240 l 1,0,-1
EndSplineSet
EndChar

StartChar: asciitilde
Encoding: 126 126 97
Width: 600
Flags: W
LayerCount: 2
Fore
SplineSet
65 257 m 1,0,-1
 65 394 l 1,1,2
 113 447 113 447 187 447 c 0,3,4
 218 447 218 447 248 439.5 c 128,-1,5
 278 432 278 432 317 416 c 0,6,7
 350 402 350 402 377 395.5 c 128,-1,8
 404 389 404 389 427 389 c 0,9,10
 452 389 452 389 480.5 405.5 c 128,-1,11
 509 422 509 422 534 448 c 1,12,-1
 534 311 l 1,13,14
 486 258 486 258 412 258 c 0,15,16
 382 258 382 258 352 264.5 c 128,-1,17
 322 271 322 271 282 289 c 0,18,19
 248 304 248 304 222 310 c 128,-1,20
 196 316 196 316 173 316 c 0,21,22
 146 316 146 316 118.5 300 c 128,-1,23
 91 284 91 284 65 257 c 1,0,-1
EndSplineSet
EndChar

StartChar: cent
Encoding: 162 162 100
Width: 600
Flags: W
LayerCount: 2
Fore
SplineSet
293 -10 m 1,0,-1
 293 81 l 1,1,2
 175 93 175 93 113.5 164.5 c 128,-1,3
 52 236 52 236 50 361 c 0,4,5
 52 483 52 483 116 556.5 c 128,-1,6
 180 630 180 630 293 644 c 1,7,-1
 293 724 l 1,8,-1
 387 724 l 1,9,-1
 387 649 l 1,10,11
 429 646 429 646 474.5 635.5 c 128,-1,12
 520 625 520 625 550 608 c 1,13,-1
 501 473 l 1,14,15
 472 489 472 489 435 497.5 c 128,-1,16
 398 506 398 506 366 506 c 0,17,18
 304 506 304 506 264 472.5 c 128,-1,19
 224 439 224 439 224 362 c 0,20,21
 224 286 224 286 262 254 c 128,-1,22
 300 222 300 222 365 222 c 0,23,24
 406 222 406 222 453.5 235 c 128,-1,25
 501 248 501 248 534 271 c 1,26,-1
 534 126 l 1,27,28
 509 109 509 109 468.5 96.5 c 128,-1,29
 428 84 428 84 387 80 c 1,30,-1
 387 -10 l 1,31,-1
 293 -10 l 1,0,-1
EndSplineSet
EndChar

StartChar: sterling
Encoding: 163 163 101
Width: 600
Flags: W
LayerCount: 2
Fore
SplineSet
70 0 m 1,0,-1
 70 147 l 1,1,2
 98 162 98 162 116 176 c 128,-1,3
 134 190 134 190 143 210 c 128,-1,4
 152 230 152 230 152 263 c 2,5,-1
 152 306 l 1,6,-1
 80 306 l 1,7,-1
 80 435 l 1,8,-1
 152 435 l 1,9,-1
 152 510 l 2,10,11
 152 619 152 619 215 672 c 128,-1,12
 278 725 278 725 381 725 c 0,13,14
 429 725 429 725 470.5 714.5 c 128,-1,15
 512 704 512 704 550 685 c 1,16,-1
 502 547 l 1,17,18
 473 561 473 561 451.5 567.5 c 128,-1,19
 430 574 430 574 405 574 c 0,20,21
 367 574 367 574 347.5 559 c 128,-1,22
 328 544 328 544 328 507 c 2,23,-1
 328 435 l 1,24,-1
 476 435 l 1,25,-1
 476 306 l 1,26,-1
 328 306 l 1,27,-1
 328 264 l 2,28,29
 328 221 328 221 304 195 c 128,-1,30
 280 169 280 169 245 153 c 1,31,-1
 549 153 l 1,32,-1
 549 0 l 1,33,-1
 70 0 l 1,0,-1
EndSplineSet
EndChar

StartChar: currency
Encoding: 164 164 102
Width: 600
Flags: W
LayerCount: 2
Fore
SplineSet
463 130 m 1,0,-1
 397 195 l 1,1,2
 352 171 352 171 298 171 c 0,3,4
 242 171 242 171 199 193 c 1,5,-1
 135 131 l 1,6,-1
 50 216 l 1,7,-1
 115 281 l 1,8,9
 102 304 102 304 96.5 328 c 128,-1,10
 91 352 91 352 91 379 c 0,11,12
 91 430 91 430 115 478 c 1,13,-1
 49 542 l 1,14,-1
 135 629 l 1,15,-1
 200 564 l 1,16,17
 223 576 223 576 248.5 582 c 128,-1,18
 274 588 274 588 298 588 c 0,19,20
 352 588 352 588 397 562 c 1,21,-1
 463 629 l 1,22,-1
 551 545 l 1,23,-1
 484 479 l 1,24,25
 508 436 508 436 508 379 c 0,26,27
 508 325 508 325 484 280 c 1,28,-1
 548 215 l 1,29,-1
 463 130 l 1,0,-1
298 294 m 256,30,31
 338 294 338 294 362.5 318.5 c 128,-1,32
 387 343 387 343 387 379 c 256,33,34
 387 415 387 415 362 440.5 c 128,-1,35
 337 466 337 466 298 466 c 0,36,37
 260 466 260 466 236.5 440.5 c 128,-1,38
 213 415 213 415 213 379 c 256,39,40
 213 343 213 343 235.5 318.5 c 128,-1,41
 258 294 258 294 298 294 c 256,30,31
EndSplineSet
EndChar

StartChar: yen
Encoding: 165 165 103
Width: 600
Flags: W
LayerCount: 2
Fore
SplineSet
215 0 m 1,0,-1
 215 99 l 1,1,-1
 76 99 l 1,2,-1
 76 201 l 1,3,-1
 215 201 l 1,4,-1
 215 264 l 1,5,-1
 76 264 l 1,6,-1
 76 367 l 1,7,-1
 188 367 l 1,8,-1
 15 714 l 1,9,-1
 200 714 l 1,10,-1
 301 469 l 1,11,-1
 399 714 l 1,12,-1
 585 714 l 1,13,-1
 410 367 l 1,14,-1
 523 367 l 1,15,-1
 523 264 l 1,16,-1
 386 264 l 1,17,-1
 386 201 l 1,18,-1
 523 201 l 1,19,-1
 523 99 l 1,20,-1
 386 99 l 1,21,-1
 386 0 l 1,22,-1
 215 0 l 1,0,-1
EndSplineSet
EndChar

StartChar: brokenbar
Encoding: 166 166 104
Width: 600
Flags: W
LayerCount: 2
Fore
SplineSet
232 356 m 1,0,-1
 232 759 l 1,1,-1
 368 759 l 1,2,-1
 368 356 l 1,3,-1
 232 356 l 1,0,-1
232 -224 m 1,4,-1
 232 179 l 1,5,-1
 368 179 l 1,6,-1
 368 -224 l 1,7,-1
 232 -224 l 1,4,-1
EndSplineSet
EndChar

StartChar: section
Encoding: 167 167 105
Width: 600
Flags: W
LayerCount: 2
Fore
SplineSet
276 -10 m 0,0,1
 170 -10 170 -10 94 33 c 1,2,-1
 94 153 l 1,3,4
 122 138 122 138 155 126 c 128,-1,5
 188 114 188 114 219 107 c 128,-1,6
 250 100 250 100 273 100 c 0,7,8
 344 100 344 100 344 144 c 0,9,10
 344 157 344 157 337.5 165.5 c 128,-1,11
 331 174 331 174 312.5 184 c 128,-1,12
 294 194 294 194 258 209 c 0,13,14
 202 233 202 233 164.5 257 c 128,-1,15
 127 281 127 281 108 311.5 c 128,-1,16
 89 342 89 342 89 386 c 0,17,18
 89 423 89 423 113.5 452.5 c 128,-1,19
 138 482 138 482 173 502 c 1,20,21
 101 550 101 550 101 622 c 0,22,23
 101 686 101 686 156.5 725.5 c 128,-1,24
 212 765 212 765 309 765 c 0,25,26
 361 765 361 765 409 753.5 c 128,-1,27
 457 742 457 742 499 723 c 1,28,-1
 450 613 l 1,29,30
 416 632 416 632 379 644 c 128,-1,31
 342 656 342 656 312 656 c 0,32,33
 258 656 258 656 258 620 c 0,34,35
 258 602 258 602 278 586.5 c 128,-1,36
 298 571 298 571 346 552 c 0,37,38
 434 518 434 518 473 479.5 c 128,-1,39
 512 441 512 441 512 386 c 0,40,41
 512 342 512 342 491 313.5 c 128,-1,42
 470 285 470 285 436 262 c 1,43,44
 466 242 466 242 482.5 213.5 c 128,-1,45
 499 185 499 185 499 149 c 0,46,47
 499 79 499 79 441 34.5 c 128,-1,48
 383 -10 383 -10 276 -10 c 0,0,1
342 311 m 1,49,50
 350 320 350 320 357 333 c 128,-1,51
 364 346 364 346 364 363 c 0,52,53
 364 392 364 392 342 412.5 c 128,-1,54
 320 433 320 433 267 454 c 1,55,56
 254 446 254 446 245.5 434 c 128,-1,57
 237 422 237 422 237 403 c 0,58,59
 237 380 237 380 257 362 c 128,-1,60
 277 344 277 344 320 322 c 2,61,-1
 342 311 l 1,49,50
EndSplineSet
EndChar

StartChar: dieresis
Encoding: 168 168 106
Width: 600
GlyphClass: 2
Flags: W
AnchorPoint: "Anchor-13" 300 663 basemark 0
AnchorPoint: "Anchor-13" 300 553 mark 0
AnchorPoint: "Anchor-8" 300 553 mark 0
AnchorPoint: "Anchor-3" 300 553 mark 0
LayerCount: 2
Fore
SplineSet
423 608 m 0,0,1
 385 608 385 608 361.5 629 c 128,-1,2
 338 650 338 650 338 690 c 0,3,4
 338 732 338 732 362 753 c 128,-1,5
 386 774 386 774 423 774 c 256,6,7
 460 774 460 774 484 752.5 c 128,-1,8
 508 731 508 731 508 690 c 0,9,10
 508 650 508 650 484 629 c 128,-1,11
 460 608 460 608 423 608 c 0,0,1
177 608 m 256,12,13
 140 608 140 608 116.5 629 c 128,-1,14
 93 650 93 650 93 690 c 0,15,16
 93 732 93 732 116.5 753 c 128,-1,17
 140 774 140 774 177 774 c 256,18,19
 214 774 214 774 238.5 752.5 c 128,-1,20
 263 731 263 731 263 690 c 0,21,22
 263 650 263 650 238.5 629 c 128,-1,23
 214 608 214 608 177 608 c 256,12,13
EndSplineSet
EndChar

StartChar: copyright
Encoding: 169 169 107
Width: 600
Flags: W
LayerCount: 2
Fore
SplineSet
301 80 m 0,0,1
 218 80 218 80 154.5 116.5 c 128,-1,2
 91 153 91 153 55.5 216.5 c 128,-1,3
 20 280 20 280 20 361 c 0,4,5
 20 448 20 448 59 510.5 c 128,-1,6
 98 573 98 573 162 606.5 c 128,-1,7
 226 640 226 640 301 640 c 0,8,9
 378 640 378 640 441.5 605 c 128,-1,10
 505 570 505 570 542.5 507 c 128,-1,11
 580 444 580 444 580 361 c 0,12,13
 580 274 580 274 541.5 211 c 128,-1,14
 503 148 503 148 439.5 114 c 128,-1,15
 376 80 376 80 301 80 c 0,0,1
301 151 m 0,16,17
 358 151 358 151 403.5 177 c 128,-1,18
 449 203 449 203 475 250.5 c 128,-1,19
 501 298 501 298 501 361 c 0,20,21
 501 426 501 426 473.5 473 c 128,-1,22
 446 520 446 520 401 544.5 c 128,-1,23
 356 569 356 569 301 569 c 0,24,25
 242 569 242 569 196.5 543 c 128,-1,26
 151 517 151 517 125 470.5 c 128,-1,27
 99 424 99 424 99 361 c 0,28,29
 99 293 99 293 126.5 246 c 128,-1,30
 154 199 154 199 200 175 c 128,-1,31
 246 151 246 151 301 151 c 0,16,17
301 189 m 0,32,33
 226 189 226 189 184.5 234 c 128,-1,34
 143 279 143 279 143 362 c 0,35,36
 143 441 143 441 183.5 485.5 c 128,-1,37
 224 530 224 530 298 530 c 0,38,39
 356 530 356 530 412 503 c 1,40,-1
 381 431 l 1,41,42
 344 449 344 449 304 449 c 0,43,44
 273 449 273 449 253 426.5 c 128,-1,45
 233 404 233 404 233 361 c 0,46,47
 233 314 233 314 252.5 292 c 128,-1,48
 272 270 272 270 307 270 c 0,49,50
 330 270 330 270 352 276.5 c 128,-1,51
 374 283 374 283 397 294 c 1,52,-1
 397 212 l 1,53,54
 352 189 352 189 301 189 c 0,32,33
EndSplineSet
EndChar

StartChar: ordfeminine
Encoding: 170 170 108
Width: 600
Flags: W
LayerCount: 2
Fore
SplineSet
252 360 m 0,0,1
 201 360 201 360 168.5 388 c 128,-1,2
 136 416 136 416 136 472 c 0,3,4
 136 536 136 536 180 559.5 c 128,-1,5
 224 583 224 583 305 587 c 2,6,-1
 350 589 l 1,7,-1
 350 594 l 2,8,9
 350 636 350 636 294 636 c 0,10,11
 270 636 270 636 246 628.5 c 128,-1,12
 222 621 222 621 191 607 c 1,13,-1
 156 683 l 1,14,15
 189 699 189 699 227.5 710.5 c 128,-1,16
 266 722 266 722 312 722 c 0,17,18
 388 722 388 722 425.5 686.5 c 128,-1,19
 463 651 463 651 463 584 c 2,20,-1
 463 366 l 1,21,-1
 389 366 l 1,22,-1
 370 425 l 1,23,24
 348 394 348 394 320 377 c 128,-1,25
 292 360 292 360 252 360 c 0,0,1
287 443 m 0,26,27
 316 443 316 443 333 463.5 c 128,-1,28
 350 484 350 484 350 512 c 2,29,-1
 350 525 l 1,30,-1
 306 522 l 2,31,32
 271 520 271 520 260.5 506.5 c 128,-1,33
 250 493 250 493 250 478 c 0,34,35
 250 443 250 443 287 443 c 0,26,27
EndSplineSet
EndChar

StartChar: guillemotleft
Encoding: 171 171 109
Width: 600
Flags: W
LayerCount: 2
Fore
SplineSet
447 41 m 1,0,-1
 275 274 l 1,1,-1
 275 287 l 1,2,-1
 447 521 l 1,3,-1
 570 454 l 1,4,-1
 453 281 l 1,5,-1
 570 108 l 1,6,-1
 447 41 l 1,0,-1
203 41 m 1,7,-1
 30 274 l 1,8,-1
 30 287 l 1,9,-1
 203 521 l 1,10,-1
 325 454 l 1,11,-1
 208 281 l 1,12,-1
 325 108 l 1,13,-1
 203 41 l 1,7,-1
EndSplineSet
EndChar

StartChar: logicalnot
Encoding: 172 172 110
Width: 600
Flags: W
LayerCount: 2
Fore
SplineSet
392 116 m 1,0,-1
 392 287 l 1,1,-1
 65 287 l 1,2,-1
 65 418 l 1,3,-1
 525 418 l 1,4,-1
 525 116 l 1,5,-1
 392 116 l 1,0,-1
EndSplineSet
EndChar

StartChar: registered
Encoding: 174 174 112
Width: 600
Flags: W
LayerCount: 2
Fore
SplineSet
296 74 m 0,0,1
 214 74 214 74 152 111.5 c 128,-1,2
 90 149 90 149 54.5 213.5 c 128,-1,3
 19 278 19 278 19 359 c 0,4,5
 19 446 19 446 58 509 c 128,-1,6
 97 572 97 572 161.5 606 c 128,-1,7
 226 640 226 640 300 640 c 0,8,9
 376 640 376 640 440 605 c 128,-1,10
 504 570 504 570 542 506 c 128,-1,11
 580 442 580 442 580 357 c 0,12,13
 580 270 580 270 541 206.5 c 128,-1,14
 502 143 502 143 437.5 108.5 c 128,-1,15
 373 74 373 74 296 74 c 0,0,1
299 148 m 0,16,17
 358 148 358 148 403 174 c 128,-1,18
 448 200 448 200 474 247.5 c 128,-1,19
 500 295 500 295 500 359 c 0,20,21
 500 424 500 424 472.5 470.5 c 128,-1,22
 445 517 445 517 399 542 c 128,-1,23
 353 567 353 567 298 567 c 0,24,25
 240 567 240 567 195 540.5 c 128,-1,26
 150 514 150 514 124 467 c 128,-1,27
 98 420 98 420 98 357 c 0,28,29
 98 290 98 290 125 243.5 c 128,-1,30
 152 197 152 197 198 172.5 c 128,-1,31
 244 148 244 148 299 148 c 0,16,17
187 209 m 1,32,-1
 187 513 l 1,33,-1
 288 513 l 2,34,35
 410 513 410 513 410 417 c 0,36,37
 410 388 410 388 398.5 365.5 c 128,-1,38
 387 343 387 343 359 330 c 1,39,-1
 428 209 l 1,40,-1
 344 209 l 1,41,-1
 291 315 l 1,42,-1
 265 315 l 1,43,-1
 265 209 l 1,44,-1
 187 209 l 1,32,-1
265 376 m 1,45,-1
 281 376 l 2,46,47
 304 376 304 376 317.5 385 c 128,-1,48
 331 394 331 394 331 414 c 256,49,50
 331 434 331 434 319.5 441.5 c 128,-1,51
 308 449 308 449 281 449 c 2,52,-1
 265 449 l 1,53,-1
 265 376 l 1,45,-1
EndSplineSet
EndChar

StartChar: overscore
Encoding: 175 175 113
Width: 600
Flags: W
LayerCount: 2
Fore
SplineSet
137 624 m 1,0,-1
 137 739 l 1,1,-1
 463 739 l 1,2,-1
 463 624 l 1,3,-1
 137 624 l 1,0,-1
EndSplineSet
EndChar

StartChar: degree
Encoding: 176 176 114
Width: 600
Flags: W
LayerCount: 2
Fore
SplineSet
300 389 m 0,0,1
 252 389 252 389 213.5 410.5 c 128,-1,2
 175 432 175 432 153 470 c 128,-1,3
 131 508 131 508 131 557 c 256,4,5
 131 606 131 606 154 643.5 c 128,-1,6
 177 681 177 681 215.5 702.5 c 128,-1,7
 254 724 254 724 300 724 c 0,8,9
 347 724 347 724 385.5 702.5 c 128,-1,10
 424 681 424 681 447 643.5 c 128,-1,11
 470 606 470 606 470 557 c 256,12,13
 470 508 470 508 447 470 c 128,-1,14
 424 432 424 432 385.5 410.5 c 128,-1,15
 347 389 347 389 300 389 c 0,0,1
300 494 m 0,16,17
 330 494 330 494 347 513 c 128,-1,18
 364 532 364 532 364 557 c 0,19,20
 364 587 364 587 345 603.5 c 128,-1,21
 326 620 326 620 300 620 c 256,22,23
 274 620 274 620 255.5 603.5 c 128,-1,24
 237 587 237 587 237 557 c 0,25,26
 237 528 237 528 255.5 511 c 128,-1,27
 274 494 274 494 300 494 c 0,16,17
EndSplineSet
EndChar

StartChar: plusminus
Encoding: 177 177 115
Width: 600
Flags: W
LayerCount: 2
Fore
SplineSet
234 163 m 1,0,-1
 234 339 l 1,1,-1
 70 339 l 1,2,-1
 70 470 l 1,3,-1
 234 470 l 1,4,-1
 234 649 l 1,5,-1
 367 649 l 1,6,-1
 367 470 l 1,7,-1
 530 470 l 1,8,-1
 530 339 l 1,9,-1
 367 339 l 1,10,-1
 367 163 l 1,11,-1
 234 163 l 1,0,-1
70 0 m 1,12,-1
 70 131 l 1,13,-1
 530 131 l 1,14,-1
 530 0 l 1,15,-1
 70 0 l 1,12,-1
EndSplineSet
EndChar

StartChar: uni00B2
Encoding: 178 178 116
Width: 600
Flags: W
LayerCount: 2
Fore
SplineSet
153 416 m 1,0,-1
 153 517 l 1,1,-1
 252 621 l 2,2,3
 291 662 291 662 304.5 681 c 128,-1,4
 318 700 318 700 318 719 c 0,5,6
 318 752 318 752 280 752 c 0,7,8
 244 752 244 752 206 711 c 1,9,-1
 145 789 l 1,10,11
 170 818 170 818 211.5 837.5 c 128,-1,12
 253 857 253 857 307 857 c 0,13,14
 376 857 376 857 410 823 c 128,-1,15
 444 789 444 789 444 735 c 0,16,17
 444 699 444 699 429 668.5 c 128,-1,18
 414 638 414 638 385.5 607 c 128,-1,19
 357 576 357 576 315 536 c 2,20,-1
 299 521 l 1,21,-1
 465 521 l 1,22,-1
 465 416 l 1,23,-1
 153 416 l 1,0,-1
EndSplineSet
EndChar

StartChar: uni00B3
Encoding: 179 179 117
Width: 600
Flags: W
LayerCount: 2
Fore
SplineSet
290 408 m 0,0,1
 203 408 203 408 150 442 c 1,2,-1
 150 554 l 1,3,4
 177 532 177 532 211.5 521.5 c 128,-1,5
 246 511 246 511 278 511 c 0,6,7
 308 511 308 511 322.5 520 c 128,-1,8
 337 529 337 529 337 551 c 0,9,10
 337 566 337 566 325 576 c 128,-1,11
 313 586 313 586 276 586 c 2,12,-1
 229 586 l 1,13,-1
 229 678 l 1,14,-1
 265 678 l 2,15,16
 301 678 301 678 315 688.5 c 128,-1,17
 329 699 329 699 329 717 c 0,18,19
 329 733 329 733 319.5 744 c 128,-1,20
 310 755 310 755 287 755 c 256,21,22
 264 755 264 755 242.5 746 c 128,-1,23
 221 737 221 737 198 717 c 1,24,-1
 145 796 l 1,25,26
 176 822 176 822 215 837.5 c 128,-1,27
 254 853 254 853 301 853 c 0,28,29
 366 853 366 853 404 825 c 128,-1,30
 442 797 442 797 442 748 c 0,31,32
 442 672 442 672 375 641 c 1,33,-1
 375 637 l 1,34,35
 455 613 455 613 455 532 c 0,36,37
 455 473 455 473 409.5 440.5 c 128,-1,38
 364 408 364 408 290 408 c 0,0,1
EndSplineSet
EndChar

StartChar: acute
Encoding: 180 180 118
Width: 600
Flags: W
LayerCount: 2
Fore
SplineSet
200 606 m 1,0,-1
 200 620 l 1,1,2
 225 654 225 654 254 693.5 c 128,-1,3
 283 733 283 733 303 766 c 1,4,-1
 499 766 l 1,5,-1
 499 756 l 1,6,7
 480 738 480 738 448.5 710.5 c 128,-1,8
 417 683 417 683 383 654.5 c 128,-1,9
 349 626 349 626 323 606 c 1,10,-1
 200 606 l 1,0,-1
EndSplineSet
EndChar

StartChar: uni00B5
Encoding: 181 181 119
Width: 600
GlyphClass: 2
Flags: W
AnchorPoint: "Anchor-4" 580 553 basechar 0
AnchorPoint: "Anchor-3" 300 553 basechar 0
AnchorPoint: "Anchor-2" 540 10 basechar 0
AnchorPoint: "Anchor-0" 300 0 basechar 0
LayerCount: 2
Fore
SplineSet
226 -11 m 0,0,1
 220 -11 220 -11 215 -11 c 1,2,-1
 215 -240 l 1,3,-1
 40 -240 l 1,4,-1
 40 553 l 1,5,-1
 215 553 l 1,6,-1
 215 247 l 2,7,8
 215 189 215 189 232.5 159.5 c 128,-1,9
 250 130 250 130 294 130 c 0,10,11
 331 130 331 130 349.5 149.5 c 128,-1,12
 368 169 368 169 374 202.5 c 128,-1,13
 380 236 380 236 380 276 c 2,14,-1
 380 553 l 1,15,-1
 555 553 l 1,16,-1
 555 0 l 1,17,-1
 425 0 l 1,18,-1
 402 69 l 1,19,-1
 392 69 l 1,20,21
 366 30 366 30 326 9.5 c 128,-1,22
 286 -11 286 -11 226 -11 c 0,0,1
EndSplineSet
EndChar

StartChar: paragraph
Encoding: 182 182 120
Width: 600
Flags: W
LayerCount: 2
Fore
SplineSet
316 -127 m 1,0,-1
 316 273 l 1,1,2
 303 268 303 268 291 266 c 128,-1,3
 279 264 279 264 262 264 c 0,4,5
 150 264 150 264 90 321.5 c 128,-1,6
 30 379 30 379 30 509 c 0,7,8
 30 643 30 643 93 701.5 c 128,-1,9
 156 760 156 760 275 760 c 2,10,-1
 560 760 l 1,11,-1
 560 -127 l 1,12,-1
 472 -127 l 1,13,-1
 472 665 l 1,14,-1
 404 665 l 1,15,-1
 404 -127 l 1,16,-1
 316 -127 l 1,0,-1
EndSplineSet
EndChar

StartChar: cedilla
Encoding: 184 184 122
Width: 600
Flags: W
LayerCount: 2
Fore
SplineSet
276 -240 m 0,0,1
 254 -240 254 -240 229 -236.5 c 128,-1,2
 204 -233 204 -233 185 -227 c 1,3,-1
 185 -135 l 1,4,5
 202 -140 202 -140 216.5 -142.5 c 128,-1,6
 231 -145 231 -145 244 -145 c 0,7,8
 284 -145 284 -145 284 -117 c 0,9,10
 284 -84 284 -84 215 -76 c 1,11,-1
 247 5 l 1,12,-1
 333 5 l 1,13,-1
 321 -32 l 1,14,15
 363 -40 363 -40 388.5 -62 c 128,-1,16
 414 -84 414 -84 414 -128 c 0,17,18
 414 -178 414 -178 379 -209 c 128,-1,19
 344 -240 344 -240 276 -240 c 0,0,1
EndSplineSet
EndChar

StartChar: uni00B9
Encoding: 185 185 123
Width: 600
Flags: W
LayerCount: 2
Fore
SplineSet
164 416 m 1,0,-1
 164 506 l 1,1,-1
 265 515 l 1,2,-1
 265 595 l 2,3,4
 265 617 265 617 266 650 c 128,-1,5
 267 683 267 683 269 709 c 1,6,7
 260 702 260 702 251 696.5 c 128,-1,8
 242 691 242 691 236 687 c 2,9,-1
 190 658 l 1,10,-1
 135 752 l 1,11,-1
 292 844 l 1,12,-1
 383 844 l 1,13,-1
 383 515 l 1,14,-1
 475 506 l 1,15,-1
 475 416 l 1,16,-1
 164 416 l 1,0,-1
EndSplineSet
EndChar

StartChar: ordmasculine
Encoding: 186 186 124
Width: 600
Flags: W
LayerCount: 2
Fore
SplineSet
298 360 m 0,0,1
 224 360 224 360 177 408 c 128,-1,2
 130 456 130 456 130 541 c 0,3,4
 130 628 130 628 175.5 675 c 128,-1,5
 221 722 221 722 300 722 c 0,6,7
 348 722 348 722 386.5 700.5 c 128,-1,8
 425 679 425 679 447.5 638.5 c 128,-1,9
 470 598 470 598 470 541 c 0,10,11
 470 455 470 455 423.5 407.5 c 128,-1,12
 377 360 377 360 298 360 c 0,0,1
299 452 m 0,13,14
 354 452 354 452 354 541 c 0,15,16
 354 631 354 631 299 631 c 0,17,18
 243 631 243 631 243 541 c 0,19,20
 243 452 243 452 299 452 c 0,13,14
EndSplineSet
EndChar

StartChar: AE
Encoding: 198 198 136
Width: 600
GlyphClass: 2
Flags: W
AnchorPoint: "Anchor-3" 332 714 basechar 0
AnchorPoint: "Anchor-0" 300 0 basechar 0
LayerCount: 2
Fore
SplineSet
5 0 m 1,0,-1
 170 714 l 1,1,-1
 590 714 l 1,2,-1
 590 564 l 1,3,-1
 478 564 l 1,4,-1
 478 444 l 1,5,-1
 573 444 l 1,6,-1
 573 294 l 1,7,-1
 478 294 l 1,8,-1
 478 150 l 1,9,-1
 590 150 l 1,10,-1
 590 0 l 1,11,-1
 311 0 l 1,12,-1
 311 151 l 1,13,-1
 207 151 l 1,14,-1
 177 0 l 1,15,-1
 5 0 l 1,0,-1
289 564 m 1,16,-1
 237 300 l 1,17,-1
 311 300 l 1,18,-1
 311 564 l 1,19,-1
 289 564 l 1,16,-1
EndSplineSet
Substitution2: "'c2sc' Capitals to Small Capitals lookup 32 subtable" ae.sc
Substitution2: "'aalt' Access All Alternates lookup 0 subtable" ae.sc
EndChar

StartChar: Eth
Encoding: 208 208 146
Width: 600
GlyphClass: 2
Flags: W
AnchorPoint: "Anchor-4" 600 714 basechar 0
AnchorPoint: "Anchor-3" 300 714 basechar 0
AnchorPoint: "Anchor-1" 310 357 basechar 0
AnchorPoint: "Anchor-0" 300 0 basechar 0
LayerCount: 2
Fore
SplineSet
40 0 m 1,0,-1
 40 281 l 1,1,-1
 0 281 l 1,2,-1
 0 425 l 1,3,-1
 40 425 l 1,4,-1
 40 714 l 1,5,-1
 256 714 l 2,6,7
 410 714 410 714 495 626 c 128,-1,8
 580 538 580 538 580 372 c 0,9,10
 580 250 580 250 538.5 167.5 c 128,-1,11
 497 85 497 85 421.5 42.5 c 128,-1,12
 346 0 346 0 242 0 c 2,13,-1
 40 0 l 1,0,-1
206 145 m 1,14,-1
 244 145 l 2,15,16
 325 145 325 145 364 201 c 128,-1,17
 403 257 403 257 403 365 c 0,18,19
 403 569 403 569 255 569 c 2,20,-1
 206 569 l 1,21,-1
 206 425 l 1,22,-1
 296 425 l 1,23,-1
 296 281 l 1,24,-1
 206 281 l 1,25,-1
 206 145 l 1,14,-1
EndSplineSet
Substitution2: "'c2sc' Capitals to Small Capitals lookup 32 subtable" eth.sc
Substitution2: "'aalt' Access All Alternates lookup 0 subtable" eth.sc
EndChar

StartChar: multiply
Encoding: 215 215 153
Width: 600
Flags: W
LayerCount: 2
Fore
SplineSet
166 130 m 1,0,-1
 76 224 l 1,1,-1
 203 353 l 1,2,-1
 75 482 l 1,3,-1
 166 577 l 1,4,-1
 297 448 l 1,5,-1
 429 577 l 1,6,-1
 524 485 l 1,7,-1
 391 353 l 1,8,-1
 521 222 l 1,9,-1
 429 130 l 1,10,-1
 297 260 l 1,11,-1
 166 130 l 1,0,-1
EndSplineSet
EndChar

StartChar: Oslash
Encoding: 216 216 154
Width: 600
GlyphClass: 2
Flags: W
AnchorPoint: "Anchor-4" 600 714 basechar 0
AnchorPoint: "Anchor-3" 300 714 basechar 0
AnchorPoint: "Anchor-2" 295 10 basechar 0
AnchorPoint: "Anchor-1" 300 357 basechar 0
AnchorPoint: "Anchor-0" 300 0 basechar 0
LayerCount: 2
Fore
SplineSet
96 -47 m 1,0,-1
 1 17 l 1,1,-1
 68 117 l 1,2,3
 20 206 20 206 20 358 c 0,4,5
 20 537 20 537 89 631 c 128,-1,6
 158 725 158 725 300 725 c 0,7,8
 390 725 390 725 451 686 c 1,9,-1
 500 759 l 1,10,-1
 594 697 l 1,11,-1
 530 601 l 1,12,13
 555 556 555 556 567.5 494.5 c 128,-1,14
 580 433 580 433 580 357 c 0,15,16
 580 182 580 182 513 86 c 128,-1,17
 446 -10 446 -10 300 -10 c 0,18,19
 209 -10 209 -10 147 29 c 1,20,-1
 96 -47 l 1,0,-1
199 358 m 0,21,22
 199 333 199 333 200 313 c 1,23,-1
 360 551 l 1,24,25
 338 574 338 574 300 574 c 0,26,27
 244 574 244 574 221.5 524 c 128,-1,28
 199 474 199 474 199 358 c 0,21,22
300 140 m 0,29,30
 357 140 357 140 379 192.5 c 128,-1,31
 401 245 401 245 401 360 c 0,32,33
 401 386 401 386 400 407 c 1,34,-1
 238 165 l 1,35,36
 260 140 260 140 300 140 c 0,29,30
EndSplineSet
Substitution2: "'c2sc' Capitals to Small Capitals lookup 32 subtable" oslash.sc
Substitution2: "'aalt' Access All Alternates lookup 0 subtable" oslash.sc
EndChar

StartChar: Thorn
Encoding: 222 222 160
Width: 600
GlyphClass: 2
Flags: W
AnchorPoint: "Anchor-3" 300 714 basechar 0
AnchorPoint: "Anchor-0" 300 0 basechar 0
LayerCount: 2
Fore
SplineSet
60 0 m 1,0,-1
 60 714 l 1,1,-1
 225 714 l 1,2,-1
 225 594 l 1,3,-1
 324 594 l 2,4,5
 447 594 447 594 508.5 535 c 128,-1,6
 570 476 570 476 570 366 c 0,7,8
 570 298 570 298 545 241.5 c 128,-1,9
 520 185 520 185 465 151 c 128,-1,10
 410 117 410 117 319 117 c 2,11,-1
 225 117 l 1,12,-1
 225 0 l 1,13,-1
 60 0 l 1,0,-1
225 262 m 1,14,-1
 299 262 l 2,15,16
 344 262 344 262 369.5 288 c 128,-1,17
 395 314 395 314 395 364 c 0,18,19
 395 402 395 402 373.5 425.5 c 128,-1,20
 352 449 352 449 302 449 c 2,21,-1
 225 449 l 1,22,-1
 225 262 l 1,14,-1
EndSplineSet
Substitution2: "'c2sc' Capitals to Small Capitals lookup 32 subtable" thorn.sc
Substitution2: "'aalt' Access All Alternates lookup 0 subtable" thorn.sc
EndChar

StartChar: germandbls
Encoding: 223 223 161
Width: 600
GlyphClass: 2
Flags: W
AnchorPoint: "Anchor-3" 300 765 basechar 0
AnchorPoint: "Anchor-0" 300 0 basechar 0
LayerCount: 2
Fore
SplineSet
396 -10 m 0,0,1
 364 -10 364 -10 324 -4 c 128,-1,2
 284 2 284 2 252 19 c 1,3,-1
 252 165 l 1,4,5
 277 148 277 148 311 137 c 128,-1,6
 345 126 345 126 373 126 c 0,7,8
 396 126 396 126 411 135.5 c 128,-1,9
 426 145 426 145 426 167 c 0,10,11
 426 178 426 178 420 185.5 c 128,-1,12
 414 193 414 193 397 204.5 c 128,-1,13
 380 216 380 216 348 238 c 0,14,15
 305 266 305 266 279 295.5 c 128,-1,16
 253 325 253 325 253 371 c 0,17,18
 253 403 253 403 265 425.5 c 128,-1,19
 277 448 277 448 294.5 464.5 c 128,-1,20
 312 481 312 481 329.5 495.5 c 128,-1,21
 347 510 347 510 359 525.5 c 128,-1,22
 371 541 371 541 371 563 c 0,23,24
 371 591 371 591 349.5 606 c 128,-1,25
 328 621 328 621 291 621 c 0,26,27
 242 621 242 621 224 594 c 128,-1,28
 206 567 206 567 206 517 c 2,29,-1
 206 0 l 1,30,-1
 45 0 l 1,31,-1
 45 537 l 2,32,33
 45 645 45 645 113 705 c 128,-1,34
 181 765 181 765 299 765 c 0,35,36
 368 765 368 765 421.5 744 c 128,-1,37
 475 723 475 723 506 682.5 c 128,-1,38
 537 642 537 642 537 584 c 0,39,40
 537 538 537 538 520 508 c 128,-1,41
 503 478 503 478 480 458.5 c 128,-1,42
 457 439 457 439 440 424.5 c 128,-1,43
 423 410 423 410 423 395 c 0,44,45
 423 378 423 378 444.5 363 c 128,-1,46
 466 348 466 348 499 326 c 0,47,48
 546 294 546 294 570.5 259.5 c 128,-1,49
 595 225 595 225 595 163 c 0,50,51
 595 79 595 79 546.5 34.5 c 128,-1,52
 498 -10 498 -10 396 -10 c 0,0,1
EndSplineSet
Substitution2: "'smcp' Lowercase to Small Capitals lookup 33 subtable" germandbls.sc
Substitution2: "'aalt' Access All Alternates lookup 0 subtable" germandbls.sc
EndChar

StartChar: ae
Encoding: 230 230 168
Width: 600
GlyphClass: 2
Flags: W
AnchorPoint: "Anchor-3" 300 553 basechar 0
AnchorPoint: "Anchor-0" 300 0 basechar 0
LayerCount: 2
Fore
SplineSet
161 -10 m 0,0,1
 88 -10 88 -10 46.5 34.5 c 128,-1,2
 5 79 5 79 5 156 c 0,3,4
 5 218 5 218 28 257 c 128,-1,5
 51 296 51 296 90.5 315 c 128,-1,6
 130 334 130 334 177 336 c 2,7,-1
 237 339 l 1,8,-1
 237 363 l 2,9,10
 237 399 237 399 220.5 412 c 128,-1,11
 204 425 204 425 173 425 c 0,12,13
 150 425 150 425 129.5 419.5 c 128,-1,14
 109 414 109 414 91 407 c 1,15,-1
 37 525 l 1,16,17
 75 545 75 545 111.5 553.5 c 128,-1,18
 148 562 148 562 188 562 c 256,19,20
 228 562 228 562 258.5 553.5 c 128,-1,21
 289 545 289 545 315 527 c 1,22,23
 344 546 344 546 368.5 554 c 128,-1,24
 393 562 393 562 423 562 c 0,25,26
 492 562 492 562 529 527 c 128,-1,27
 566 492 566 492 580.5 433.5 c 128,-1,28
 595 375 595 375 595 306 c 2,29,-1
 595 232 l 1,30,-1
 381 232 l 1,31,32
 382 180 382 180 406.5 152 c 128,-1,33
 431 124 431 124 481 124 c 0,34,35
 505 124 505 124 526 131.5 c 128,-1,36
 547 139 547 139 567 156 c 1,37,-1
 567 29 l 1,38,39
 548 10 548 10 513 0 c 128,-1,40
 478 -10 478 -10 441 -10 c 0,41,42
 388 -10 388 -10 355.5 10 c 128,-1,43
 323 30 323 30 296 65 c 1,44,45
 270 29 270 29 240.5 9.5 c 128,-1,46
 211 -10 211 -10 161 -10 c 0,0,1
379 335 m 1,47,-1
 461 335 l 1,48,49
 460 379 460 379 451 401.5 c 128,-1,50
 442 424 442 424 420 424 c 0,51,52
 395 424 395 424 387.5 399.5 c 128,-1,53
 380 375 380 375 379 335 c 1,47,-1
196 118 m 0,54,55
 224 118 224 118 231 142.5 c 128,-1,56
 238 167 238 167 238 203 c 2,57,-1
 238 246 l 1,58,-1
 216 246 l 2,59,60
 189 246 189 246 173 223 c 128,-1,61
 157 200 157 200 157 169 c 0,62,63
 157 118 157 118 196 118 c 0,54,55
EndSplineSet
Substitution2: "'smcp' Lowercase to Small Capitals lookup 33 subtable" ae.sc
Substitution2: "'aalt' Access All Alternates lookup 0 subtable" ae.sc
EndChar

StartChar: eth
Encoding: 240 240 178
Width: 600
GlyphClass: 2
Flags: W
AnchorPoint: "Anchor-4" 580 760 basechar 0
AnchorPoint: "Anchor-3" 300 767 basechar 0
AnchorPoint: "Anchor-1" 300 277 basechar 0
AnchorPoint: "Anchor-0" 300 0 basechar 0
LayerCount: 2
Fore
SplineSet
298 -10 m 0,0,1
 221 -10 221 -10 160.5 19 c 128,-1,2
 100 48 100 48 65 105 c 128,-1,3
 30 162 30 162 30 246 c 0,4,5
 30 324 30 324 61 379 c 128,-1,6
 92 434 92 434 145.5 463 c 128,-1,7
 199 492 199 492 268 492 c 0,8,9
 354 492 354 492 379 448 c 1,10,-1
 383 450 l 1,11,12
 356 506 356 506 303 563 c 1,13,-1
 206 502 l 1,14,-1
 152 586 l 1,15,-1
 227 633 l 1,16,17
 191 660 191 660 155 679 c 1,18,-1
 206 767 l 1,19,20
 276 739 276 739 335 701 c 1,21,-1
 440 767 l 1,22,-1
 493 683 l 1,23,-1
 418 635 l 1,24,25
 493 564 493 564 531.5 474 c 128,-1,26
 570 384 570 384 570 284 c 0,27,28
 570 145 570 145 498 67.5 c 128,-1,29
 426 -10 426 -10 298 -10 c 0,0,1
302 116 m 256,30,31
 352 116 352 116 372 150 c 128,-1,32
 392 184 392 184 392 239 c 0,33,34
 392 297 392 297 371 331 c 128,-1,35
 350 365 350 365 298 365 c 0,36,37
 250 365 250 365 229.5 334 c 128,-1,38
 209 303 209 303 209 245 c 0,39,40
 209 186 209 186 230.5 151 c 128,-1,41
 252 116 252 116 302 116 c 256,30,31
EndSplineSet
Substitution2: "'smcp' Lowercase to Small Capitals lookup 33 subtable" eth.sc
Substitution2: "'aalt' Access All Alternates lookup 0 subtable" eth.sc
EndChar

StartChar: divide
Encoding: 247 247 185
Width: 600
Flags: W
LayerCount: 2
Fore
SplineSet
301 462 m 0,0,1
 267 462 267 462 245 483 c 128,-1,2
 223 504 223 504 223 547 c 256,3,4
 223 590 223 590 244.5 610.5 c 128,-1,5
 266 631 266 631 301 631 c 0,6,7
 335 631 335 631 356.5 610.5 c 128,-1,8
 378 590 378 590 378 547 c 0,9,10
 378 505 378 505 356 483.5 c 128,-1,11
 334 462 334 462 301 462 c 0,0,1
60 287 m 1,12,-1
 60 418 l 1,13,-1
 540 418 l 1,14,-1
 540 287 l 1,15,-1
 60 287 l 1,12,-1
301 74 m 0,16,17
 267 74 267 74 245 95 c 128,-1,18
 223 116 223 116 223 159 c 256,19,20
 223 202 223 202 244.5 222.5 c 128,-1,21
 266 243 266 243 301 243 c 0,22,23
 335 243 335 243 356.5 222.5 c 128,-1,24
 378 202 378 202 378 159 c 0,25,26
 378 117 378 117 356 95.5 c 128,-1,27
 334 74 334 74 301 74 c 0,16,17
EndSplineSet
EndChar

StartChar: oslash
Encoding: 248 248 186
Width: 600
GlyphClass: 2
Flags: W
AnchorPoint: "Anchor-4" 580 553 basechar 0
AnchorPoint: "Anchor-3" 300 553 basechar 0
AnchorPoint: "Anchor-2" 301 10 basechar 0
AnchorPoint: "Anchor-1" 300 277 basechar 0
AnchorPoint: "Anchor-0" 300 0 basechar 0
LayerCount: 2
Fore
SplineSet
147 -42 m 1,0,-1
 68 9 l 1,1,-1
 105 65 l 1,2,3
 68 104 68 104 49 159 c 128,-1,4
 30 214 30 214 30 281 c 0,5,6
 30 363 30 363 59 426.5 c 128,-1,7
 88 490 88 490 146.5 526.5 c 128,-1,8
 205 563 205 563 294 563 c 0,9,10
 361 563 361 563 415 541 c 1,11,-1
 450 595 l 1,12,-1
 529 543 l 1,13,-1
 493 488 l 1,14,15
 570 409 570 409 570 269 c 0,16,17
 570 186 570 186 541 123 c 128,-1,18
 512 60 512 60 453 25 c 128,-1,19
 394 -10 394 -10 305 -10 c 0,20,21
 236 -10 236 -10 183 12 c 1,22,-1
 147 -42 l 1,0,-1
200 275 m 0,23,24
 200 244 200 244 205 219 c 1,25,-1
 334 417 l 1,26,27
 318 422 318 422 300 422 c 0,28,29
 246 422 246 422 223 379.5 c 128,-1,30
 200 337 200 337 200 275 c 0,23,24
300 130 m 0,31,32
 353 130 353 130 377 170 c 128,-1,33
 401 210 401 210 401 275 c 0,34,35
 401 310 401 310 395 337 c 1,36,-1
 264 136 l 1,37,38
 280 130 280 130 300 130 c 0,31,32
EndSplineSet
Substitution2: "'smcp' Lowercase to Small Capitals lookup 33 subtable" oslash.sc
Substitution2: "'aalt' Access All Alternates lookup 0 subtable" oslash.sc
EndChar

StartChar: thorn
Encoding: 254 254 192
Width: 600
GlyphClass: 2
Flags: W
AnchorPoint: "Anchor-3" 330 760 basechar 0
AnchorPoint: "Anchor-0" 330 -240 basechar 0
LayerCount: 2
Fore
SplineSet
45 -240 m 1,0,-1
 45 760 l 1,1,-1
 218 760 l 1,2,-1
 218 622 l 2,3,4
 218 586 218 586 216 555 c 128,-1,5
 214 524 214 524 209 481 c 1,6,-1
 217 481 l 1,7,8
 245 525 245 525 285.5 544 c 128,-1,9
 326 563 326 563 371 563 c 0,10,11
 427 563 427 563 465.5 539.5 c 128,-1,12
 504 516 504 516 527 476 c 128,-1,13
 550 436 550 436 560 386 c 128,-1,14
 570 336 570 336 570 283 c 0,15,16
 570 196 570 196 546 130 c 128,-1,17
 522 64 522 64 475.5 27 c 128,-1,18
 429 -10 429 -10 362 -10 c 0,19,20
 324 -10 324 -10 286 4.5 c 128,-1,21
 248 19 248 19 217 56 c 1,22,-1
 208 56 l 1,23,24
 210 43 210 43 213.5 14.5 c 128,-1,25
 217 -14 217 -14 217 -33 c 2,26,-1
 217 -240 l 1,27,-1
 45 -240 l 1,0,-1
308 130 m 0,28,29
 353 130 353 130 374 168.5 c 128,-1,30
 395 207 395 207 395 279 c 0,31,32
 395 350 395 350 374.5 386 c 128,-1,33
 354 422 354 422 307 422 c 0,34,35
 264 422 264 422 240.5 390 c 128,-1,36
 217 358 217 358 217 292 c 2,37,-1
 217 278 l 2,38,39
 217 201 217 201 242 165.5 c 128,-1,40
 267 130 267 130 308 130 c 0,28,29
EndSplineSet
Substitution2: "'smcp' Lowercase to Small Capitals lookup 33 subtable" thorn.sc
Substitution2: "'aalt' Access All Alternates lookup 0 subtable" thorn.sc
EndChar

StartChar: dcaron
Encoding: 271 271 209
Width: 600
GlyphClass: 2
Flags: W
AnchorPoint: "Anchor-4" 548 760 basechar 0
AnchorPoint: "Anchor-3" 286 760 basechar 0
AnchorPoint: "Anchor-1" 268 277 basechar 0
AnchorPoint: "Anchor-0" 268 0 basechar 0
LayerCount: 2
Fore
SplineSet
203 -10 m 0,0,1
 153 -10 153 -10 118 13.5 c 128,-1,2
 83 37 83 37 61.5 77.5 c 128,-1,3
 40 118 40 118 30 169 c 128,-1,4
 20 220 20 220 20 274 c 0,5,6
 20 352 20 352 40 418 c 128,-1,7
 60 484 60 484 102 523.5 c 128,-1,8
 144 563 144 563 212 563 c 0,9,10
 254 563 254 563 288 544 c 128,-1,11
 322 525 322 525 352 480 c 1,12,-1
 356 480 l 1,13,14
 350 512 350 512 347.5 533 c 128,-1,15
 345 554 345 554 344 570.5 c 128,-1,16
 343 587 343 587 343 606 c 2,17,-1
 343 760 l 1,18,-1
 515 760 l 1,19,-1
 515 0 l 1,20,-1
 385 0 l 1,21,-1
 351 70 l 1,22,-1
 343 70 l 1,23,24
 313 27 313 27 278.5 8.5 c 128,-1,25
 244 -10 244 -10 203 -10 c 0,0,1
537 600 m 1,26,-1
 537 608 l 1,27,28
 542 628 542 628 548 655 c 128,-1,29
 554 682 554 682 559 710 c 128,-1,30
 564 738 564 738 566 760 c 1,31,-1
 725 760 l 1,32,-1
 725 749 l 1,33,34
 706 714 706 714 686.5 678.5 c 128,-1,35
 667 643 667 643 640 600 c 1,36,-1
 537 600 l 1,26,-1
266 130 m 0,37,38
 314 130 314 130 336 165.5 c 128,-1,39
 358 201 358 201 358 259 c 2,40,-1
 358 273 l 2,41,42
 358 315 358 315 350.5 348.5 c 128,-1,43
 343 382 343 382 324 402 c 128,-1,44
 305 422 305 422 270 422 c 0,45,46
 225 422 225 422 207 385 c 128,-1,47
 189 348 189 348 189 272 c 0,48,49
 189 193 189 193 207.5 161.5 c 128,-1,50
 226 130 226 130 266 130 c 0,37,38
EndSplineSet
Substitution2: "'smcp' Lowercase to Small Capitals lookup 33 subtable" dcaron.sc
Substitution2: "'aalt' Access All Alternates lookup 0 subtable" dcaron.sc
EndChar

StartChar: dcroat
Encoding: 273 273 211
Width: 600
GlyphClass: 2
Flags: W
AnchorPoint: "Anchor-4" 580 760 basechar 0
AnchorPoint: "Anchor-3" 300 760 basechar 0
AnchorPoint: "Anchor-1" 300 277 basechar 0
AnchorPoint: "Anchor-0" 300 0 basechar 0
LayerCount: 2
Fore
SplineSet
226 -10 m 0,0,1
 171 -10 171 -10 133.5 13 c 128,-1,2
 96 36 96 36 73 75 c 128,-1,3
 50 114 50 114 40 163.5 c 128,-1,4
 30 213 30 213 30 266 c 0,5,6
 30 340 30 340 51 403.5 c 128,-1,7
 72 467 72 467 117 505 c 128,-1,8
 162 543 162 543 235 543 c 0,9,10
 280 543 280 543 321 524 c 128,-1,11
 362 505 362 505 392 460 c 1,12,-1
 396 460 l 1,13,14
 389 498 389 498 386.5 522 c 128,-1,15
 384 546 384 546 383 575 c 1,16,-1
 264 575 l 1,17,-1
 264 685 l 1,18,-1
 383 685 l 1,19,-1
 383 760 l 1,20,-1
 555 760 l 1,21,-1
 555 685 l 1,22,-1
 600 685 l 1,23,-1
 600 575 l 1,24,-1
 555 575 l 1,25,-1
 555 0 l 1,26,-1
 425 0 l 1,27,-1
 391 70 l 1,28,-1
 383 70 l 1,29,30
 353 27 353 27 311.5 8.5 c 128,-1,31
 270 -10 270 -10 226 -10 c 0,0,1
301 130 m 0,32,33
 355 130 355 130 376.5 163 c 128,-1,34
 398 196 398 196 398 249 c 2,35,-1
 398 263 l 2,36,37
 398 326 398 326 379.5 364 c 128,-1,38
 361 402 361 402 305 402 c 0,39,40
 257 402 257 402 231.5 366 c 128,-1,41
 206 330 206 330 206 262 c 0,42,43
 206 192 206 192 232 161 c 128,-1,44
 258 130 258 130 301 130 c 0,32,33
EndSplineSet
Substitution2: "'smcp' Lowercase to Small Capitals lookup 33 subtable" dcroat.sc
Substitution2: "'aalt' Access All Alternates lookup 0 subtable" dcroat.sc
EndChar

StartChar: eogonek
Encoding: 281 281 219
Width: 600
GlyphClass: 2
Flags: W
AnchorPoint: "Anchor-4" 580 553 basechar 0
AnchorPoint: "Anchor-3" 300 553 basechar 0
AnchorPoint: "Anchor-2" 305 10 basechar 0
AnchorPoint: "Anchor-0" 320 -240 basechar 0
LayerCount: 2
Fore
SplineSet
336 -10 m 0,0,1
 189 -10 189 -10 114.5 65 c 128,-1,2
 40 140 40 140 40 277 c 0,3,4
 40 408 40 408 107.5 485.5 c 128,-1,5
 175 563 175 563 306 563 c 0,6,7
 428 563 428 563 493.5 491.5 c 128,-1,8
 559 420 559 420 559 298 c 2,9,-1
 559 222 l 1,10,-1
 204 222 l 1,11,12
 208 172 208 172 251.5 148 c 128,-1,13
 295 124 295 124 362 124 c 0,14,15
 407 124 407 124 453 135 c 128,-1,16
 499 146 499 146 538 170 c 1,17,-1
 538 30 l 1,18,19
 489 -2 489 -2 466.5 -33 c 128,-1,20
 444 -64 444 -64 444 -93 c 0,21,22
 444 -132 444 -132 484 -132 c 0,23,24
 497 -132 497 -132 510 -129 c 128,-1,25
 523 -126 523 -126 532 -121 c 1,26,-1
 532 -226 l 1,27,28
 518 -231 518 -231 498 -235.5 c 128,-1,29
 478 -240 478 -240 453 -240 c 0,30,31
 393 -240 393 -240 357 -211 c 128,-1,32
 321 -182 321 -182 321 -126 c 0,33,34
 321 -89 321 -89 337 -60.5 c 128,-1,35
 353 -32 353 -32 380 -8 c 1,36,37
 358 -10 358 -10 336 -10 c 0,0,1
207 339 m 1,38,-1
 400 339 l 1,39,40
 399 384 399 384 373.5 410.5 c 128,-1,41
 348 437 348 437 305 437 c 0,42,43
 259 437 259 437 235 409 c 128,-1,44
 211 381 211 381 207 339 c 1,38,-1
EndSplineSet
Substitution2: "'smcp' Lowercase to Small Capitals lookup 33 subtable" eogonek.sc
Substitution2: "'locl' Localized Forms in Latin lookup 11 subtable" eogonek.loclNAV
Ligature2: "'ccmp' Glyph Composition/Decomposition lookup 6 subtable" e uni0328
AlternateSubs2: "'aalt' Access All Alternates lookup 1 subtable" eogonek.loclNAV eogonek.sc
EndChar

StartChar: Hbar
Encoding: 294 294 232
Width: 600
GlyphClass: 2
Flags: W
AnchorPoint: "Anchor-3" 300 714 basechar 0
AnchorPoint: "Anchor-1" 300 357 basechar 0
AnchorPoint: "Anchor-0" 300 0 basechar 0
LayerCount: 2
Fore
SplineSet
50 0 m 1,0,-1
 50 521 l 1,1,-1
 0 521 l 1,2,-1
 0 629 l 1,3,-1
 50 629 l 1,4,-1
 50 714 l 1,5,-1
 227 714 l 1,6,-1
 227 629 l 1,7,-1
 373 629 l 1,8,-1
 373 714 l 1,9,-1
 550 714 l 1,10,-1
 550 629 l 1,11,-1
 600 629 l 1,12,-1
 600 521 l 1,13,-1
 550 521 l 1,14,-1
 550 0 l 1,15,-1
 373 0 l 1,16,-1
 373 297 l 1,17,-1
 227 297 l 1,18,-1
 227 0 l 1,19,-1
 50 0 l 1,0,-1
227 447 m 1,20,-1
 373 447 l 1,21,-1
 373 521 l 1,22,-1
 227 521 l 1,23,-1
 227 447 l 1,20,-1
EndSplineSet
Substitution2: "'c2sc' Capitals to Small Capitals lookup 32 subtable" hbar.sc
Substitution2: "'aalt' Access All Alternates lookup 0 subtable" hbar.sc
EndChar

StartChar: hbar
Encoding: 295 295 233
Width: 600
GlyphClass: 2
Flags: W
AnchorPoint: "Anchor-3" 131 760 basechar 0
AnchorPoint: "Anchor-1" 300 277 basechar 0
AnchorPoint: "Anchor-0" 300 0 basechar 0
LayerCount: 2
Fore
SplineSet
45 0 m 1,0,-1
 45 575 l 1,1,-1
 0 575 l 1,2,-1
 0 685 l 1,3,-1
 45 685 l 1,4,-1
 45 760 l 1,5,-1
 220 760 l 1,6,-1
 220 685 l 1,7,-1
 380 685 l 1,8,-1
 380 575 l 1,9,-1
 218 575 l 1,10,11
 217 539 217 539 215 504.5 c 128,-1,12
 213 470 213 470 211 443 c 1,13,-1
 221 443 l 1,14,15
 247 484 247 484 283 503.5 c 128,-1,16
 319 523 319 523 373 523 c 0,17,18
 468 523 468 523 514 468 c 128,-1,19
 560 413 560 413 560 319 c 2,20,-1
 560 0 l 1,21,-1
 385 0 l 1,22,-1
 385 261 l 2,23,24
 385 320 385 320 369 351 c 128,-1,25
 353 382 353 382 308 382 c 0,26,27
 278 382 278 382 258.5 366 c 128,-1,28
 239 350 239 350 229.5 310.5 c 128,-1,29
 220 271 220 271 220 201 c 2,30,-1
 220 0 l 1,31,-1
 45 0 l 1,0,-1
EndSplineSet
Substitution2: "'smcp' Lowercase to Small Capitals lookup 33 subtable" hbar.sc
Substitution2: "'aalt' Access All Alternates lookup 0 subtable" hbar.sc
EndChar

StartChar: IJ
Encoding: 306 306 243
Width: 600
GlyphClass: 2
LigCaretCntFixed: 1
Flags: W
AnchorPoint: "Anchor-3" 300 714 basechar 0
AnchorPoint: "Anchor-0" 300 0 basechar 0
LayerCount: 2
Fore
SplineSet
261 -10 m 0,0,1
 228 -10 228 -10 176 -5 c 128,-1,2
 124 0 124 0 74 11 c 1,3,-1
 74 164 l 1,4,5
 125 154 125 154 154 150 c 128,-1,6
 183 146 183 146 213 146 c 0,7,8
 265 146 265 146 295.5 160.5 c 128,-1,9
 326 175 326 175 339.5 215 c 128,-1,10
 353 255 353 255 353 331 c 2,11,-1
 353 714 l 1,12,-1
 525 714 l 1,13,-1
 525 307 l 2,14,15
 525 206 525 206 500 135.5 c 128,-1,16
 475 65 475 65 417.5 27.5 c 128,-1,17
 360 -10 360 -10 261 -10 c 0,0,1
74 251 m 1,18,-1
 74 714 l 1,19,-1
 243 714 l 1,20,-1
 243 251 l 1,21,-1
 74 251 l 1,18,-1
EndSplineSet
Substitution2: "'c2sc' Capitals to Small Capitals lookup 32 subtable" ij.sc
Substitution2: "'aalt' Access All Alternates lookup 0 subtable" ij.sc
LCarets2: 1 0
EndChar

StartChar: ij
Encoding: 307 307 244
Width: 600
GlyphClass: 2
LigCaretCntFixed: 1
Flags: W
AnchorPoint: "Anchor-3" 300 777 basechar 0
AnchorPoint: "Anchor-0" 306 -245 basechar 0
LayerCount: 2
Fore
SplineSet
160 601 m 0,0,1
 55 601 55 601 55 690 c 0,2,3
 55 777 55 777 160 777 c 0,4,5
 213 777 213 777 238 754.5 c 128,-1,6
 263 732 263 732 263 690 c 0,7,8
 263 649 263 649 238.5 625 c 128,-1,9
 214 601 214 601 160 601 c 0,0,1
442 601 m 0,10,11
 337 601 337 601 337 690 c 0,12,13
 337 777 337 777 442 777 c 0,14,15
 495 777 495 777 520 754.5 c 128,-1,16
 545 732 545 732 545 690 c 0,17,18
 545 649 545 649 520.5 625 c 128,-1,19
 496 601 496 601 442 601 c 0,10,11
287 -245 m 0,20,21
 252 -245 252 -245 211 -239.5 c 128,-1,22
 170 -234 170 -234 130 -220 c 1,23,-1
 130 -83 l 1,24,25
 164 -94 164 -94 197.5 -98 c 128,-1,26
 231 -102 231 -102 252 -102 c 0,27,28
 292 -102 292 -102 313 -90.5 c 128,-1,29
 334 -79 334 -79 342.5 -50.5 c 128,-1,30
 351 -22 351 -22 351 28 c 2,31,-1
 351 553 l 1,32,-1
 526 553 l 1,33,-1
 526 -12 l 2,34,35
 526 -129 526 -129 472 -187 c 128,-1,36
 418 -245 418 -245 287 -245 c 0,20,21
69 0 m 1,37,-1
 69 553 l 1,38,-1
 244 553 l 1,39,-1
 244 0 l 1,40,-1
 69 0 l 1,37,-1
EndSplineSet
Substitution2: "'smcp' Lowercase to Small Capitals lookup 33 subtable" ij.sc
Substitution2: "'aalt' Access All Alternates lookup 0 subtable" ij.sc
LCarets2: 1 0
EndChar

StartChar: kgreenlandic
Encoding: 312 312 249
Width: 600
GlyphClass: 2
Flags: W
AnchorPoint: "Anchor-3" 300 553 basechar 0
AnchorPoint: "Anchor-0" 300 0 basechar 0
LayerCount: 2
Fore
SplineSet
40 0 m 1,0,-1
 40 553 l 1,1,-1
 215 553 l 1,2,-1
 215 460 l 2,3,4
 215 436 215 436 214 405.5 c 128,-1,5
 213 375 213 375 211 344.5 c 128,-1,6
 209 314 209 314 206 290 c 1,7,-1
 210 290 l 1,8,9
 228 317 228 317 243.5 340.5 c 128,-1,10
 259 364 259 364 281 396 c 2,11,-1
 392 553 l 1,12,-1
 586 553 l 1,13,-1
 418 329 l 1,14,-1
 595 0 l 1,15,-1
 402 0 l 1,16,-1
 299 210 l 1,17,-1
 215 140 l 1,18,-1
 215 0 l 1,19,-1
 40 0 l 1,0,-1
EndSplineSet
EndChar

StartChar: Lslash
Encoding: 321 321 258
Width: 600
GlyphClass: 2
Flags: W
AnchorPoint: "Anchor-4" 497 714 basechar 0
AnchorPoint: "Anchor-3" 195 714 basechar 0
AnchorPoint: "Anchor-1" 330 357 basechar 0
AnchorPoint: "Anchor-0" 337 0 basechar 0
LayerCount: 2
Fore
SplineSet
105 0 m 1,0,-1
 105 236 l 1,1,-1
 65 212 l 1,2,-1
 1 323 l 1,3,-1
 105 387 l 1,4,-1
 105 714 l 1,5,-1
 280 714 l 1,6,-1
 280 493 l 1,7,-1
 376 552 l 1,8,-1
 442 442 l 1,9,-1
 280 343 l 1,10,-1
 280 155 l 1,11,-1
 570 155 l 1,12,-1
 570 0 l 1,13,-1
 105 0 l 1,0,-1
EndSplineSet
Substitution2: "'c2sc' Capitals to Small Capitals lookup 32 subtable" lslash.sc
Substitution2: "'aalt' Access All Alternates lookup 0 subtable" lslash.sc
EndChar

StartChar: lslash
Encoding: 322 322 259
Width: 600
GlyphClass: 2
Flags: W
AnchorPoint: "Anchor-4" 508 760 basechar 0
AnchorPoint: "Anchor-3" 300 760 basechar 0
AnchorPoint: "Anchor-1" 318 390 basechar 0
AnchorPoint: "Anchor-0" 300 0 basechar 0
LayerCount: 2
Fore
SplineSet
40 0 m 1,0,-1
 40 122 l 1,1,-1
 226 140 l 1,2,-1
 226 257 l 1,3,-1
 164 222 l 1,4,-1
 101 334 l 1,5,-1
 226 404 l 1,6,-1
 226 620 l 1,7,-1
 79 633 l 1,8,-1
 79 760 l 1,9,-1
 401 760 l 1,10,-1
 401 503 l 1,11,-1
 458 535 l 1,12,-1
 523 424 l 1,13,-1
 401 355 l 1,14,-1
 401 140 l 1,15,-1
 560 122 l 1,16,-1
 560 0 l 1,17,-1
 40 0 l 1,0,-1
EndSplineSet
Substitution2: "'smcp' Lowercase to Small Capitals lookup 33 subtable" lslash.sc
Substitution2: "'aalt' Access All Alternates lookup 0 subtable" lslash.sc
EndChar

StartChar: napostrophe
Encoding: 329 329 266
Width: 600
GlyphClass: 2
Flags: W
AnchorPoint: "Anchor-3" 321 553 basechar 0
AnchorPoint: "Anchor-0" 313 0 basechar 0
LayerCount: 2
Fore
SplineSet
-155 429 m 1,0,1
 -146 469 -146 469 -137.5 521.5 c 128,-1,2
 -129 574 -129 574 -122.5 625.5 c 128,-1,3
 -116 677 -116 677 -113 714 c 1,4,-1
 40 714 l 1,5,-1
 46 703 l 1,6,7
 38 658 38 658 26 608 c 128,-1,8
 14 558 14 558 -0.5 512 c 128,-1,9
 -15 466 -15 466 -30 429 c 1,10,-1
 -155 429 l 1,0,1
55 0 m 1,11,-1
 55 553 l 1,12,-1
 185 553 l 1,13,-1
 208 483 l 1,14,-1
 218 483 l 1,15,16
 243 521 243 521 282 542 c 128,-1,17
 321 563 321 563 379 563 c 0,18,19
 473 563 473 563 516.5 509.5 c 128,-1,20
 560 456 560 456 560 359 c 2,21,-1
 560 0 l 1,22,-1
 385 0 l 1,23,-1
 385 301 l 2,24,25
 385 360 385 360 368.5 391 c 128,-1,26
 352 422 352 422 314 422 c 0,27,28
 266 422 266 422 248 374 c 128,-1,29
 230 326 230 326 230 241 c 2,30,-1
 230 0 l 1,31,-1
 55 0 l 1,11,-1
EndSplineSet
EndChar

StartChar: Eng
Encoding: 330 330 267
Width: 600
GlyphClass: 2
Flags: W
AnchorPoint: "Anchor-4" 600 714 basechar 0
AnchorPoint: "Anchor-3" 305 714 basechar 0
AnchorPoint: "Anchor-0" 305 -228 basechar 0
LayerCount: 2
Fore
SplineSet
40 0 m 1,0,-1
 40 714 l 1,1,-1
 277 714 l 1,2,-1
 412 157 l 1,3,-1
 416 157 l 1,4,5
 410 225 410 225 406.5 277 c 128,-1,6
 403 329 403 329 403 376 c 2,7,-1
 403 714 l 1,8,-1
 560 714 l 1,9,-1
 560 -2 l 2,10,11
 560 -114 560 -114 495 -171 c 128,-1,12
 430 -228 430 -228 320 -228 c 0,13,14
 292 -228 292 -228 266 -225 c 128,-1,15
 240 -222 240 -222 222 -217 c 1,16,-1
 222 -90 l 1,17,18
 240 -93 240 -93 260 -96.5 c 128,-1,19
 280 -100 280 -100 305 -100 c 0,20,21
 361 -100 361 -100 390.5 -76.5 c 128,-1,22
 420 -53 420 -53 420 0 c 1,23,-1
 329 0 l 1,24,-1
 190 552 l 1,25,-1
 186 552 l 1,26,27
 190 501 190 501 192 467 c 128,-1,28
 194 433 194 433 195 410 c 128,-1,29
 196 387 196 387 196.5 368 c 128,-1,30
 197 349 197 349 197 328 c 2,31,-1
 197 0 l 1,32,-1
 40 0 l 1,0,-1
EndSplineSet
Substitution2: "'c2sc' Capitals to Small Capitals lookup 32 subtable" eng.sc
AlternateSubs2: "'aalt' Access All Alternates lookup 1 subtable" Eng.alt1 Eng.alt2 Eng.alt3 eng.sc
EndChar

StartChar: eng
Encoding: 331 331 268
Width: 600
GlyphClass: 2
Flags: W
AnchorPoint: "Anchor-4" 580 553 basechar 0
AnchorPoint: "Anchor-3" 314 553 basechar 0
AnchorPoint: "Anchor-0" 306 -240 basechar 0
LayerCount: 2
Fore
SplineSet
45 0 m 1,0,-1
 45 553 l 1,1,-1
 175 553 l 1,2,-1
 198 483 l 1,3,-1
 208 483 l 1,4,5
 234 521 234 521 274.5 542 c 128,-1,6
 315 563 315 563 374 563 c 0,7,8
 470 563 470 563 515 509.5 c 128,-1,9
 560 456 560 456 560 359 c 2,10,-1
 560 -50 l 2,11,12
 560 -100 560 -100 540.5 -143.5 c 128,-1,13
 521 -187 521 -187 477.5 -213.5 c 128,-1,14
 434 -240 434 -240 360 -240 c 0,15,16
 338 -240 338 -240 309 -236.5 c 128,-1,17
 280 -233 280 -233 262 -228 c 1,18,-1
 262 -91 l 1,19,20
 278 -96 278 -96 290.5 -98 c 128,-1,21
 303 -100 303 -100 319 -100 c 0,22,23
 342 -100 342 -100 363.5 -83.5 c 128,-1,24
 385 -67 385 -67 385 -17 c 2,25,-1
 385 301 l 2,26,27
 385 366 385 366 367 394 c 128,-1,28
 349 422 349 422 311 422 c 0,29,30
 258 422 258 422 239 374.5 c 128,-1,31
 220 327 220 327 220 241 c 2,32,-1
 220 0 l 1,33,-1
 45 0 l 1,0,-1
EndSplineSet
Substitution2: "'smcp' Lowercase to Small Capitals lookup 33 subtable" eng.sc
Substitution2: "'aalt' Access All Alternates lookup 0 subtable" eng.sc
EndChar

StartChar: OE
Encoding: 338 338 275
Width: 600
GlyphClass: 2
Flags: W
AnchorPoint: "Anchor-3" 300 714 basechar 0
AnchorPoint: "Anchor-0" 300 0 basechar 0
LayerCount: 2
Fore
SplineSet
248 -10 m 0,0,1
 166 -10 166 -10 116 34.5 c 128,-1,2
 66 79 66 79 43 161.5 c 128,-1,3
 20 244 20 244 20 359 c 0,4,5
 20 472 20 472 42.5 554 c 128,-1,6
 65 636 65 636 113.5 680 c 128,-1,7
 162 724 162 724 240 724 c 0,8,9
 256 724 256 724 278 722 c 128,-1,10
 300 720 300 720 325 714 c 1,11,-1
 590 714 l 1,12,-1
 590 564 l 1,13,-1
 452 564 l 1,14,-1
 452 444 l 1,15,-1
 573 444 l 1,16,-1
 573 295 l 1,17,-1
 452 295 l 1,18,-1
 452 150 l 1,19,-1
 590 150 l 1,20,-1
 590 0 l 1,21,-1
 330 0 l 1,22,23
 308 -6 308 -6 288.5 -8 c 128,-1,24
 269 -10 269 -10 248 -10 c 0,0,1
274 143 m 0,25,26
 284 143 284 143 290 145 c 128,-1,27
 296 147 296 147 300 149 c 1,28,-1
 300 565 l 1,29,30
 292 571 292 571 276 571 c 0,31,32
 234 571 234 571 213 519 c 128,-1,33
 192 467 192 467 192 358 c 0,34,35
 192 248 192 248 207 195.5 c 128,-1,36
 222 143 222 143 274 143 c 0,25,26
EndSplineSet
Substitution2: "'c2sc' Capitals to Small Capitals lookup 32 subtable" oe.sc
Substitution2: "'aalt' Access All Alternates lookup 0 subtable" oe.sc
EndChar

StartChar: oe
Encoding: 339 339 276
Width: 600
GlyphClass: 2
Flags: W
AnchorPoint: "Anchor-3" 300 553 basechar 0
AnchorPoint: "Anchor-0" 300 0 basechar 0
LayerCount: 2
Fore
SplineSet
186 -10 m 0,0,1
 126 -10 126 -10 85.5 26.5 c 128,-1,2
 45 63 45 63 24.5 128 c 128,-1,3
 4 193 4 193 4 278 c 0,4,5
 4 360 4 360 23.5 424 c 128,-1,6
 43 488 43 488 83.5 524 c 128,-1,7
 124 560 124 560 186 560 c 0,8,9
 266 560 266 560 309 494 c 1,10,11
 332 526 332 526 359 542.5 c 128,-1,12
 386 559 386 559 426 559 c 0,13,14
 507 559 507 559 551 493 c 128,-1,15
 595 427 595 427 595 309 c 2,16,-1
 595 231 l 1,17,-1
 365 231 l 1,18,19
 365 162 365 162 388.5 133 c 128,-1,20
 412 104 412 104 456 104 c 0,21,22
 482 104 482 104 509.5 114 c 128,-1,23
 537 124 537 124 568 146 c 1,24,-1
 568 29 l 1,25,26
 539 9 539 9 506 -0.5 c 128,-1,27
 473 -10 473 -10 441 -10 c 0,28,29
 394 -10 394 -10 363 7.5 c 128,-1,30
 332 25 332 25 310 58 c 1,31,32
 266 -10 266 -10 186 -10 c 0,0,1
365 334 m 1,33,-1
 477 334 l 1,34,35
 477 393 477 393 462 421 c 128,-1,36
 447 449 447 449 424 449 c 0,37,38
 404 449 404 449 385 424.5 c 128,-1,39
 366 400 366 400 365 334 c 1,33,-1
186 109 m 0,40,41
 217 109 217 109 230 150 c 128,-1,42
 243 191 243 191 243 276 c 256,43,44
 243 361 243 361 230 401.5 c 128,-1,45
 217 442 217 442 186 442 c 0,46,47
 158 442 158 442 144 401.5 c 128,-1,48
 130 361 130 361 130 276 c 0,49,50
 130 109 130 109 186 109 c 0,40,41
EndSplineSet
Substitution2: "'smcp' Lowercase to Small Capitals lookup 33 subtable" oe.sc
Substitution2: "'aalt' Access All Alternates lookup 0 subtable" oe.sc
EndChar

StartChar: Tbar
Encoding: 358 358 295
Width: 600
GlyphClass: 2
Flags: W
AnchorPoint: "Anchor-4" 580 714 basechar 0
AnchorPoint: "Anchor-3" 300 714 basechar 0
AnchorPoint: "Anchor-1" 300 357 basechar 0
AnchorPoint: "Anchor-0" 300 0 basechar 0
LayerCount: 2
Fore
SplineSet
212 0 m 1,0,-1
 212 276 l 1,1,-1
 102 276 l 1,2,-1
 102 422 l 1,3,-1
 212 422 l 1,4,-1
 212 564 l 1,5,-1
 20 564 l 1,6,-1
 20 714 l 1,7,-1
 580 714 l 1,8,-1
 580 564 l 1,9,-1
 387 564 l 1,10,-1
 387 422 l 1,11,-1
 498 422 l 1,12,-1
 498 276 l 1,13,-1
 387 276 l 1,14,-1
 387 0 l 1,15,-1
 212 0 l 1,0,-1
EndSplineSet
Substitution2: "'c2sc' Capitals to Small Capitals lookup 32 subtable" tbar.sc
Substitution2: "'aalt' Access All Alternates lookup 0 subtable" tbar.sc
EndChar

StartChar: tbar
Encoding: 359 359 296
Width: 600
GlyphClass: 2
Flags: W
AnchorPoint: "Anchor-4" 580 677 basechar 0
AnchorPoint: "Anchor-3" 275 677 basechar 0
AnchorPoint: "Anchor-1" 242 277 basechar 0
AnchorPoint: "Anchor-0" 324 0 basechar 0
LayerCount: 2
Fore
SplineSet
24 227 m 1,0,-1
 24 338 l 1,1,-1
 162 338 l 1,2,-1
 162 413 l 1,3,-1
 24 413 l 1,4,-1
 24 498 l 1,5,-1
 180 552 l 1,6,-1
 207 677 l 1,7,-1
 337 677 l 1,8,-1
 337 553 l 1,9,-1
 528 553 l 1,10,-1
 528 413 l 1,11,-1
 337 413 l 1,12,-1
 337 338 l 1,13,-1
 530 338 l 1,14,-1
 530 227 l 1,15,-1
 337 227 l 1,16,17
 338 183 338 183 353 163.5 c 128,-1,18
 368 144 368 144 387.5 139.5 c 128,-1,19
 407 135 407 135 421 135 c 0,20,21
 446 135 446 135 469.5 139.5 c 128,-1,22
 493 144 493 144 530 157 c 1,23,-1
 530 18 l 1,24,25
 486 3 486 3 447.5 -3.5 c 128,-1,26
 409 -10 409 -10 370 -10 c 0,27,28
 291 -10 291 -10 245.5 14 c 128,-1,29
 200 38 200 38 181 86 c 128,-1,30
 162 134 162 134 162 204 c 2,31,-1
 162 227 l 1,32,-1
 24 227 l 1,0,-1
EndSplineSet
Substitution2: "'smcp' Lowercase to Small Capitals lookup 33 subtable" tbar.sc
Substitution2: "'aalt' Access All Alternates lookup 0 subtable" tbar.sc
EndChar

StartChar: Uogonek
Encoding: 370 370 307
Width: 600
GlyphClass: 2
Flags: W
AnchorPoint: "Anchor-4" 580 714 basechar 0
AnchorPoint: "Anchor-3" 300 714 basechar 0
AnchorPoint: "Anchor-2" 540 10 basechar 0
AnchorPoint: "Anchor-0" 331 -240 basechar 0
LayerCount: 2
Fore
SplineSet
334 -240 m 0,0,1
 273 -240 273 -240 238 -211 c 128,-1,2
 203 -182 203 -182 203 -124 c 0,3,4
 203 -90 203 -90 217 -62.5 c 128,-1,5
 231 -35 231 -35 266 -9 c 1,6,7
 161 1 161 1 100.5 69 c 128,-1,8
 40 137 40 137 40 259 c 2,9,-1
 40 714 l 1,10,-1
 215 714 l 1,11,-1
 215 273 l 2,12,13
 215 201 215 201 235 173 c 128,-1,14
 255 145 255 145 297 145 c 0,15,16
 338 145 338 145 361.5 172.5 c 128,-1,17
 385 200 385 200 385 274 c 2,18,-1
 385 714 l 1,19,-1
 560 714 l 1,20,-1
 560 263 l 2,21,22
 560 171 560 171 525 107 c 128,-1,23
 490 43 490 43 423 14 c 1,24,25
 368 -17 368 -17 347 -43 c 128,-1,26
 326 -69 326 -69 326 -93 c 0,27,28
 326 -132 326 -132 367 -132 c 0,29,30
 379 -132 379 -132 392 -129 c 128,-1,31
 405 -126 405 -126 414 -121 c 1,32,-1
 414 -226 l 1,33,34
 400 -231 400 -231 380 -235.5 c 128,-1,35
 360 -240 360 -240 334 -240 c 0,0,1
EndSplineSet
Substitution2: "'c2sc' Capitals to Small Capitals lookup 32 subtable" uogonek.sc
Substitution2: "'locl' Localized Forms in Latin lookup 11 subtable" Uogonek.loclNAV
Ligature2: "'ccmp' Glyph Composition/Decomposition lookup 6 subtable" U uni0328
AlternateSubs2: "'aalt' Access All Alternates lookup 1 subtable" Uogonek.loclNAV uogonek.sc
EndChar

StartChar: longs
Encoding: 383 383 320
Width: 600
GlyphClass: 2
Flags: W
AnchorPoint: "Anchor-3" 388 765 basechar 0
AnchorPoint: "Anchor-0" 300 0 basechar 0
LayerCount: 2
Fore
SplineSet
191 0 m 1,0,-1
 191 569 l 2,1,2
 191 642 191 642 215 684.5 c 128,-1,3
 239 727 239 727 283.5 746 c 128,-1,4
 328 765 328 765 388 765 c 0,5,6
 440 765 440 765 476 757.5 c 128,-1,7
 512 750 512 750 536 740 c 1,8,-1
 500 610 l 1,9,10
 466 625 466 625 425 625 c 0,11,12
 390 625 390 625 377.5 607.5 c 128,-1,13
 365 590 365 590 365 555 c 2,14,-1
 365 0 l 1,15,-1
 191 0 l 1,0,-1
EndSplineSet
EndChar

StartChar: florin
Encoding: 402 402 321
Width: 600
GlyphClass: 2
Flags: W
AnchorPoint: "Anchor-3" 388 745 basechar 0
AnchorPoint: "Anchor-0" 290 -245 basechar 0
LayerCount: 2
Fore
SplineSet
196 -245 m 0,0,1
 147 -245 147 -245 122.5 -241 c 128,-1,2
 98 -237 98 -237 80 -231 c 1,3,-1
 80 -92 l 1,4,5
 107 -102 107 -102 134 -102 c 0,6,7
 174 -102 174 -102 191.5 -86 c 128,-1,8
 209 -70 209 -70 209 -38 c 2,9,-1
 209 393 l 1,10,-1
 112 393 l 1,11,-1
 112 503 l 1,12,-1
 211 529 l 1,13,-1
 211 544 l 2,14,15
 211 653 211 653 258 699 c 128,-1,16
 305 745 305 745 410 745 c 0,17,18
 450 745 450 745 483 738.5 c 128,-1,19
 516 732 516 732 550 719 c 1,20,-1
 516 595 l 1,21,22
 485 606 485 606 456 606 c 0,23,24
 421 606 421 606 401 592 c 128,-1,25
 381 578 381 578 381 544 c 2,26,-1
 381 531 l 1,27,-1
 498 531 l 1,28,-1
 498 393 l 1,29,-1
 381 393 l 1,30,-1
 381 -7 l 2,31,32
 381 -81 381 -81 369 -134.5 c 128,-1,33
 357 -188 357 -188 317.5 -216.5 c 128,-1,34
 278 -245 278 -245 196 -245 c 0,0,1
EndSplineSet
EndChar

StartChar: circumflex
Encoding: 710 710 330
Width: 600
Flags: W
LayerCount: 2
Fore
SplineSet
105 606 m 1,0,-1
 105 620 l 1,1,2
 121 638 121 638 142.5 664.5 c 128,-1,3
 164 691 164 691 184 718.5 c 128,-1,4
 204 746 204 746 216 766 c 1,5,-1
 385 766 l 1,6,7
 405 732 405 732 436 692.5 c 128,-1,8
 467 653 467 653 495 620 c 1,9,-1
 495 606 l 1,10,-1
 384 606 l 1,11,12
 363 620 363 620 343 638 c 128,-1,13
 323 656 323 656 300 679 c 1,14,15
 276 655 276 655 257 637.5 c 128,-1,16
 238 620 238 620 218 606 c 1,17,-1
 105 606 l 1,0,-1
EndSplineSet
EndChar

StartChar: caron
Encoding: 711 711 331
Width: 600
GlyphClass: 2
Flags: W
AnchorPoint: "Anchor-13" 299 763 basemark 0
AnchorPoint: "Anchor-13" 299 528 mark 0
AnchorPoint: "Anchor-8" 299 528 mark 0
AnchorPoint: "Anchor-3" 299 528 mark 0
LayerCount: 2
Fore
SplineSet
216 606 m 1,0,1
 204 626 204 626 184 654 c 128,-1,2
 164 682 164 682 142.5 708.5 c 128,-1,3
 121 735 121 735 105 752 c 1,4,-1
 105 766 l 1,5,-1
 218 766 l 1,6,7
 239 752 239 752 258 734 c 128,-1,8
 277 716 277 716 300 693 c 1,9,10
 323 717 323 717 343 734.5 c 128,-1,11
 363 752 363 752 384 766 c 1,12,-1
 495 766 l 1,13,-1
 495 752 l 1,14,15
 480 734 480 734 459 708 c 128,-1,16
 438 682 438 682 418 655 c 128,-1,17
 398 628 398 628 385 606 c 1,18,-1
 216 606 l 1,0,1
EndSplineSet
EndChar

StartChar: breve
Encoding: 728 728 333
Width: 600
GlyphClass: 2
Flags: W
AnchorPoint: "Anchor-13" 300 765 basemark 0
AnchorPoint: "Anchor-13" 295 553 mark 0
AnchorPoint: "Anchor-8" 295 553 mark 0
AnchorPoint: "Anchor-3" 295 553 mark 0
LayerCount: 2
Fore
SplineSet
298 606 m 0,0,1
 216 606 216 606 169.5 653.5 c 128,-1,2
 123 701 123 701 121 787 c 1,3,-1
 220 787 l 1,4,5
 227 748 227 748 247.5 734.5 c 128,-1,6
 268 721 268 721 298 721 c 0,7,8
 330 721 330 721 350.5 735 c 128,-1,9
 371 749 371 749 377 787 c 1,10,-1
 478 787 l 1,11,12
 475 701 475 701 427 653.5 c 128,-1,13
 379 606 379 606 298 606 c 0,0,1
EndSplineSet
EndChar

StartChar: dotaccent
Encoding: 729 729 334
Width: 600
Flags: W
LayerCount: 2
Fore
SplineSet
302 601 m 0,0,1
 197 601 197 601 197 690 c 0,2,3
 197 777 197 777 302 777 c 0,4,5
 355 777 355 777 380 754.5 c 128,-1,6
 405 732 405 732 405 690 c 0,7,8
 405 649 405 649 380.5 625 c 128,-1,9
 356 601 356 601 302 601 c 0,0,1
EndSplineSet
EndChar

StartChar: ring
Encoding: 730 730 335
Width: 600
Flags: W
LayerCount: 2
Fore
SplineSet
299 604 m 0,0,1
 242 604 242 604 207 638 c 128,-1,2
 172 672 172 672 172 727 c 0,3,4
 172 783 172 783 207 817 c 128,-1,5
 242 851 242 851 299 851 c 0,6,7
 354 851 354 851 390.5 817 c 128,-1,8
 427 783 427 783 427 728 c 256,9,10
 427 673 427 673 390.5 638.5 c 128,-1,11
 354 604 354 604 299 604 c 0,0,1
299 687 m 0,12,13
 316 687 316 687 328 698.5 c 128,-1,14
 340 710 340 710 340 728 c 256,15,16
 340 746 340 746 328 757.5 c 128,-1,17
 316 769 316 769 299 769 c 256,18,19
 282 769 282 769 270 757.5 c 128,-1,20
 258 746 258 746 258 728 c 256,21,22
 258 710 258 710 268.5 698.5 c 128,-1,23
 279 687 279 687 299 687 c 0,12,13
EndSplineSet
EndChar

StartChar: ogonek
Encoding: 731 731 336
Width: 600
Flags: W
LayerCount: 2
Fore
SplineSet
332 -240 m 0,0,1
 272 -240 272 -240 236.5 -210 c 128,-1,2
 201 -180 201 -180 201 -128 c 0,3,4
 201 -94 201 -94 222.5 -57 c 128,-1,5
 244 -20 244 -20 303 21 c 1,6,-1
 382 0 l 1,7,8
 350 -33 350 -33 337 -53 c 128,-1,9
 324 -73 324 -73 324 -95 c 0,10,11
 324 -132 324 -132 364 -132 c 0,12,13
 377 -132 377 -132 390 -129 c 128,-1,14
 403 -126 403 -126 412 -121 c 1,15,-1
 412 -226 l 1,16,17
 398 -231 398 -231 378 -235.5 c 128,-1,18
 358 -240 358 -240 332 -240 c 0,0,1
EndSplineSet
EndChar

StartChar: tilde
Encoding: 732 732 337
Width: 600
Flags: W
LayerCount: 2
Fore
SplineSet
99 604 m 1,0,1
 102 677 102 677 128 724 c 128,-1,2
 154 771 154 771 209 771 c 0,3,4
 240 771 240 771 267.5 759.5 c 128,-1,5
 295 748 295 748 320.5 736 c 128,-1,6
 346 724 346 724 369 724 c 0,7,8
 391 724 391 724 397.5 737 c 128,-1,9
 404 750 404 750 408 772 c 1,10,-1
 500 772 l 1,11,12
 497 686 497 686 466 645.5 c 128,-1,13
 435 605 435 605 389 605 c 0,14,15
 360 605 360 605 330.5 616.5 c 128,-1,16
 301 628 301 628 273.5 640 c 128,-1,17
 246 652 246 652 224 652 c 0,18,19
 210 652 210 652 202.5 643 c 128,-1,20
 195 634 195 634 191 604 c 1,21,-1
 99 604 l 1,0,1
EndSplineSet
EndChar

StartChar: hungarumlaut
Encoding: 733 733 338
Width: 600
Flags: W
LayerCount: 2
Fore
SplineSet
279 606 m 1,0,-1
 279 620 l 1,1,2
 311 661 311 661 336 700.5 c 128,-1,3
 361 740 361 740 375 766 c 1,4,-1
 539 766 l 1,5,-1
 539 756 l 1,6,7
 524 738 524 738 496 710 c 128,-1,8
 468 682 468 682 436 653.5 c 128,-1,9
 404 625 404 625 380 606 c 1,10,-1
 279 606 l 1,0,-1
78 606 m 1,11,-1
 78 620 l 1,12,13
 110 662 110 662 134 701 c 128,-1,14
 158 740 158 740 173 766 c 1,15,-1
 336 766 l 1,16,-1
 336 756 l 1,17,18
 322 738 322 738 294 710 c 128,-1,19
 266 682 266 682 234 654 c 128,-1,20
 202 626 202 626 175 606 c 1,21,-1
 78 606 l 1,11,-1
EndSplineSet
EndChar

StartChar: tonos
Encoding: 900 900 339
Width: 600
GlyphClass: 2
Flags: W
AnchorPoint: "Anchor-13" 307 760 basemark 0
AnchorPoint: "Anchor-13" 300 553 mark 0
AnchorPoint: "Anchor-8" 300 553 mark 0
AnchorPoint: "Anchor-3" 300 553 mark 0
LayerCount: 2
Fore
SplineSet
254 606 m 1,0,-1
 254 622 l 1,1,2
 260 644 260 644 265 675.5 c 128,-1,3
 270 707 270 707 275 738.5 c 128,-1,4
 280 770 280 770 282 795 c 1,5,-1
 439 795 l 1,6,-1
 439 783 l 1,7,8
 422 742 422 742 402.5 698 c 128,-1,9
 383 654 383 654 355 606 c 1,10,-1
 254 606 l 1,0,-1
EndSplineSet
EndChar

StartChar: dieresistonos
Encoding: 901 901 340
Width: 600
GlyphClass: 2
Flags: W
AnchorPoint: "Anchor-13" 301 838 basemark 0
AnchorPoint: "Anchor-13" 300 553 mark 0
AnchorPoint: "Anchor-8" 300 553 mark 0
AnchorPoint: "Anchor-3" 300 553 mark 0
LayerCount: 2
Fore
SplineSet
245 678 m 1,0,-1
 245 686 l 1,1,2
 250 705 250 705 254.5 732.5 c 128,-1,3
 259 760 259 760 263 788.5 c 128,-1,4
 267 817 267 817 268 838 c 1,5,-1
 410 838 l 1,6,-1
 410 828 l 1,7,8
 395 794 395 794 372.5 756 c 128,-1,9
 350 718 350 718 323 678 c 1,10,-1
 245 678 l 1,0,-1
155 617 m 0,11,12
 122 617 122 617 103.5 634.5 c 128,-1,13
 85 652 85 652 85 688 c 0,14,15
 85 726 85 726 103.5 743.5 c 128,-1,16
 122 761 122 761 155 761 c 0,17,18
 186 761 186 761 206 743.5 c 128,-1,19
 226 726 226 726 226 688 c 0,20,21
 226 652 226 652 206 634.5 c 128,-1,22
 186 617 186 617 155 617 c 0,11,12
444 617 m 0,23,24
 410 617 410 617 391 634.5 c 128,-1,25
 372 652 372 652 372 688 c 0,26,27
 372 726 372 726 391 743.5 c 128,-1,28
 410 761 410 761 444 761 c 0,29,30
 476 761 476 761 495.5 743.5 c 128,-1,31
 515 726 515 726 515 688 c 0,32,33
 515 652 515 652 495.5 634.5 c 128,-1,34
 476 617 476 617 444 617 c 0,23,24
EndSplineSet
EndChar

StartChar: Epsilontonos
Encoding: 904 904 343
Width: 600
GlyphClass: 2
Flags: W
AnchorPoint: "Anchor-3" 332 714 basechar 0
AnchorPoint: "Anchor-0" 341 0 basechar 0
LayerCount: 2
Fore
SplineSet
-58 606 m 1,0,-1
 -58 622 l 1,1,2
 -52 644 -52 644 -47 675.5 c 128,-1,3
 -42 707 -42 707 -37 738.5 c 128,-1,4
 -32 770 -32 770 -30 795 c 1,5,-1
 127 795 l 1,6,-1
 127 783 l 1,7,8
 110 742 110 742 90.5 698 c 128,-1,9
 71 654 71 654 43 606 c 1,10,-1
 -58 606 l 1,0,-1
127 0 m 1,11,-1
 127 714 l 1,12,-1
 540 714 l 1,13,-1
 540 564 l 1,14,-1
 289 564 l 1,15,-1
 289 442 l 1,16,-1
 529 442 l 1,17,-1
 529 292 l 1,18,-1
 289 292 l 1,19,-1
 289 150 l 1,20,-1
 540 150 l 1,21,-1
 540 0 l 1,22,-1
 127 0 l 1,11,-1
EndSplineSet
EndChar

StartChar: Etatonos
Encoding: 905 905 344
Width: 600
GlyphClass: 2
Flags: W
AnchorPoint: "Anchor-3" 332 714 basechar 0
AnchorPoint: "Anchor-1" 332 377 basechar 0
AnchorPoint: "Anchor-0" 332 0 basechar 0
LayerCount: 2
Fore
SplineSet
-73 606 m 1,0,-1
 -73 622 l 1,1,2
 -68 644 -68 644 -62 675.5 c 128,-1,3
 -56 707 -56 707 -52 738.5 c 128,-1,4
 -48 770 -48 770 -45 795 c 1,5,-1
 112 795 l 1,6,-1
 112 783 l 1,7,8
 96 742 96 742 76 698 c 128,-1,9
 56 654 56 654 28 606 c 1,10,-1
 -73 606 l 1,0,-1
100 0 m 1,11,-1
 100 714 l 1,12,-1
 268 714 l 1,13,-1
 268 447 l 1,14,-1
 392 447 l 1,15,-1
 392 714 l 1,16,-1
 560 714 l 1,17,-1
 560 0 l 1,18,-1
 392 0 l 1,19,-1
 392 297 l 1,20,-1
 268 297 l 1,21,-1
 268 0 l 1,22,-1
 100 0 l 1,11,-1
EndSplineSet
EndChar

StartChar: Upsilontonos
Encoding: 910 910 347
Width: 600
GlyphClass: 2
Flags: W
AnchorPoint: "Anchor-3" 367 714 basechar 0
AnchorPoint: "Anchor-0" 367 0 basechar 0
LayerCount: 2
Fore
SplineSet
-67 606 m 1,0,-1
 -67 622 l 1,1,2
 -62 644 -62 644 -56 675.5 c 128,-1,3
 -50 707 -50 707 -46 738.5 c 128,-1,4
 -42 770 -42 770 -39 795 c 1,5,-1
 118 795 l 1,6,-1
 118 783 l 1,7,8
 102 742 102 742 82 698 c 128,-1,9
 62 654 62 654 34 606 c 1,10,-1
 -67 606 l 1,0,-1
287 0 m 1,11,-1
 287 276 l 1,12,-1
 128 714 l 1,13,-1
 294 714 l 1,14,-1
 367 460 l 1,15,-1
 438 714 l 1,16,-1
 601 714 l 1,17,-1
 444 276 l 1,18,-1
 444 0 l 1,19,-1
 287 0 l 1,11,-1
EndSplineSet
EndChar

StartChar: Gamma
Encoding: 915 915 352
Width: 600
GlyphClass: 2
Flags: W
AnchorPoint: "Anchor-3" 320 714 basechar 0
AnchorPoint: "Anchor-0" 320 0 basechar 0
LayerCount: 2
Fore
SplineSet
75 0 m 1,0,-1
 75 714 l 1,1,-1
 540 714 l 1,2,-1
 540 570 l 1,3,-1
 252 570 l 1,4,-1
 252 0 l 1,5,-1
 75 0 l 1,0,-1
EndSplineSet
EndChar

StartChar: uni0394
Encoding: 916 916 353
Width: 600
GlyphClass: 2
Flags: W
AnchorPoint: "Anchor-3" 300 714 basechar 0
AnchorPoint: "Anchor-0" 300 0 basechar 0
LayerCount: 2
Fore
SplineSet
5 0 m 1,0,-1
 5 101 l 1,1,-1
 198 718 l 1,2,-1
 404 718 l 1,3,-1
 595 100 l 1,4,-1
 595 0 l 1,5,-1
 5 0 l 1,0,-1
185 144 m 1,6,-1
 413 144 l 1,7,-1
 320 499 l 2,8,9
 317 512 317 512 309.5 536.5 c 128,-1,10
 302 561 302 561 300 577 c 1,11,12
 298 561 298 561 290.5 535.5 c 128,-1,13
 283 510 283 510 280 498 c 2,14,-1
 185 144 l 1,6,-1
EndSplineSet
EndChar

StartChar: Theta
Encoding: 920 920 357
Width: 600
GlyphClass: 2
Flags: W
AnchorPoint: "Anchor-4" 600 714 basechar 0
AnchorPoint: "Anchor-3" 300 714 basechar 0
AnchorPoint: "Anchor-2" 295 10 basechar 0
AnchorPoint: "Anchor-1" 300 357 basechar 0
AnchorPoint: "Anchor-0" 300 0 basechar 0
LayerCount: 2
Fore
SplineSet
300 -10 m 0,0,1
 156 -10 156 -10 88 85 c 128,-1,2
 20 180 20 180 20 358 c 0,3,4
 20 537 20 537 89 631 c 128,-1,5
 158 725 158 725 300 725 c 0,6,7
 445 725 445 725 512.5 629 c 128,-1,8
 580 533 580 533 580 357 c 0,9,10
 580 182 580 182 513 86 c 128,-1,11
 446 -10 446 -10 300 -10 c 0,0,1
300 140 m 0,12,13
 357 140 357 140 379 192.5 c 128,-1,14
 401 245 401 245 401 360 c 0,15,16
 401 470 401 470 379.5 522 c 128,-1,17
 358 574 358 574 300 574 c 0,18,19
 244 574 244 574 221.5 524 c 128,-1,20
 199 474 199 474 199 358 c 256,21,22
 199 242 199 242 221.5 191 c 128,-1,23
 244 140 244 140 300 140 c 0,12,13
235 294 m 1,24,-1
 235 432 l 1,25,-1
 366 432 l 1,26,-1
 366 294 l 1,27,-1
 235 294 l 1,24,-1
EndSplineSet
EndChar

StartChar: Lambda
Encoding: 923 923 360
Width: 600
GlyphClass: 2
Flags: W
AnchorPoint: "Anchor-3" 300 714 basechar 0
AnchorPoint: "Anchor-0" 300 0 basechar 0
LayerCount: 2
Fore
SplineSet
5 0 m 1,0,-1
 198 714 l 1,1,-1
 401 714 l 1,2,-1
 595 0 l 1,3,-1
 403 0 l 1,4,-1
 327 388 l 2,5,6
 324 406 324 406 318 437.5 c 128,-1,7
 312 469 312 469 307 500.5 c 128,-1,8
 302 532 302 532 300 552 c 1,9,10
 298 532 298 532 293 501 c 128,-1,11
 288 470 288 470 283 439 c 128,-1,12
 278 408 278 408 274 389 c 2,13,-1
 197 0 l 1,14,-1
 5 0 l 1,0,-1
EndSplineSet
EndChar

StartChar: Xi
Encoding: 926 926 363
Width: 600
GlyphClass: 2
Flags: W
AnchorPoint: "Anchor-3" 300 714 basechar 0
AnchorPoint: "Anchor-0" 300 0 basechar 0
LayerCount: 2
Fore
SplineSet
60 571 m 1,0,-1
 60 714 l 1,1,-1
 540 714 l 1,2,-1
 540 571 l 1,3,-1
 60 571 l 1,0,-1
100 299 m 1,4,-1
 100 442 l 1,5,-1
 500 442 l 1,6,-1
 500 299 l 1,7,-1
 100 299 l 1,4,-1
40 0 m 1,8,-1
 40 145 l 1,9,-1
 560 145 l 1,10,-1
 560 0 l 1,11,-1
 40 0 l 1,8,-1
EndSplineSet
EndChar

StartChar: Pi
Encoding: 928 928 365
Width: 600
GlyphClass: 2
Flags: W
AnchorPoint: "Anchor-3" 300 714 basechar 0
AnchorPoint: "Anchor-0" 300 0 basechar 0
LayerCount: 2
Fore
SplineSet
40 0 m 1,0,-1
 40 714 l 1,1,-1
 560 714 l 1,2,-1
 560 0 l 1,3,-1
 383 0 l 1,4,-1
 383 568 l 1,5,-1
 217 568 l 1,6,-1
 217 0 l 1,7,-1
 40 0 l 1,0,-1
EndSplineSet
EndChar

StartChar: Sigma
Encoding: 931 931 367
Width: 600
GlyphClass: 2
Flags: W
AnchorPoint: "Anchor-3" 300 714 basechar 0
AnchorPoint: "Anchor-0" 300 0 basechar 0
LayerCount: 2
Fore
SplineSet
60 0 m 1,0,-1
 60 138 l 1,1,-1
 272 375 l 1,2,-1
 66 580 l 1,3,-1
 66 714 l 1,4,-1
 521 714 l 1,5,-1
 521 571 l 1,6,-1
 373 571 l 2,7,8
 344 571 344 571 316.5 571.5 c 128,-1,9
 289 572 289 572 260 576 c 1,10,-1
 462 376 l 1,11,-1
 249 139 l 1,12,13
 282 142 282 142 312.5 143.5 c 128,-1,14
 343 145 343 145 378 145 c 2,15,-1
 550 145 l 1,16,-1
 550 0 l 1,17,-1
 60 0 l 1,0,-1
EndSplineSet
EndChar

StartChar: Phi
Encoding: 934 934 370
Width: 600
GlyphClass: 2
Flags: W
AnchorPoint: "Anchor-3" 300 714 basechar 0
AnchorPoint: "Anchor-0" 300 0 basechar 0
LayerCount: 2
Fore
SplineSet
227 -10 m 1,0,-1
 227 100 l 1,1,2
 167 101 167 101 127 124 c 128,-1,3
 87 147 87 147 63.5 186 c 128,-1,4
 40 225 40 225 30 272.5 c 128,-1,5
 20 320 20 320 20 369 c 0,6,7
 20 440 20 440 40 500.5 c 128,-1,8
 60 561 60 561 105.5 598 c 128,-1,9
 151 635 151 635 227 636 c 1,10,-1
 227 724 l 1,11,-1
 374 724 l 1,12,-1
 374 636 l 1,13,14
 448 635 448 635 493.5 597.5 c 128,-1,15
 539 560 539 560 559.5 500 c 128,-1,16
 580 440 580 440 580 370 c 0,17,18
 580 319 580 319 569 271.5 c 128,-1,19
 558 224 558 224 534 185.5 c 128,-1,20
 510 147 510 147 470.5 124 c 128,-1,21
 431 101 431 101 374 100 c 1,22,-1
 374 -10 l 1,23,-1
 227 -10 l 1,0,-1
227 235 m 1,24,-1
 227 500 l 1,25,26
 192 498 192 498 179 460.5 c 128,-1,27
 166 423 166 423 166 368 c 0,28,29
 166 312 166 312 179 274 c 128,-1,30
 192 236 192 236 227 235 c 1,24,-1
374 235 m 1,31,32
 408 236 408 236 421.5 274 c 128,-1,33
 435 312 435 312 435 368 c 256,34,35
 435 424 435 424 421.5 461 c 128,-1,36
 408 498 408 498 374 500 c 1,37,-1
 374 235 l 1,31,32
EndSplineSet
EndChar

StartChar: Psi
Encoding: 936 936 372
Width: 600
GlyphClass: 2
Flags: W
AnchorPoint: "Anchor-3" 300 714 basechar 0
AnchorPoint: "Anchor-0" 300 0 basechar 0
LayerCount: 2
Fore
SplineSet
231 0 m 1,0,-1
 231 198 l 1,1,2
 118 198 118 198 69 258.5 c 128,-1,3
 20 319 20 319 20 438 c 2,4,-1
 20 714 l 1,5,-1
 163 714 l 1,6,-1
 163 458 l 2,7,8
 163 390 163 390 176.5 360 c 128,-1,9
 190 330 190 330 231 330 c 1,10,-1
 231 714 l 1,11,-1
 369 714 l 1,12,-1
 369 330 l 1,13,14
 406 330 406 330 421.5 360 c 128,-1,15
 437 390 437 390 437 456 c 2,16,-1
 437 714 l 1,17,-1
 580 714 l 1,18,-1
 580 445 l 2,19,20
 580 325 580 325 530 261.5 c 128,-1,21
 480 198 480 198 369 198 c 1,22,-1
 369 0 l 1,23,-1
 231 0 l 1,0,-1
EndSplineSet
EndChar

StartChar: uni03A9
Encoding: 937 937 373
Width: 600
GlyphClass: 2
Flags: W
AnchorPoint: "Anchor-3" 299 714 basechar 0
AnchorPoint: "Anchor-0" 300 0 basechar 0
LayerCount: 2
Fore
SplineSet
5 0 m 1,0,-1
 5 132 l 1,1,-1
 132 132 l 1,2,3
 78 170 78 170 47 243.5 c 128,-1,4
 16 317 16 317 16 415 c 0,5,6
 16 567 16 567 90.5 646 c 128,-1,7
 165 725 165 725 297 725 c 0,8,9
 382 725 382 725 446 691 c 128,-1,10
 510 657 510 657 545.5 588 c 128,-1,11
 581 519 581 519 581 414 c 0,12,13
 581 320 581 320 551 246 c 128,-1,14
 521 172 521 172 463 132 c 1,15,-1
 595 132 l 1,16,-1
 595 0 l 1,17,-1
 350 0 l 1,18,-1
 350 147 l 1,19,20
 390 182 390 182 409 243.5 c 128,-1,21
 428 305 428 305 428 387 c 0,22,23
 428 492 428 492 397 542.5 c 128,-1,24
 366 593 366 593 299 593 c 256,25,26
 232 593 232 593 201.5 543 c 128,-1,27
 171 493 171 493 171 387 c 0,28,29
 171 302 171 302 189.5 240.5 c 128,-1,30
 208 179 208 179 246 147 c 1,31,-1
 246 0 l 1,32,-1
 5 0 l 1,0,-1
EndSplineSet
EndChar

StartChar: alpha
Encoding: 945 945 381
Width: 600
GlyphClass: 2
Flags: W
AnchorPoint: "Anchor-3" 300 553 basechar 0
AnchorPoint: "Anchor-0" 307 0 basechar 0
LayerCount: 2
Fore
SplineSet
222 -10 m 0,0,1
 136 -10 136 -10 83 62 c 128,-1,2
 30 134 30 134 30 277 c 0,3,4
 30 414 30 414 82 486.5 c 128,-1,5
 134 559 134 559 235 559 c 0,6,7
 288 559 288 559 318.5 538.5 c 128,-1,8
 349 518 349 518 373 477 c 1,9,-1
 380 477 l 1,10,11
 384 494 384 494 392.5 514.5 c 128,-1,12
 401 535 401 535 414 550 c 1,13,-1
 560 550 l 1,14,15
 549 518 549 518 535 457.5 c 128,-1,16
 521 397 521 397 521 324 c 2,17,-1
 521 189 l 2,18,19
 521 154 521 154 533 142 c 128,-1,20
 545 130 545 130 561 130 c 0,21,22
 568 130 568 130 577.5 132 c 128,-1,23
 587 134 587 134 591 135 c 1,24,-1
 591 3 l 1,25,26
 584 -1 584 -1 561.5 -5.5 c 128,-1,27
 539 -10 539 -10 510 -10 c 0,28,29
 464 -10 464 -10 429 8 c 128,-1,30
 394 26 394 26 375 72 c 1,31,-1
 364 72 l 1,32,33
 340 36 340 36 306.5 13 c 128,-1,34
 273 -10 273 -10 222 -10 c 0,0,1
281 127 m 0,35,36
 359 127 359 127 359 268 c 2,37,-1
 359 274 l 2,38,39
 359 344 359 344 340.5 383 c 128,-1,40
 322 422 322 422 278 422 c 0,41,42
 235 422 235 422 216.5 385 c 128,-1,43
 198 348 198 348 198 279 c 0,44,45
 198 198 198 198 220.5 162.5 c 128,-1,46
 243 127 243 127 281 127 c 0,35,36
EndSplineSet
EndChar

StartChar: beta
Encoding: 946 946 382
Width: 600
GlyphClass: 2
Flags: W
AnchorPoint: "Anchor-4" 580 765 basechar 0
AnchorPoint: "Anchor-3" 302 765 basechar 0
AnchorPoint: "Anchor-0" 386 0 basechar 0
LayerCount: 2
Fore
SplineSet
45 -240 m 1,0,-1
 45 535 l 2,1,2
 45 616 45 616 79 666.5 c 128,-1,3
 113 717 113 717 171.5 741 c 128,-1,4
 230 765 230 765 302 765 c 0,5,6
 370 765 370 765 423.5 744 c 128,-1,7
 477 723 477 723 508 679.5 c 128,-1,8
 539 636 539 636 539 569 c 256,9,10
 539 502 539 502 506 459 c 128,-1,11
 473 416 473 416 410 406 c 1,12,-1
 410 402 l 1,13,14
 488 392 488 392 534.5 349 c 128,-1,15
 581 306 581 306 581 214 c 0,16,17
 581 108 581 108 518.5 49 c 128,-1,18
 456 -10 456 -10 349 -10 c 0,19,20
 312 -10 312 -10 278 -2.5 c 128,-1,21
 244 5 244 5 219 20 c 1,22,-1
 219 -240 l 1,23,-1
 45 -240 l 1,0,-1
306 128 m 0,24,25
 355 128 355 128 384 154 c 128,-1,26
 413 180 413 180 413 229 c 0,27,28
 413 266 413 266 397 287 c 128,-1,29
 381 308 381 308 355.5 316.5 c 128,-1,30
 330 325 330 325 302 325 c 2,31,-1
 272 325 l 1,32,-1
 272 458 l 1,33,-1
 293 458 l 2,34,35
 335 458 335 458 355 483.5 c 128,-1,36
 375 509 375 509 375 547 c 0,37,38
 375 589 375 589 353.5 611 c 128,-1,39
 332 633 332 633 298 633 c 0,40,41
 278 633 278 633 260 623.5 c 128,-1,42
 242 614 242 614 230.5 589 c 128,-1,43
 219 564 219 564 219 519 c 2,44,-1
 219 157 l 1,45,46
 232 146 232 146 253 137 c 128,-1,47
 274 128 274 128 306 128 c 0,24,25
EndSplineSet
EndChar

StartChar: gamma
Encoding: 947 947 383
Width: 600
GlyphClass: 2
Flags: W
AnchorPoint: "Anchor-4" 580 553 basechar 0
AnchorPoint: "Anchor-3" 305 553 basechar 0
AnchorPoint: "Anchor-0" 303 -240 basechar 0
LayerCount: 2
Fore
SplineSet
161 -240 m 1,0,1
 161 -212 161 -212 167.5 -170 c 128,-1,2
 174 -128 174 -128 184.5 -81.5 c 128,-1,3
 195 -35 195 -35 208 6 c 1,4,-1
 10 553 l 1,5,-1
 192 553 l 1,6,-1
 253 347 l 2,7,8
 261 320 261 320 270.5 286.5 c 128,-1,9
 280 253 280 253 287.5 221.5 c 128,-1,10
 295 190 295 190 298 166 c 1,11,-1
 302 166 l 1,12,13
 304 188 304 188 317 235.5 c 128,-1,14
 330 283 330 283 346 339 c 2,15,-1
 408 553 l 1,16,-1
 590 553 l 1,17,-1
 393 8 l 2,18,19
 370 -54 370 -54 357.5 -122 c 128,-1,20
 345 -190 345 -190 345 -240 c 1,21,-1
 161 -240 l 1,0,1
EndSplineSet
EndChar

StartChar: delta
Encoding: 948 948 384
Width: 600
GlyphClass: 2
Flags: W
AnchorPoint: "Anchor-3" 327 767 basechar 0
AnchorPoint: "Anchor-0" 296 0 basechar 0
LayerCount: 2
Fore
SplineSet
297 -10 m 0,0,1
 219 -10 219 -10 158.5 16 c 128,-1,2
 98 42 98 42 64 92 c 128,-1,3
 30 142 30 142 30 214 c 0,4,5
 30 302 30 302 75.5 358 c 128,-1,6
 121 414 121 414 210 442 c 1,7,8
 160 475 160 475 130 517.5 c 128,-1,9
 100 560 100 560 100 613 c 0,10,11
 100 684 100 684 159.5 725.5 c 128,-1,12
 219 767 219 767 332 767 c 0,13,14
 400 767 400 767 457 753 c 128,-1,15
 514 739 514 739 570 712 c 1,16,-1
 503 587 l 1,17,18
 456 610 456 610 412.5 624 c 128,-1,19
 369 638 369 638 332 638 c 0,20,21
 298 638 298 638 283 627 c 128,-1,22
 268 616 268 616 268 599 c 0,23,24
 268 577 268 577 297 556 c 128,-1,25
 326 535 326 535 399 496 c 0,26,27
 490 447 490 447 529 385 c 128,-1,28
 568 323 568 323 568 240 c 0,29,30
 568 113 568 113 494.5 51.5 c 128,-1,31
 421 -10 421 -10 297 -10 c 0,0,1
299 124 m 256,32,33
 343 124 343 124 366.5 153.5 c 128,-1,34
 390 183 390 183 390 237 c 0,35,36
 390 283 390 283 367 316.5 c 128,-1,37
 344 350 344 350 307 374 c 1,38,39
 286 368 286 368 263 350 c 128,-1,40
 240 332 240 332 224 300.5 c 128,-1,41
 208 269 208 269 208 223 c 0,42,43
 208 180 208 180 231.5 152 c 128,-1,44
 255 124 255 124 299 124 c 256,32,33
EndSplineSet
EndChar

StartChar: epsilon
Encoding: 949 949 385
Width: 600
GlyphClass: 2
Flags: W
AnchorPoint: "Anchor-3" 300 553 basechar 0
AnchorPoint: "Anchor-0" 326 0 basechar 0
LayerCount: 2
Fore
SplineSet
322 -10 m 0,0,1
 179 -10 179 -10 118 33.5 c 128,-1,2
 57 77 57 77 57 155 c 0,3,4
 57 208 57 208 91.5 241.5 c 128,-1,5
 126 275 126 275 190 285 c 1,6,-1
 190 290 l 1,7,8
 142 302 142 302 115 334 c 128,-1,9
 88 366 88 366 88 413 c 0,10,11
 88 466 88 466 120.5 498.5 c 128,-1,12
 153 531 153 531 208 545.5 c 128,-1,13
 263 560 263 560 330 560 c 0,14,15
 391 560 391 560 443 549.5 c 128,-1,16
 495 539 495 539 542 519 c 1,17,-1
 491 398 l 1,18,19
 454 414 454 414 417 424 c 128,-1,20
 380 434 380 434 337 434 c 0,21,22
 250 434 250 434 250 392 c 0,23,24
 250 366 250 366 277 355 c 128,-1,25
 304 344 304 344 368 344 c 2,26,-1
 434 344 l 1,27,-1
 434 228 l 1,28,-1
 358 228 l 2,29,30
 283 228 283 228 257 214 c 128,-1,31
 231 200 231 200 231 174 c 0,32,33
 231 162 231 162 240 150 c 128,-1,34
 249 138 249 138 273 130 c 128,-1,35
 297 122 297 122 343 122 c 0,36,37
 405 122 405 122 455.5 135 c 128,-1,38
 506 148 506 148 541 164 c 1,39,-1
 541 29 l 1,40,41
 501 11 501 11 449 0.5 c 128,-1,42
 397 -10 397 -10 322 -10 c 0,0,1
EndSplineSet
EndChar

StartChar: zeta
Encoding: 950 950 386
Width: 600
GlyphClass: 2
Flags: W
AnchorPoint: "Anchor-3" 309 760 basechar 0
AnchorPoint: "Anchor-0" 307 -181 basechar 0
LayerCount: 2
Fore
SplineSet
287 -181 m 1,0,1
 320 -142 320 -142 340 -107.5 c 128,-1,2
 360 -73 360 -73 360 -53 c 0,3,4
 360 -38 360 -38 352.5 -27.5 c 128,-1,5
 345 -17 345 -17 322.5 -8.5 c 128,-1,6
 300 0 300 0 256 9 c 0,7,8
 149 32 149 32 108 86 c 128,-1,9
 67 140 67 140 67 229 c 0,10,11
 67 339 67 339 136.5 441.5 c 128,-1,12
 206 544 206 544 331 641 c 1,13,14
 314 636 314 636 285.5 633.5 c 128,-1,15
 257 631 257 631 240 631 c 2,16,-1
 95 631 l 1,17,-1
 95 760 l 1,18,-1
 524 760 l 1,19,-1
 524 656 l 1,20,21
 437 584 437 584 382 524.5 c 128,-1,22
 327 465 327 465 297.5 414.5 c 128,-1,23
 268 364 268 364 256.5 320 c 128,-1,24
 245 276 245 276 245 237 c 0,25,26
 245 200 245 200 258.5 180 c 128,-1,27
 272 160 272 160 302 149 c 128,-1,28
 332 138 332 138 382 127 c 0,29,30
 468 109 468 109 500 73 c 128,-1,31
 532 37 532 37 532 -12 c 0,32,33
 532 -57 532 -57 512.5 -100 c 128,-1,34
 493 -143 493 -143 465 -181 c 1,35,-1
 287 -181 l 1,0,1
EndSplineSet
EndChar

StartChar: eta
Encoding: 951 951 387
Width: 600
GlyphClass: 2
Flags: W
AnchorPoint: "Anchor-4" 580 553 basechar 0
AnchorPoint: "Anchor-3" 300 553 basechar 0
AnchorPoint: "Anchor-0" 305 -240 basechar 0
LayerCount: 2
Fore
SplineSet
45 0 m 1,0,-1
 45 553 l 1,1,-1
 175 553 l 1,2,-1
 198 483 l 1,3,-1
 208 483 l 1,4,5
 234 521 234 521 274.5 542 c 128,-1,6
 315 563 315 563 374 563 c 0,7,8
 470 563 470 563 515 509.5 c 128,-1,9
 560 456 560 456 560 359 c 2,10,-1
 560 -240 l 1,11,-1
 385 -240 l 1,12,-1
 385 301 l 2,13,14
 385 366 385 366 367 394 c 128,-1,15
 349 422 349 422 311 422 c 0,16,17
 258 422 258 422 239 374.5 c 128,-1,18
 220 327 220 327 220 241 c 2,19,-1
 220 0 l 1,20,-1
 45 0 l 1,0,-1
EndSplineSet
EndChar

StartChar: theta
Encoding: 952 952 388
Width: 600
GlyphClass: 2
Flags: W
AnchorPoint: "Anchor-4" 580 769 basechar 0
AnchorPoint: "Anchor-3" 301 769 basechar 0
AnchorPoint: "Anchor-0" 299 0 basechar 0
LayerCount: 2
Fore
SplineSet
298 -10 m 0,0,1
 166 -10 166 -10 101 93.5 c 128,-1,2
 36 197 36 197 36 380 c 0,3,4
 36 502 36 502 62 589 c 128,-1,5
 88 676 88 676 145.5 722.5 c 128,-1,6
 203 769 203 769 298 769 c 0,7,8
 431 769 431 769 497 666.5 c 128,-1,9
 563 564 563 564 563 380 c 0,10,11
 563 258 563 258 536.5 170.5 c 128,-1,12
 510 83 510 83 452 36.5 c 128,-1,13
 394 -10 394 -10 298 -10 c 0,0,1
216 443 m 1,14,-1
 385 443 l 1,15,16
 382 544 382 544 361.5 594.5 c 128,-1,17
 341 645 341 645 300 645 c 0,18,19
 258 645 258 645 238 594.5 c 128,-1,20
 218 544 218 544 216 443 c 1,14,-1
298 114 m 0,21,22
 342 114 342 114 362 165 c 128,-1,23
 382 216 382 216 384 318 c 1,24,-1
 214 318 l 1,25,26
 215 218 215 218 235 166 c 128,-1,27
 255 114 255 114 298 114 c 0,21,22
EndSplineSet
EndChar

StartChar: iota
Encoding: 953 953 389
Width: 600
GlyphClass: 2
Flags: W
AnchorPoint: "Anchor-3" 274 553 basechar 0
AnchorPoint: "Anchor-0" 373 0 basechar 0
LayerCount: 2
Fore
SplineSet
372 -10 m 0,0,1
 318 -10 318 -10 274.5 6.5 c 128,-1,2
 231 23 231 23 205.5 63.5 c 128,-1,3
 180 104 180 104 180 177 c 2,4,-1
 180 553 l 1,5,-1
 355 553 l 1,6,-1
 355 183 l 2,7,8
 355 152 355 152 372.5 140 c 128,-1,9
 390 128 390 128 415 128 c 0,10,11
 441 128 441 128 463.5 133 c 128,-1,12
 486 138 486 138 514 148 c 1,13,-1
 514 19 l 1,14,15
 488 6 488 6 452 -2 c 128,-1,16
 416 -10 416 -10 372 -10 c 0,0,1
EndSplineSet
EndChar

StartChar: lambda
Encoding: 955 955 391
Width: 600
GlyphClass: 2
Flags: W
AnchorPoint: "Anchor-3" 301 766 basechar 0
AnchorPoint: "Anchor-0" 299 0 basechar 0
LayerCount: 2
Fore
SplineSet
502 -10 m 0,0,1
 460 -10 460 -10 433 7.5 c 128,-1,2
 406 25 406 25 389 54.5 c 128,-1,3
 372 84 372 84 360 120 c 2,4,-1
 331 228 l 2,5,6
 322 261 322 261 314 286.5 c 128,-1,7
 306 312 306 312 302 331 c 1,8,-1
 298 331 l 1,9,10
 294 306 294 306 285.5 278 c 128,-1,11
 277 250 277 250 269 230 c 2,12,-1
 175 0 l 1,13,-1
 4 0 l 1,14,-1
 229 516 l 1,15,-1
 218 546 l 2,16,17
 199 597 199 597 177.5 611.5 c 128,-1,18
 156 626 156 626 126 626 c 0,19,20
 95 626 95 626 66 618 c 1,21,-1
 66 758 l 1,22,23
 80 761 80 761 108 763.5 c 128,-1,24
 136 766 136 766 154 766 c 0,25,26
 212 766 212 766 249.5 746.5 c 128,-1,27
 287 727 287 727 312 687.5 c 128,-1,28
 337 648 337 648 357 588 c 2,29,-1
 474 236 l 2,30,31
 490 190 490 190 504 167 c 128,-1,32
 518 144 518 144 532.5 137 c 128,-1,33
 547 130 547 130 564 130 c 0,34,35
 572 130 572 130 581 131.5 c 128,-1,36
 590 133 590 133 600 135 c 1,37,-1
 600 6 l 1,38,39
 592 2 592 2 573.5 -1.5 c 128,-1,40
 555 -5 555 -5 535 -7.5 c 128,-1,41
 515 -10 515 -10 502 -10 c 0,0,1
EndSplineSet
EndChar

StartChar: uni03BC
Encoding: 956 956 392
Width: 600
GlyphClass: 2
Flags: W
AnchorPoint: "Anchor-4" 580 553 basechar 0
AnchorPoint: "Anchor-3" 300 553 basechar 0
AnchorPoint: "Anchor-2" 540 10 basechar 0
AnchorPoint: "Anchor-0" 300 -240 basechar 0
LayerCount: 2
Fore
SplineSet
226 -11 m 0,0,1
 220 -11 220 -11 215 -11 c 1,2,-1
 215 -240 l 1,3,-1
 40 -240 l 1,4,-1
 40 553 l 1,5,-1
 215 553 l 1,6,-1
 215 247 l 2,7,8
 215 189 215 189 232.5 159.5 c 128,-1,9
 250 130 250 130 294 130 c 0,10,11
 331 130 331 130 349.5 149.5 c 128,-1,12
 368 169 368 169 374 202.5 c 128,-1,13
 380 236 380 236 380 276 c 2,14,-1
 380 553 l 1,15,-1
 555 553 l 1,16,-1
 555 0 l 1,17,-1
 425 0 l 1,18,-1
 402 69 l 1,19,-1
 392 69 l 1,20,21
 366 30 366 30 326 9.5 c 128,-1,22
 286 -11 286 -11 226 -11 c 0,0,1
EndSplineSet
EndChar

StartChar: nu
Encoding: 957 957 393
Width: 600
GlyphClass: 2
Flags: W
AnchorPoint: "Anchor-3" 301 553 basechar 0
AnchorPoint: "Anchor-0" 305 0 basechar 0
LayerCount: 2
Fore
SplineSet
206 0 m 1,0,-1
 31 553 l 1,1,-1
 211 553 l 1,2,-1
 289 242 l 2,3,4
 294 225 294 225 298 200 c 128,-1,5
 302 175 302 175 306 157 c 1,6,-1
 311 157 l 1,7,8
 334 203 334 203 349 258 c 128,-1,9
 364 313 364 313 371.5 385 c 128,-1,10
 379 457 379 457 379 553 c 1,11,-1
 554 553 l 1,12,13
 554 448 554 448 536 354.5 c 128,-1,14
 518 261 518 261 475.5 174 c 128,-1,15
 433 87 433 87 359 0 c 1,16,-1
 206 0 l 1,0,-1
EndSplineSet
EndChar

StartChar: xi
Encoding: 958 958 394
Width: 600
GlyphClass: 2
Flags: W
AnchorPoint: "Anchor-3" 339 760 basechar 0
AnchorPoint: "Anchor-0" 337 -181 basechar 0
LayerCount: 2
Fore
SplineSet
287 -181 m 1,0,1
 320 -142 320 -142 340 -104 c 128,-1,2
 360 -66 360 -66 360 -44 c 0,3,4
 360 -24 360 -24 339.5 -15 c 128,-1,5
 319 -6 319 -6 269 6 c 0,6,7
 243 12 243 12 208.5 23.5 c 128,-1,8
 174 35 174 35 141.5 57 c 128,-1,9
 109 79 109 79 88 115.5 c 128,-1,10
 67 152 67 152 67 209 c 0,11,12
 67 279 67 279 103 324 c 128,-1,13
 139 369 139 369 205 395 c 1,14,-1
 205 399 l 1,15,16
 152 411 152 411 125 442 c 128,-1,17
 98 473 98 473 98 517 c 0,18,19
 98 610 98 610 216 637 c 1,20,21
 208 636 208 636 189 634.5 c 128,-1,22
 170 633 170 633 148.5 632 c 128,-1,23
 127 631 127 631 109 631 c 2,24,-1
 88 631 l 1,25,-1
 88 760 l 1,26,-1
 507 760 l 1,27,-1
 507 633 l 1,28,-1
 443 633 l 2,29,30
 398 633 398 633 359 623 c 128,-1,31
 320 613 320 613 296 590.5 c 128,-1,32
 272 568 272 568 272 529 c 0,33,34
 272 494 272 494 298 475.5 c 128,-1,35
 324 457 324 457 395 457 c 2,36,-1
 474 457 l 1,37,-1
 474 331 l 1,38,-1
 395 331 l 2,39,40
 336 331 336 331 303.5 318 c 128,-1,41
 271 305 271 305 258 281 c 128,-1,42
 245 257 245 257 245 225 c 256,43,44
 245 193 245 193 257.5 176.5 c 128,-1,45
 270 160 270 160 299 150 c 128,-1,46
 328 140 328 140 378 128 c 0,47,48
 413 120 413 120 448.5 105.5 c 128,-1,49
 484 91 484 91 508 63.5 c 128,-1,50
 532 36 532 36 532 -13 c 0,51,52
 532 -57 532 -57 512.5 -100 c 128,-1,53
 493 -143 493 -143 465 -181 c 1,54,-1
 287 -181 l 1,0,1
EndSplineSet
EndChar

StartChar: pi
Encoding: 960 960 396
Width: 600
GlyphClass: 2
Flags: W
AnchorPoint: "Anchor-3" 291 553 basechar 0
AnchorPoint: "Anchor-0" 291 0 basechar 0
LayerCount: 2
Fore
SplineSet
468 -10 m 0,0,1
 406 -10 406 -10 367 33.5 c 128,-1,2
 328 77 328 77 328 164 c 2,3,-1
 328 422 l 1,4,-1
 251 422 l 1,5,-1
 251 0 l 1,6,-1
 95 0 l 1,7,-1
 95 422 l 1,8,-1
 -2 422 l 1,9,-1
 -2 497 l 1,10,-1
 92 553 l 1,11,-1
 593 553 l 1,12,-1
 593 422 l 1,13,-1
 484 422 l 1,14,-1
 484 179 l 2,15,16
 484 152 484 152 497 139.5 c 128,-1,17
 510 127 510 127 530 127 c 0,18,19
 546 127 546 127 565.5 131.5 c 128,-1,20
 585 136 585 136 601 144 c 1,21,-1
 601 23 l 1,22,23
 580 10 580 10 543.5 0 c 128,-1,24
 507 -10 507 -10 468 -10 c 0,0,1
EndSplineSet
EndChar

StartChar: rho
Encoding: 961 961 397
Width: 600
GlyphClass: 2
Flags: W
AnchorPoint: "Anchor-3" 308 553 basechar 0
AnchorPoint: "Anchor-0" 300 -240 basechar 0
LayerCount: 2
Fore
SplineSet
45 -240 m 1,0,-1
 45 273 l 2,1,2
 45 407 45 407 114.5 483.5 c 128,-1,3
 184 560 184 560 305 560 c 0,4,5
 382 560 382 560 442 527.5 c 128,-1,6
 502 495 502 495 536 430 c 128,-1,7
 570 365 570 365 570 268 c 0,8,9
 570 183 570 183 543.5 120.5 c 128,-1,10
 517 58 517 58 468 24 c 128,-1,11
 419 -10 419 -10 352 -10 c 0,12,13
 315 -10 315 -10 281 -0.5 c 128,-1,14
 247 9 247 9 222 25 c 1,15,-1
 210 25 l 1,16,17
 216 -10 216 -10 218 -40 c 128,-1,18
 220 -70 220 -70 220 -105 c 2,19,-1
 220 -240 l 1,20,-1
 45 -240 l 1,0,-1
309 127 m 0,21,22
 352 127 352 127 371.5 161 c 128,-1,23
 391 195 391 195 391 275 c 256,24,25
 391 355 391 355 371 391 c 128,-1,26
 351 427 351 427 307 427 c 0,27,28
 220 427 220 427 220 292 c 2,29,-1
 220 166 l 1,30,31
 236 147 236 147 260 137 c 128,-1,32
 284 127 284 127 309 127 c 0,21,22
EndSplineSet
EndChar

StartChar: sigma1
Encoding: 962 962 398
Width: 600
GlyphClass: 2
Flags: W
AnchorPoint: "Anchor-3" 340 553 basechar 0
AnchorPoint: "Anchor-0" 328 -182 basechar 0
LayerCount: 2
Fore
SplineSet
280 -181 m 1,0,1
 313 -141 313 -141 333 -101.5 c 128,-1,2
 353 -62 353 -62 353 -43 c 0,3,4
 353 -32 353 -32 345.5 -23 c 128,-1,5
 338 -14 338 -14 316 -5.5 c 128,-1,6
 294 3 294 3 249 13 c 0,7,8
 192 26 192 26 149.5 53 c 128,-1,9
 107 80 107 80 83.5 130 c 128,-1,10
 60 180 60 180 60 260 c 0,11,12
 60 417 60 417 135 488.5 c 128,-1,13
 210 560 210 560 340 560 c 0,14,15
 386 560 386 560 433.5 549.5 c 128,-1,16
 481 539 481 539 526 517 c 1,17,-1
 476 387 l 1,18,19
 438 403 438 403 408.5 412.5 c 128,-1,20
 379 422 379 422 338 422 c 0,21,22
 286 422 286 422 262 379.5 c 128,-1,23
 238 337 238 337 238 260 c 0,24,25
 238 210 238 210 267.5 179 c 128,-1,26
 297 148 297 148 375 132 c 0,27,28
 461 114 461 114 493 77 c 128,-1,29
 525 40 525 40 525 -10 c 0,30,31
 525 -55 525 -55 505.5 -99 c 128,-1,32
 486 -143 486 -143 458 -181 c 1,33,-1
 280 -181 l 1,0,1
EndSplineSet
EndChar

StartChar: sigma
Encoding: 963 963 399
Width: 600
GlyphClass: 2
Flags: W
AnchorPoint: "Anchor-3" 290 553 basechar 0
AnchorPoint: "Anchor-0" 290 0 basechar 0
LayerCount: 2
Fore
SplineSet
288 -10 m 0,0,1
 172 -10 172 -10 101 59 c 128,-1,2
 30 128 30 128 30 269 c 0,3,4
 30 407 30 407 104.5 480 c 128,-1,5
 179 553 179 553 333 553 c 2,6,-1
 584 553 l 1,7,-1
 584 423 l 1,8,-1
 456 423 l 1,9,10
 497 388 497 388 521 341.5 c 128,-1,11
 545 295 545 295 545 232 c 0,12,13
 545 162 545 162 515 107.5 c 128,-1,14
 485 53 485 53 427.5 21.5 c 128,-1,15
 370 -10 370 -10 288 -10 c 0,0,1
288 130 m 0,16,17
 329 130 329 130 348 165 c 128,-1,18
 367 200 367 200 367 261 c 0,19,20
 367 317 367 317 358 352 c 128,-1,21
 349 387 349 387 332 423 c 1,22,-1
 316 423 l 2,23,24
 262 423 262 423 235.5 387.5 c 128,-1,25
 209 352 209 352 209 270 c 0,26,27
 209 206 209 206 226.5 168 c 128,-1,28
 244 130 244 130 288 130 c 0,16,17
EndSplineSet
EndChar

StartChar: tau
Encoding: 964 964 400
Width: 600
GlyphClass: 2
Flags: W
AnchorPoint: "Anchor-3" 319 553 basechar 0
AnchorPoint: "Anchor-0" 357 0 basechar 0
LayerCount: 2
Fore
SplineSet
375 -9 m 0,0,1
 321 -9 321 -9 279.5 7 c 128,-1,2
 238 23 238 23 215 63.5 c 128,-1,3
 192 104 192 104 192 178 c 2,4,-1
 192 423 l 1,5,-1
 58 423 l 1,6,-1
 58 497 l 1,7,-1
 150 553 l 1,8,-1
 542 553 l 1,9,-1
 542 423 l 1,10,-1
 367 423 l 1,11,-1
 367 185 l 2,12,13
 367 156 367 156 381.5 142 c 128,-1,14
 396 128 396 128 422 128 c 0,15,16
 447 128 447 128 469.5 133.5 c 128,-1,17
 492 139 492 139 516 148 c 1,18,-1
 516 19 l 1,19,20
 490 7 490 7 454 -1 c 128,-1,21
 418 -9 418 -9 375 -9 c 0,0,1
EndSplineSet
EndChar

StartChar: upsilon
Encoding: 965 965 401
Width: 600
GlyphClass: 2
Flags: W
AnchorPoint: "Anchor-3" 300 553 basechar 0
AnchorPoint: "Anchor-0" 297 0 basechar 0
LayerCount: 2
Fore
SplineSet
297 -8 m 0,0,1
 198 -8 198 -8 143.5 26 c 128,-1,2
 89 60 89 60 67 119 c 128,-1,3
 45 178 45 178 45 251 c 2,4,-1
 45 553 l 1,5,-1
 220 553 l 1,6,-1
 220 243 l 2,7,8
 220 182 220 182 239.5 156 c 128,-1,9
 259 130 259 130 300 130 c 0,10,11
 347 130 347 130 371 167 c 128,-1,12
 395 204 395 204 395 301 c 0,13,14
 395 364 395 364 385.5 424.5 c 128,-1,15
 376 485 376 485 358 553 c 1,16,-1
 535 553 l 1,17,18
 570 424 570 424 570 306 c 0,19,20
 570 142 570 142 502 67 c 128,-1,21
 434 -8 434 -8 297 -8 c 0,0,1
EndSplineSet
EndChar

StartChar: phi
Encoding: 966 966 402
Width: 600
GlyphClass: 2
Flags: W
AnchorPoint: "Anchor-3" 295 553 basechar 0
AnchorPoint: "Anchor-0" 295 -240 basechar 0
LayerCount: 2
Fore
SplineSet
229 -240 m 1,0,-1
 229 -5 l 1,1,2
 132 5 132 5 81 77 c 128,-1,3
 30 149 30 149 30 272 c 0,4,5
 30 352 30 352 52.5 423 c 128,-1,6
 75 494 75 494 123 560 c 1,7,-1
 233 496 l 1,8,9
 208 450 208 450 193 390.5 c 128,-1,10
 178 331 178 331 178 264 c 0,11,12
 178 205 178 205 190.5 166.5 c 128,-1,13
 203 128 203 128 229 117 c 1,14,-1
 229 343 l 2,15,16
 229 452 229 452 269 504.5 c 128,-1,17
 309 557 309 557 384 557 c 0,18,19
 476 557 476 557 523 485.5 c 128,-1,20
 570 414 570 414 570 295 c 0,21,22
 570 166 570 166 516 86.5 c 128,-1,23
 462 7 462 7 362 -5 c 1,24,-1
 362 -240 l 1,25,-1
 229 -240 l 1,0,-1
362 117 m 1,26,27
 393 124 393 124 407.5 169 c 128,-1,28
 422 214 422 214 422 308 c 0,29,30
 422 365 422 365 415 400 c 128,-1,31
 408 435 408 435 387 435 c 0,32,33
 370 435 370 435 366 412.5 c 128,-1,34
 362 390 362 390 362 351 c 2,35,-1
 362 117 l 1,26,27
EndSplineSet
EndChar

StartChar: chi
Encoding: 967 967 403
Width: 600
GlyphClass: 2
Flags: W
AnchorPoint: "Anchor-4" 580 553 basechar 0
AnchorPoint: "Anchor-3" 314 553 basechar 0
AnchorPoint: "Anchor-0" 314 -246 basechar 0
LayerCount: 2
Fore
SplineSet
504 -246 m 0,0,1
 456 -246 456 -246 426 -229 c 128,-1,2
 396 -212 396 -212 376 -178 c 128,-1,3
 356 -144 356 -144 340 -94 c 2,4,-1
 299 30 l 1,5,-1
 188 -240 l 1,6,-1
 10 -240 l 1,7,-1
 224 196 l 1,8,-1
 166 357 l 2,9,10
 152 397 152 397 143.5 407.5 c 128,-1,11
 135 418 135 418 116 418 c 0,12,13
 106 418 106 418 95.5 416 c 128,-1,14
 85 414 85 414 65 407 c 1,15,-1
 65 541 l 1,16,17
 86 548 86 548 110 553.5 c 128,-1,18
 134 559 134 559 163 559 c 0,19,20
 222 559 222 559 254 527.5 c 128,-1,21
 286 496 286 496 311 417 c 2,22,-1
 334 344 l 1,23,-1
 420 553 l 1,24,-1
 590 553 l 1,25,-1
 408 177 l 1,26,-1
 474 -44 l 2,27,28
 492 -103 492 -103 541 -103 c 0,29,30
 552 -103 552 -103 566 -100.5 c 128,-1,31
 580 -98 580 -98 588 -93 c 1,32,-1
 588 -222 l 1,33,34
 579 -229 579 -229 560.5 -237.5 c 128,-1,35
 542 -246 542 -246 504 -246 c 0,0,1
EndSplineSet
EndChar

StartChar: psi
Encoding: 968 968 404
Width: 600
GlyphClass: 2
Flags: W
AnchorPoint: "Anchor-3" 300 760 basechar 0
AnchorPoint: "Anchor-0" 300 -240 basechar 0
LayerCount: 2
Fore
SplineSet
237 -240 m 1,0,-1
 237 -9 l 1,1,2
 139 -4 139 -4 92 56 c 128,-1,3
 45 116 45 116 45 251 c 2,4,-1
 45 553 l 1,5,-1
 182 553 l 1,6,-1
 182 258 l 2,7,8
 182 190 182 190 194.5 157 c 128,-1,9
 207 124 207 124 237 120 c 1,10,-1
 237 760 l 1,11,-1
 367 760 l 1,12,-1
 367 120 l 1,13,14
 401 127 401 127 416 163 c 128,-1,15
 431 199 431 199 431 284 c 0,16,17
 431 412 431 412 398 553 c 1,18,-1
 532 553 l 1,19,20
 553 471 553 471 561.5 407.5 c 128,-1,21
 570 344 570 344 570 281 c 0,22,23
 570 146 570 146 519.5 72 c 128,-1,24
 469 -2 469 -2 367 -9 c 1,25,-1
 367 -240 l 1,26,-1
 237 -240 l 1,0,-1
EndSplineSet
EndChar

StartChar: omega
Encoding: 969 969 405
Width: 600
GlyphClass: 2
Flags: W
AnchorPoint: "Anchor-3" 300 553 basechar 0
AnchorPoint: "Anchor-0" 300 0 basechar 0
LayerCount: 2
Fore
SplineSet
189 -10 m 0,0,1
 112 -10 112 -10 71 62.5 c 128,-1,2
 30 135 30 135 30 278 c 0,3,4
 30 347 30 347 40.5 413 c 128,-1,5
 51 479 51 479 74 553 c 1,6,-1
 211 553 l 1,7,8
 188 492 188 492 176.5 422 c 128,-1,9
 165 352 165 352 165 261 c 0,10,11
 165 196 165 196 173 165 c 128,-1,12
 181 134 181 134 204 134 c 0,13,14
 224 134 224 134 231.5 159.5 c 128,-1,15
 239 185 239 185 239 249 c 2,16,-1
 239 382 l 1,17,-1
 361 382 l 1,18,-1
 361 249 l 2,19,20
 361 184 361 184 367.5 159 c 128,-1,21
 374 134 374 134 394 134 c 0,22,23
 416 134 416 134 425.5 165 c 128,-1,24
 435 196 435 196 435 263 c 0,25,26
 435 342 435 342 423.5 415.5 c 128,-1,27
 412 489 412 489 388 553 c 1,28,-1
 526 553 l 1,29,30
 548 485 548 485 559 415.5 c 128,-1,31
 570 346 570 346 570 276 c 0,32,33
 570 134 570 134 529 62 c 128,-1,34
 488 -10 488 -10 411 -10 c 0,35,36
 365 -10 365 -10 339 17 c 128,-1,37
 313 44 313 44 302 102 c 1,38,-1
 298 102 l 1,39,40
 286 43 286 43 260 16.5 c 128,-1,41
 234 -10 234 -10 189 -10 c 0,0,1
EndSplineSet
EndChar

StartChar: afii10051
Encoding: 1026 1026 412
Width: 600
GlyphClass: 2
Flags: W
AnchorPoint: "Anchor-3" 195 714 basechar 0
AnchorPoint: "Anchor-0" 300 0 basechar 0
LayerCount: 2
Fore
SplineSet
369 -10 m 0,0,1
 347 -10 347 -10 331.5 -7 c 128,-1,2
 316 -4 316 -4 302 0 c 1,3,-1
 302 129 l 1,4,5
 316 120 316 120 346 120 c 0,6,7
 378 120 378 120 395.5 137 c 128,-1,8
 413 154 413 154 413 200 c 2,9,-1
 413 252 l 2,10,11
 413 295 413 295 389 312 c 128,-1,12
 365 329 365 329 316 329 c 2,13,-1
 251 329 l 1,14,-1
 251 0 l 1,15,-1
 103 0 l 1,16,-1
 103 581 l 1,17,-1
 0 581 l 1,18,-1
 0 714 l 1,19,-1
 403 714 l 1,20,-1
 403 581 l 1,21,-1
 251 581 l 1,22,-1
 251 461 l 1,23,-1
 337 461 l 2,24,25
 446 461 446 461 503 409.5 c 128,-1,26
 560 358 560 358 560 266 c 2,27,-1
 560 193 l 2,28,29
 560 94 560 94 510 42 c 128,-1,30
 460 -10 460 -10 369 -10 c 0,0,1
EndSplineSet
EndChar

StartChar: afii10053
Encoding: 1028 1028 414
Width: 600
GlyphClass: 2
Flags: W
AnchorPoint: "Anchor-3" 364 714 basechar 0
AnchorPoint: "Anchor-0" 358 0 basechar 0
LayerCount: 2
Fore
SplineSet
358 -10 m 0,0,1
 195 -10 195 -10 107.5 84 c 128,-1,2
 20 178 20 178 20 348 c 0,3,4
 20 464 20 464 60.5 548 c 128,-1,5
 101 632 101 632 178 678 c 128,-1,6
 255 724 255 724 364 724 c 0,7,8
 416 724 416 724 470 712.5 c 128,-1,9
 524 701 524 701 568 676 c 1,10,-1
 526 550 l 1,11,12
 494 569 494 569 454.5 580.5 c 128,-1,13
 415 592 415 592 369 592 c 0,14,15
 304 592 304 592 266 569.5 c 128,-1,16
 228 547 228 547 208.5 510.5 c 128,-1,17
 189 474 189 474 180 431 c 1,18,-1
 466 431 l 1,19,-1
 466 300 l 1,20,-1
 179 300 l 1,21,22
 184 218 184 218 234.5 170.5 c 128,-1,23
 285 123 285 123 375 123 c 0,24,25
 422 123 422 123 466 135.5 c 128,-1,26
 510 148 510 148 545 165 c 1,27,-1
 545 28 l 1,28,29
 510 8 510 8 459 -1 c 128,-1,30
 408 -10 408 -10 358 -10 c 0,0,1
EndSplineSet
EndChar

StartChar: afii10058
Encoding: 1033 1033 419
Width: 600
GlyphClass: 2
Flags: W
AnchorPoint: "Anchor-3" 241 714 basechar 0
AnchorPoint: "Anchor-0" 300 0 basechar 0
LayerCount: 2
Fore
SplineSet
59 -8 m 0,0,1
 42 -8 42 -8 28.5 -6 c 128,-1,2
 15 -4 15 -4 5 -1 c 1,3,-1
 5 122 l 1,4,5
 10 120 10 120 14.5 119 c 128,-1,6
 19 118 19 118 26 118 c 0,7,8
 43 118 43 118 53.5 140 c 128,-1,9
 64 162 64 162 72 227 c 0,10,11
 75 249 75 249 78.5 300.5 c 128,-1,12
 82 352 82 352 85 421 c 128,-1,13
 88 490 88 490 90.5 566 c 128,-1,14
 93 642 93 642 94 714 c 1,15,-1
 397 714 l 1,16,-1
 397 454 l 1,17,-1
 420 454 l 2,18,19
 478 454 478 454 516 426 c 128,-1,20
 554 398 554 398 572.5 348.5 c 128,-1,21
 591 299 591 299 591 235 c 0,22,23
 591 125 591 125 542.5 62.5 c 128,-1,24
 494 0 494 0 402 0 c 2,25,-1
 262 0 l 1,26,-1
 262 582 l 1,27,-1
 226 582 l 1,28,29
 224 520 224 520 221.5 454.5 c 128,-1,30
 219 389 219 389 215 328 c 128,-1,31
 211 267 211 267 206.5 218.5 c 128,-1,32
 202 170 202 170 198 142 c 0,33,34
 189 79 189 79 169.5 46.5 c 128,-1,35
 150 14 150 14 122 3 c 128,-1,36
 94 -8 94 -8 59 -8 c 0,0,1
397 132 m 1,37,-1
 410 132 l 2,38,39
 431 132 431 132 443.5 154 c 128,-1,40
 456 176 456 176 456 229 c 256,41,42
 456 282 456 282 442 302 c 128,-1,43
 428 322 428 322 409 322 c 2,44,-1
 397 322 l 1,45,-1
 397 132 l 1,37,-1
EndSplineSet
EndChar

StartChar: afii10059
Encoding: 1034 1034 420
Width: 600
GlyphClass: 2
Flags: W
AnchorPoint: "Anchor-3" 215 714 basechar 0
AnchorPoint: "Anchor-0" 300 0 basechar 0
LayerCount: 2
Fore
SplineSet
30 0 m 1,0,-1
 30 714 l 1,1,-1
 158 714 l 1,2,-1
 158 444 l 1,3,-1
 273 444 l 1,4,-1
 273 714 l 1,5,-1
 401 714 l 1,6,-1
 401 451 l 1,7,-1
 424 451 l 2,8,9
 509 451 509 451 554.5 396 c 128,-1,10
 600 341 600 341 600 230 c 0,11,12
 600 120 600 120 556 60 c 128,-1,13
 512 0 512 0 432 0 c 2,14,-1
 273 0 l 1,15,-1
 273 314 l 1,16,-1
 158 314 l 1,17,-1
 158 0 l 1,18,-1
 30 0 l 1,0,-1
401 130 m 1,19,-1
 424 130 l 2,20,21
 476 130 476 130 476 229 c 0,22,23
 476 321 476 321 423 321 c 2,24,-1
 401 321 l 1,25,-1
 401 130 l 1,19,-1
EndSplineSet
EndChar

StartChar: afii10060
Encoding: 1035 1035 421
Width: 600
GlyphClass: 2
Flags: W
AnchorPoint: "Anchor-3" 205 714 basechar 0
AnchorPoint: "Anchor-0" 329 0 basechar 0
LayerCount: 2
Fore
SplineSet
102 0 m 1,0,-1
 102 581 l 1,1,-1
 0 581 l 1,2,-1
 0 714 l 1,3,-1
 403 714 l 1,4,-1
 403 581 l 1,5,-1
 250 581 l 1,6,-1
 250 461 l 1,7,-1
 354 461 l 2,8,9
 454 461 454 461 507 409.5 c 128,-1,10
 560 358 560 358 560 266 c 2,11,-1
 560 0 l 1,12,-1
 412 0 l 1,13,-1
 412 266 l 2,14,15
 412 329 412 329 333 329 c 2,16,-1
 250 329 l 1,17,-1
 250 0 l 1,18,-1
 102 0 l 1,0,-1
EndSplineSet
EndChar

StartChar: afii10145
Encoding: 1039 1039 424
Width: 600
GlyphClass: 2
Flags: W
AnchorPoint: "Anchor-3" 300 714 basechar 0
AnchorPoint: "Anchor-0" 300 -217 basechar 0
LayerCount: 2
Fore
SplineSet
219 -217 m 1,0,-1
 219 0 l 1,1,-1
 40 0 l 1,2,-1
 40 714 l 1,3,-1
 217 714 l 1,4,-1
 217 146 l 1,5,-1
 383 146 l 1,6,-1
 383 714 l 1,7,-1
 560 714 l 1,8,-1
 560 0 l 1,9,-1
 381 0 l 1,10,-1
 381 -217 l 1,11,-1
 219 -217 l 1,0,-1
EndSplineSet
EndChar

StartChar: afii10018
Encoding: 1041 1041 426
Width: 600
GlyphClass: 2
Flags: W
AnchorPoint: "Anchor-3" 300 714 basechar 0
AnchorPoint: "Anchor-0" 300 0 basechar 0
LayerCount: 2
Fore
SplineSet
60 0 m 1,0,-1
 60 714 l 1,1,-1
 513 714 l 1,2,-1
 513 571 l 1,3,-1
 240 571 l 1,4,-1
 240 454 l 1,5,-1
 303 454 l 2,6,7
 393 454 393 454 452 426 c 128,-1,8
 511 398 511 398 540.5 348.5 c 128,-1,9
 570 299 570 299 570 235 c 0,10,11
 570 125 570 125 498.5 62.5 c 128,-1,12
 427 0 427 0 290 0 c 2,13,-1
 60 0 l 1,0,-1
237 142 m 1,14,-1
 289 142 l 2,15,16
 393 142 393 142 393 229 c 0,17,18
 393 274 393 274 363.5 293 c 128,-1,19
 334 312 334 312 287 312 c 2,20,-1
 237 312 l 1,21,-1
 237 142 l 1,14,-1
EndSplineSet
EndChar

StartChar: afii10021
Encoding: 1044 1044 429
Width: 600
GlyphClass: 2
Flags: W
AnchorPoint: "Anchor-3" 340 714 basechar 0
AnchorPoint: "Anchor-0" 300 -216 basechar 0
LayerCount: 2
Fore
SplineSet
5 -216 m 1,0,-1
 5 132 l 1,1,-1
 49 132 l 1,2,3
 100 260 100 260 127 404 c 128,-1,4
 154 548 154 548 160 714 c 1,5,-1
 513 714 l 1,6,-1
 513 132 l 1,7,-1
 585 132 l 1,8,-1
 585 -216 l 1,9,-1
 437 -216 l 1,10,-1
 437 0 l 1,11,-1
 153 0 l 1,12,-1
 153 -216 l 1,13,-1
 5 -216 l 1,0,-1
208 132 m 1,14,-1
 365 132 l 1,15,-1
 365 585 l 1,16,-1
 295 585 l 1,17,18
 288 464 288 464 266 351 c 128,-1,19
 244 238 244 238 208 132 c 1,14,-1
EndSplineSet
EndChar

StartChar: afii10024
Encoding: 1046 1046 431
Width: 600
GlyphClass: 2
Flags: W
AnchorPoint: "Anchor-3" 300 714 basechar 0
AnchorPoint: "Anchor-0" 300 0 basechar 0
LayerCount: 2
Fore
SplineSet
0 0 m 1,0,-1
 84 368 l 1,1,-1
 6 714 l 1,2,-1
 163 714 l 1,3,-1
 226 368 l 1,4,-1
 226 714 l 1,5,-1
 376 714 l 1,6,-1
 376 368 l 1,7,-1
 441 714 l 1,8,-1
 593 714 l 1,9,-1
 520 368 l 1,10,-1
 600 0 l 1,11,-1
 445 0 l 1,12,-1
 376 362 l 1,13,-1
 376 0 l 1,14,-1
 226 0 l 1,15,-1
 226 362 l 1,16,-1
 159 0 l 1,17,-1
 0 0 l 1,0,-1
EndSplineSet
EndChar

StartChar: afii10025
Encoding: 1047 1047 432
Width: 600
GlyphClass: 2
Flags: W
AnchorPoint: "Anchor-3" 300 714 basechar 0
AnchorPoint: "Anchor-0" 300 0 basechar 0
LayerCount: 2
Fore
SplineSet
263 -10 m 0,0,1
 207 -10 207 -10 156 0.5 c 128,-1,2
 105 11 105 11 60 29 c 1,3,-1
 60 180 l 1,4,5
 108 157 108 157 154.5 145 c 128,-1,6
 201 133 201 133 254 133 c 0,7,8
 315 133 315 133 350 154 c 128,-1,9
 385 175 385 175 385 217 c 0,10,11
 385 260 385 260 352 280.5 c 128,-1,12
 319 301 319 301 246 301 c 2,13,-1
 159 301 l 1,14,-1
 159 442 l 1,15,-1
 238 442 l 2,16,17
 290 442 290 442 317.5 452 c 128,-1,18
 345 462 345 462 355.5 479 c 128,-1,19
 366 496 366 496 366 517 c 0,20,21
 366 580 366 580 276 580 c 0,22,23
 232 580 232 580 193 565 c 128,-1,24
 154 550 154 550 120 527 c 1,25,-1
 55 648 l 1,26,27
 100 680 100 680 159.5 702 c 128,-1,28
 219 724 219 724 299 724 c 0,29,30
 417 724 417 724 479.5 674 c 128,-1,31
 542 624 542 624 542 546 c 0,32,33
 542 476 542 476 504 433 c 128,-1,34
 466 390 466 390 387 377 c 1,35,-1
 387 373 l 1,36,37
 483 363 483 363 524 321 c 128,-1,38
 565 279 565 279 565 208 c 0,39,40
 565 105 565 105 484.5 47.5 c 128,-1,41
 404 -10 404 -10 263 -10 c 0,0,1
EndSplineSet
EndChar

StartChar: afii10026
Encoding: 1048 1048 433
Width: 600
GlyphClass: 2
Flags: W
AnchorPoint: "Anchor-3" 290 714 basechar 0
AnchorPoint: "Anchor-0" 280 0 basechar 0
LayerCount: 2
Fore
SplineSet
40 0 m 1,0,-1
 40 714 l 1,1,-1
 188 714 l 1,2,-1
 188 424 l 2,3,4
 188 392 188 392 186.5 350.5 c 128,-1,5
 185 309 185 309 181 255 c 1,6,-1
 185 255 l 1,7,-1
 375 714 l 1,8,-1
 560 714 l 1,9,-1
 560 0 l 1,10,-1
 411 0 l 1,11,-1
 411 294 l 2,12,13
 411 325 411 325 412.5 368.5 c 128,-1,14
 414 412 414 412 419 467 c 1,15,-1
 415 467 l 1,16,-1
 224 0 l 1,17,-1
 40 0 l 1,0,-1
EndSplineSet
EndChar

StartChar: afii10028
Encoding: 1050 1050 435
Width: 600
GlyphClass: 2
Flags: W
AnchorPoint: "Anchor-3" 300 714 basechar 0
AnchorPoint: "Anchor-0" 296 0 basechar 0
LayerCount: 2
Fore
SplineSet
40 0 m 1,0,-1
 40 714 l 1,1,-1
 217 714 l 1,2,-1
 217 368 l 1,3,-1
 368 714 l 1,4,-1
 561 714 l 1,5,-1
 398 372 l 1,6,-1
 575 0 l 1,7,-1
 375 0 l 1,8,-1
 217 362 l 1,9,-1
 217 0 l 1,10,-1
 40 0 l 1,0,-1
EndSplineSet
EndChar

StartChar: afii10029
Encoding: 1051 1051 436
Width: 600
GlyphClass: 2
Flags: W
AnchorPoint: "Anchor-3" 380 714 basechar 0
AnchorPoint: "Anchor-0" 300 0 basechar 0
LayerCount: 2
Fore
SplineSet
87 -9 m 0,0,1
 64 -9 64 -9 46.5 -6.5 c 128,-1,2
 29 -4 29 -4 17 1 c 1,3,-1
 17 130 l 1,4,5
 36 121 36 121 52 121 c 0,6,7
 72 121 72 121 85.5 141.5 c 128,-1,8
 99 162 99 162 108 227 c 0,9,10
 111 249 111 249 117 300.5 c 128,-1,11
 123 352 123 352 130 421 c 128,-1,12
 137 490 137 490 144 566 c 128,-1,13
 151 642 151 642 157 714 c 1,14,-1
 560 714 l 1,15,-1
 560 0 l 1,16,-1
 408 0 l 1,17,-1
 408 572 l 1,18,-1
 293 572 l 1,19,20
 289 510 289 510 283 446 c 128,-1,21
 277 382 277 382 270.5 323.5 c 128,-1,22
 264 265 264 265 257 217.5 c 128,-1,23
 250 170 250 170 244 142 c 0,24,25
 229 74 229 74 203 42 c 128,-1,26
 177 10 177 10 146.5 0.5 c 128,-1,27
 116 -9 116 -9 87 -9 c 0,0,1
EndSplineSet
EndChar

StartChar: afii10033
Encoding: 1055 1055 440
Width: 600
GlyphClass: 2
Flags: W
AnchorPoint: "Anchor-3" 300 714 basechar 0
AnchorPoint: "Anchor-0" 300 0 basechar 0
LayerCount: 2
Fore
SplineSet
40 0 m 1,0,-1
 40 714 l 1,1,-1
 560 714 l 1,2,-1
 560 0 l 1,3,-1
 383 0 l 1,4,-1
 383 568 l 1,5,-1
 217 568 l 1,6,-1
 217 0 l 1,7,-1
 40 0 l 1,0,-1
EndSplineSet
EndChar

StartChar: afii10037
Encoding: 1059 1059 444
Width: 600
GlyphClass: 2
Flags: W
AnchorPoint: "Anchor-3" 300 714 basechar 0
AnchorPoint: "Anchor-0" 200 0 basechar 0
LayerCount: 2
Fore
SplineSet
159 -10 m 0,0,1
 134 -10 134 -10 100 -6.5 c 128,-1,2
 66 -3 66 -3 38 5 c 1,3,-1
 38 154 l 1,4,5
 64 144 64 144 94.5 140 c 128,-1,6
 125 136 125 136 145 136 c 0,7,8
 182 136 182 136 199 149.5 c 128,-1,9
 216 163 216 163 227 202 c 1,10,-1
 15 714 l 1,11,-1
 198 714 l 1,12,-1
 279 462 l 2,13,14
 284 448 284 448 289.5 427 c 128,-1,15
 295 406 295 406 299.5 383.5 c 128,-1,16
 304 361 304 361 306 345 c 1,17,-1
 312 345 l 1,18,19
 315 361 315 361 320.5 383 c 128,-1,20
 326 405 326 405 332 425.5 c 128,-1,21
 338 446 338 446 341 460 c 2,22,-1
 410 714 l 1,23,-1
 585 714 l 1,24,-1
 419 211 l 2,25,26
 396 140 396 140 365 91 c 128,-1,27
 334 42 334 42 285 16 c 128,-1,28
 236 -10 236 -10 159 -10 c 0,0,1
EndSplineSet
EndChar

StartChar: afii10038
Encoding: 1060 1060 445
Width: 600
GlyphClass: 2
Flags: W
AnchorPoint: "Anchor-3" 300 714 basechar 0
AnchorPoint: "Anchor-0" 300 0 basechar 0
LayerCount: 2
Fore
SplineSet
236 -10 m 1,0,-1
 236 100 l 1,1,2
 123 100 123 100 66.5 173.5 c 128,-1,3
 10 247 10 247 10 371 c 0,4,5
 10 444 10 444 33 504 c 128,-1,6
 56 564 56 564 105.5 600 c 128,-1,7
 155 636 155 636 236 636 c 1,8,-1
 236 724 l 1,9,-1
 364 724 l 1,10,-1
 364 636 l 1,11,12
 438 636 438 636 488.5 601.5 c 128,-1,13
 539 567 539 567 564.5 506.5 c 128,-1,14
 590 446 590 446 590 370 c 0,15,16
 590 248 590 248 532.5 174 c 128,-1,17
 475 100 475 100 364 100 c 1,18,-1
 364 -10 l 1,19,-1
 236 -10 l 1,0,-1
236 227 m 1,20,-1
 236 509 l 1,21,22
 150 509 150 509 150 372 c 0,23,24
 150 292 150 292 171 259.5 c 128,-1,25
 192 227 192 227 236 227 c 1,20,-1
364 227 m 1,26,27
 408 227 408 227 428.5 262.5 c 128,-1,28
 449 298 449 298 449 372 c 0,29,30
 449 438 449 438 428 473.5 c 128,-1,31
 407 509 407 509 364 509 c 1,32,-1
 364 227 l 1,26,27
EndSplineSet
EndChar

StartChar: afii10040
Encoding: 1062 1062 447
Width: 600
GlyphClass: 2
Flags: W
AnchorPoint: "Anchor-3" 300 714 basechar 0
AnchorPoint: "Anchor-0" 300 -216 basechar 0
LayerCount: 2
Fore
SplineSet
40 0 m 1,0,-1
 40 714 l 1,1,-1
 217 714 l 1,2,-1
 217 146 l 1,3,-1
 383 146 l 1,4,-1
 383 714 l 1,5,-1
 560 714 l 1,6,-1
 560 143 l 1,7,-1
 600 143 l 1,8,-1
 600 -217 l 1,9,-1
 428 -217 l 1,10,-1
 428 0 l 1,11,-1
 40 0 l 1,0,-1
EndSplineSet
EndChar

StartChar: afii10041
Encoding: 1063 1063 448
Width: 600
GlyphClass: 2
Flags: W
AnchorPoint: "Anchor-3" 300 714 basechar 0
AnchorPoint: "Anchor-0" 300 0 basechar 0
LayerCount: 2
Fore
SplineSet
386 0 m 1,0,-1
 386 269 l 1,1,2
 333 243 333 243 296 234 c 128,-1,3
 259 225 259 225 225 225 c 0,4,5
 131 225 131 225 85.5 274.5 c 128,-1,6
 40 324 40 324 40 415 c 2,7,-1
 40 714 l 1,8,-1
 218 714 l 1,9,-1
 218 471 l 2,10,11
 218 417 218 417 233 394 c 128,-1,12
 248 371 248 371 288 371 c 0,13,14
 307 371 307 371 328.5 377.5 c 128,-1,15
 350 384 350 384 386 405 c 1,16,-1
 386 714 l 1,17,-1
 560 714 l 1,18,-1
 560 0 l 1,19,-1
 386 0 l 1,0,-1
EndSplineSet
EndChar

StartChar: afii10042
Encoding: 1064 1064 449
Width: 600
GlyphClass: 2
Flags: W
AnchorPoint: "Anchor-3" 300 714 basechar 0
AnchorPoint: "Anchor-0" 300 0 basechar 0
LayerCount: 2
Fore
SplineSet
30 0 m 1,0,-1
 30 714 l 1,1,-1
 173 714 l 1,2,-1
 173 132 l 1,3,-1
 229 132 l 1,4,-1
 229 714 l 1,5,-1
 373 714 l 1,6,-1
 373 132 l 1,7,-1
 427 132 l 1,8,-1
 427 714 l 1,9,-1
 570 714 l 1,10,-1
 570 0 l 1,11,-1
 30 0 l 1,0,-1
EndSplineSet
EndChar

StartChar: afii10043
Encoding: 1065 1065 450
Width: 600
GlyphClass: 2
Flags: W
AnchorPoint: "Anchor-3" 300 714 basechar 0
AnchorPoint: "Anchor-0" 300 -216 basechar 0
LayerCount: 2
Fore
SplineSet
30 0 m 1,0,-1
 30 714 l 1,1,-1
 173 714 l 1,2,-1
 173 132 l 1,3,-1
 229 132 l 1,4,-1
 229 714 l 1,5,-1
 373 714 l 1,6,-1
 373 132 l 1,7,-1
 427 132 l 1,8,-1
 427 714 l 1,9,-1
 570 714 l 1,10,-1
 570 132 l 1,11,-1
 588 132 l 1,12,-1
 588 -216 l 1,13,-1
 439 -216 l 1,14,-1
 439 0 l 1,15,-1
 30 0 l 1,0,-1
EndSplineSet
EndChar

StartChar: afii10044
Encoding: 1066 1066 451
Width: 600
GlyphClass: 2
Flags: W
AnchorPoint: "Anchor-3" 300 714 basechar 0
AnchorPoint: "Anchor-0" 300 0 basechar 0
LayerCount: 2
Fore
SplineSet
80 0 m 1,0,-1
 80 568 l 1,1,-1
 0 568 l 1,2,-1
 0 714 l 1,3,-1
 257 714 l 1,4,-1
 257 454 l 1,5,-1
 323 454 l 2,6,7
 414 454 414 454 473.5 426 c 128,-1,8
 533 398 533 398 561.5 348.5 c 128,-1,9
 590 299 590 299 590 235 c 0,10,11
 590 125 590 125 518.5 62.5 c 128,-1,12
 447 0 447 0 310 0 c 2,13,-1
 80 0 l 1,0,-1
257 142 m 1,14,-1
 309 142 l 2,15,16
 413 142 413 142 413 229 c 0,17,18
 413 274 413 274 383.5 293 c 128,-1,19
 354 312 354 312 307 312 c 2,20,-1
 257 312 l 1,21,-1
 257 142 l 1,14,-1
EndSplineSet
EndChar

StartChar: afii10045
Encoding: 1067 1067 452
Width: 600
GlyphClass: 2
Flags: W
AnchorPoint: "Anchor-3" 300 714 basechar 0
AnchorPoint: "Anchor-0" 300 0 basechar 0
LayerCount: 2
Fore
SplineSet
30 0 m 1,0,-1
 30 714 l 1,1,-1
 173 714 l 1,2,-1
 173 451 l 1,3,-1
 194 451 l 2,4,5
 288 451 288 451 339 396 c 128,-1,6
 390 341 390 341 390 231 c 0,7,8
 390 120 390 120 340 60 c 128,-1,9
 290 0 290 0 202 0 c 2,10,-1
 30 0 l 1,0,-1
417 0 m 1,11,-1
 417 714 l 1,12,-1
 570 714 l 1,13,-1
 570 0 l 1,14,-1
 417 0 l 1,11,-1
173 130 m 1,15,-1
 195 130 l 2,16,17
 218 130 218 130 232.5 154.5 c 128,-1,18
 247 179 247 179 247 230 c 0,19,20
 247 321 247 321 194 321 c 2,21,-1
 173 321 l 1,22,-1
 173 130 l 1,15,-1
EndSplineSet
EndChar

StartChar: afii10046
Encoding: 1068 1068 453
Width: 600
GlyphClass: 2
Flags: W
AnchorPoint: "Anchor-3" 300 714 basechar 0
AnchorPoint: "Anchor-0" 300 0 basechar 0
LayerCount: 2
Fore
SplineSet
60 0 m 1,0,-1
 60 714 l 1,1,-1
 237 714 l 1,2,-1
 237 454 l 1,3,-1
 303 454 l 2,4,5
 394 454 394 454 453.5 426 c 128,-1,6
 513 398 513 398 541.5 348.5 c 128,-1,7
 570 299 570 299 570 235 c 0,8,9
 570 125 570 125 498.5 62.5 c 128,-1,10
 427 0 427 0 290 0 c 2,11,-1
 60 0 l 1,0,-1
237 142 m 1,12,-1
 289 142 l 2,13,14
 393 142 393 142 393 229 c 0,15,16
 393 274 393 274 363.5 293 c 128,-1,17
 334 312 334 312 287 312 c 2,18,-1
 237 312 l 1,19,-1
 237 142 l 1,12,-1
EndSplineSet
EndChar

StartChar: afii10048
Encoding: 1070 1070 455
Width: 600
GlyphClass: 2
Flags: W
AnchorPoint: "Anchor-3" 300 714 basechar 0
AnchorPoint: "Anchor-0" 300 0 basechar 0
LayerCount: 2
Fore
SplineSet
27 0 m 1,0,-1
 27 714 l 1,1,-1
 167 714 l 1,2,-1
 167 436 l 1,3,-1
 200 436 l 1,4,5
 206 543 206 543 228 606.5 c 128,-1,6
 250 670 250 670 290.5 697.5 c 128,-1,7
 331 725 331 725 392 725 c 0,8,9
 463 725 463 725 504.5 688 c 128,-1,10
 546 651 546 651 563.5 569.5 c 128,-1,11
 581 488 581 488 581 355 c 0,12,13
 581 223 581 223 563 142.5 c 128,-1,14
 545 62 545 62 503.5 26 c 128,-1,15
 462 -10 462 -10 391 -10 c 0,16,17
 322 -10 322 -10 281 21 c 128,-1,18
 240 52 240 52 220.5 121 c 128,-1,19
 201 190 201 190 199 305 c 1,20,-1
 167 305 l 1,21,-1
 167 0 l 1,22,-1
 27 0 l 1,0,-1
388 125 m 256,23,24
 408 125 408 125 418 146 c 128,-1,25
 428 167 428 167 430.5 217.5 c 128,-1,26
 433 268 433 268 433 357 c 256,27,28
 433 446 433 446 430.5 497.5 c 128,-1,29
 428 549 428 549 419 571 c 128,-1,30
 410 593 410 593 389 593 c 256,31,32
 368 593 368 593 358.5 570.5 c 128,-1,33
 349 548 349 548 346.5 496 c 128,-1,34
 344 444 344 444 344 356 c 256,35,36
 344 268 344 268 346.5 217.5 c 128,-1,37
 349 167 349 167 358.5 146 c 128,-1,38
 368 125 368 125 388 125 c 256,23,24
EndSplineSet
EndChar

StartChar: afii10066
Encoding: 1073 1073 458
Width: 600
GlyphClass: 2
Flags: W
AnchorPoint: "Anchor-3" 300 767 basechar 0
AnchorPoint: "Anchor-0" 300 0 basechar 0
LayerCount: 2
Fore
SplineSet
298 -10 m 0,0,1
 176 -10 176 -10 103 78 c 128,-1,2
 30 166 30 166 30 329 c 0,3,4
 30 449 30 449 60 535 c 128,-1,5
 90 621 90 621 160 672.5 c 128,-1,6
 230 724 230 724 349 743 c 0,7,8
 440 756 440 756 552 767 c 1,9,-1
 570 620 l 1,10,11
 519 616 519 616 460.5 609 c 128,-1,12
 402 602 402 602 358 596 c 0,13,14
 300 588 300 588 267.5 570 c 128,-1,15
 235 552 235 552 221.5 518.5 c 128,-1,16
 208 485 208 485 205 432 c 1,17,-1
 212 432 l 1,18,19
 227 460 227 460 265.5 486.5 c 128,-1,20
 304 513 304 513 360 513 c 0,21,22
 420 513 420 513 467 488 c 128,-1,23
 514 463 514 463 541 410.5 c 128,-1,24
 568 358 568 358 568 275 c 0,25,26
 568 180 568 180 534 117 c 128,-1,27
 500 54 500 54 439 22 c 128,-1,28
 378 -10 378 -10 298 -10 c 0,0,1
308 124 m 0,29,30
 345 124 345 124 367.5 154 c 128,-1,31
 390 184 390 184 390 257 c 0,32,33
 390 315 390 315 373.5 351 c 128,-1,34
 357 387 357 387 316 387 c 0,35,36
 291 387 291 387 268.5 373.5 c 128,-1,37
 246 360 246 360 230 342.5 c 128,-1,38
 214 325 214 325 208 313 c 1,39,40
 208 267 208 267 217.5 223.5 c 128,-1,41
 227 180 227 180 248.5 152 c 128,-1,42
 270 124 270 124 308 124 c 0,29,30
EndSplineSet
Substitution2: "'locl' Localized Forms in Cyrillic lookup 19 subtable" afii10066.loclSRB
Substitution2: "'aalt' Access All Alternates lookup 0 subtable" afii10066.loclSRB
EndChar

StartChar: afii10067
Encoding: 1074 1074 459
Width: 600
GlyphClass: 2
Flags: W
AnchorPoint: "Anchor-3" 300 553 basechar 0
AnchorPoint: "Anchor-0" 300 0 basechar 0
LayerCount: 2
Fore
SplineSet
81 0 m 1,0,-1
 81 553 l 1,1,-1
 308 553 l 2,2,3
 412 553 412 553 467 518.5 c 128,-1,4
 522 484 522 484 522 410 c 0,5,6
 522 366 522 366 495.5 332 c 128,-1,7
 469 298 469 298 415 289 c 1,8,-1
 415 285 l 1,9,10
 474 278 474 278 506.5 245 c 128,-1,11
 539 212 539 212 539 160 c 0,12,13
 539 116 539 116 517.5 80 c 128,-1,14
 496 44 496 44 445.5 22 c 128,-1,15
 395 0 395 0 307 0 c 2,16,-1
 81 0 l 1,0,-1
225 343 m 1,17,-1
 293 343 l 2,18,19
 367 343 367 343 367 390 c 0,20,21
 367 436 367 436 304 436 c 2,22,-1
 225 436 l 1,23,-1
 225 343 l 1,17,-1
225 117 m 1,24,-1
 300 117 l 2,25,26
 380 117 380 117 380 175 c 0,27,28
 380 200 380 200 362 214 c 128,-1,29
 344 228 344 228 300 228 c 2,30,-1
 225 228 l 1,31,-1
 225 117 l 1,24,-1
EndSplineSet
EndChar

StartChar: afii10068
Encoding: 1075 1075 460
Width: 600
GlyphClass: 2
Flags: W
AnchorPoint: "Anchor-3" 342 553 basechar 0
AnchorPoint: "Anchor-0" 300 0 basechar 0
LayerCount: 2
Fore
SplineSet
134 0 m 1,0,-1
 134 553 l 1,1,-1
 532 553 l 1,2,-1
 532 420 l 1,3,-1
 308 420 l 1,4,-1
 308 0 l 1,5,-1
 134 0 l 1,0,-1
EndSplineSet
EndChar

StartChar: afii10069
Encoding: 1076 1076 461
Width: 600
GlyphClass: 2
Flags: W
AnchorPoint: "Anchor-3" 335 553 basechar 0
AnchorPoint: "Anchor-0" 300 -200 basechar 0
LayerCount: 2
Fore
SplineSet
33 -200 m 1,0,-1
 33 122 l 1,1,-1
 80 122 l 1,2,3
 114 204 114 204 135.5 318 c 128,-1,4
 157 432 157 432 164 553 c 1,5,-1
 505 553 l 1,6,-1
 505 122 l 1,7,-1
 567 122 l 1,8,-1
 567 -200 l 1,9,-1
 425 -200 l 1,10,-1
 425 0 l 1,11,-1
 175 0 l 1,12,-1
 175 -200 l 1,13,-1
 33 -200 l 1,0,-1
232 122 m 1,14,-1
 360 122 l 1,15,-1
 360 431 l 1,16,-1
 288 431 l 1,17,18
 284 378 284 378 277.5 330 c 128,-1,19
 271 282 271 282 260 232 c 128,-1,20
 249 182 249 182 232 122 c 1,14,-1
EndSplineSet
EndChar

StartChar: afii10072
Encoding: 1078 1078 463
Width: 600
GlyphClass: 2
Flags: W
AnchorPoint: "Anchor-3" 300 553 basechar 0
AnchorPoint: "Anchor-0" 300 0 basechar 0
LayerCount: 2
Fore
SplineSet
6 0 m 1,0,-1
 85 287 l 1,1,-1
 18 553 l 1,2,-1
 174 553 l 1,3,-1
 228 284 l 1,4,-1
 228 553 l 1,5,-1
 371 553 l 1,6,-1
 371 284 l 1,7,-1
 425 553 l 1,8,-1
 581 553 l 1,9,-1
 514 287 l 1,10,-1
 593 0 l 1,11,-1
 433 0 l 1,12,-1
 371 280 l 1,13,-1
 371 0 l 1,14,-1
 228 0 l 1,15,-1
 228 280 l 1,16,-1
 166 0 l 1,17,-1
 6 0 l 1,0,-1
EndSplineSet
EndChar

